{
    "asset" : {
        "generator" : "Khronos glTF Blender I/O v1.6.16",
        "version" : "2.0"
    },
    "scene" : 0,
    "scenes" : [
        {
            "name" : "Scene",
            "nodes" : [
                7,
                8,
                9
            ]
        }
    ],
    "nodes" : [
        {
            "mesh" : 0,
            "name" : "piece1",
            "translation" : [
                -0.25,
                0,
                0
            ]
        },
        {
            "mesh" : 1,
            "name" : "piece2",
            "translation" : [
                0.1600000113248825,
                0,
                -0.14000001549720764
            ]
        },
        {
            "mesh" : 2,
            "name" : "piece3",
            "translation" : [
                0.05999999865889549,
                0,
                0
            ]
        },
        {
            "mesh" : 3,
            "name" : "piece4",
            "translation" : [
                0.19999998807907104,
                0,
                0.10999999940395355
            ]
        },
        {
            "mesh" : 4,
            "name" : "piece5",
            "translation" : [
                -0.059999994933605194,
                0,
                -0.11999999731779099
            ]
        },
        {
            "mesh" : 5,
            "name" : "piece6",
            "translation" : [
                -0.20000000298023224,
                0,
                -0.2199999988079071
            ]
        },
        {
            "mesh" : 6,
            "name" : "piece7",
            "translation" : [
                -0.03999999910593033,
                0,
                0.12999999523162842
            ]
        },
        {
            "children" : [
                0,
                1,
                2,
                3,
                4,
                5,
                6
            ],
            "name" : "tangram",
            "rotation" : [
                0.7116087675094604,
                0,
                0,
                0.7025760412216187
            ],
            "translation" : [
                0,
                0.6675490736961365,
                0
            ]
        },
        {
            "name" : "Lamp",
            "rotation" : [
                0.16907575726509094,
                0.7558803558349609,
                -0.27217137813568115,
                0.570947527885437
            ],
            "translation" : [
                4.076245307922363,
                5.903861999511719,
                -1.0054539442062378
            ]
        },
        {
            "name" : "Camera",
            "rotation" : [
                0.48170700669288635,
                0.3342514932155609,
                -0.21292176842689514,
                0.7816000580787659
            ],
            "translation" : [
                7.481131553649902,
                5.34366512298584,
                6.5076398849487305
            ]
        }
    ],
    "materials" : [
        {
            "doubleSided" : true,
            "name" : "Material #1",
            "pbrMetallicRoughness" : {
                "baseColorFactor" : [
                    1,
                    0.501960813999176,
                    0,
                    1
                ],
                "metallicFactor" : 0,
                "roughnessFactor" : 0.5
            }
        },
        {
            "doubleSided" : true,
            "name" : "Material #2",
            "pbrMetallicRoughness" : {
                "baseColorFactor" : [
                    1,
                    1,
                    0,
                    1
                ],
                "metallicFactor" : 0,
                "roughnessFactor" : 0.5
            }
        },
        {
            "doubleSided" : true,
            "name" : "Material #3",
            "pbrMetallicRoughness" : {
                "baseColorFactor" : [
                    1,
                    1,
                    1,
                    1
                ],
                "metallicFactor" : 0,
                "roughnessFactor" : 0.5
            }
        },
        {
            "doubleSided" : true,
            "name" : "Material #4",
            "pbrMetallicRoughness" : {
                "baseColorFactor" : [
                    0,
                    0,
                    1,
                    1
                ],
                "metallicFactor" : 0,
                "roughnessFactor" : 0.5
            }
        },
        {
            "doubleSided" : true,
            "name" : "Material #5",
            "pbrMetallicRoughness" : {
                "baseColorFactor" : [
                    0,
                    1,
                    0,
                    1
                ],
                "metallicFactor" : 0,
                "roughnessFactor" : 0.5
            }
        },
        {
            "doubleSided" : true,
            "name" : "Material #6",
            "pbrMetallicRoughness" : {
                "baseColorFactor" : [
                    1,
                    0,
                    1,
                    1
                ],
                "metallicFactor" : 0,
                "roughnessFactor" : 0.5
            }
        },
        {
            "doubleSided" : true,
            "name" : "Material #7",
            "pbrMetallicRoughness" : {
                "baseColorFactor" : [
                    1,
                    0,
                    0,
                    1
                ],
                "metallicFactor" : 0,
                "roughnessFactor" : 0.5
            }
        }
    ],
    "meshes" : [
        {
            "name" : "piece1",
            "primitives" : [
                {
                    "attributes" : {
                        "POSITION" : 0,
                        "NORMAL" : 1,
                        "TEXCOORD_0" : 2
                    },
                    "indices" : 3,
                    "material" : 0
                }
            ]
        },
        {
            "name" : "piece2",
            "primitives" : [
                {
                    "attributes" : {
                        "POSITION" : 4,
                        "NORMAL" : 5,
                        "TEXCOORD_0" : 6
                    },
                    "indices" : 7,
                    "material" : 1
                }
            ]
        },
        {
            "name" : "piece3",
            "primitives" : [
                {
                    "attributes" : {
                        "POSITION" : 8,
                        "NORMAL" : 9,
                        "TEXCOORD_0" : 10
                    },
                    "indices" : 11,
                    "material" : 2
                }
            ]
        },
        {
            "name" : "piece4",
            "primitives" : [
                {
                    "attributes" : {
                        "POSITION" : 12,
                        "NORMAL" : 13,
                        "TEXCOORD_0" : 14
                    },
                    "indices" : 15,
                    "material" : 3
                }
            ]
        },
        {
            "name" : "piece5",
            "primitives" : [
                {
                    "attributes" : {
                        "POSITION" : 16,
                        "NORMAL" : 17,
                        "TEXCOORD_0" : 18
                    },
                    "indices" : 19,
                    "material" : 4
                }
            ]
        },
        {
            "name" : "piece6",
            "primitives" : [
                {
                    "attributes" : {
                        "POSITION" : 20,
                        "NORMAL" : 21,
                        "TEXCOORD_0" : 22
                    },
                    "indices" : 23,
                    "material" : 5
                }
            ]
        },
        {
            "name" : "piece7",
            "primitives" : [
                {
                    "attributes" : {
                        "POSITION" : 24,
                        "NORMAL" : 25,
                        "TEXCOORD_0" : 26
                    },
                    "indices" : 27,
                    "material" : 6
                }
            ]
        }
    ],
    "accessors" : [
        {
            "bufferView" : 0,
            "componentType" : 5126,
            "count" : 54,
            "max" : [
                1,
                0.3628286123275757,
                2
            ],
            "min" : [
                -1,
                0.11282862722873688,
                -2
            ],
            "type" : "VEC3"
        },
        {
            "bufferView" : 1,
            "componentType" : 5126,
            "count" : 54,
            "type" : "VEC3"
        },
        {
            "bufferView" : 2,
            "componentType" : 5126,
            "count" : 54,
            "type" : "VEC2"
        },
        {
            "bufferView" : 3,
            "componentType" : 5123,
            "count" : 60,
            "type" : "SCALAR"
        },
        {
            "bufferView" : 4,
            "componentType" : 5126,
            "count" : 54,
            "max" : [
                3,
                0.3628286123275757,
                -5.960464477539063e-08
            ],
            "min" : [
                1,
                0.11282862722873688,
                -2
            ],
            "type" : "VEC3"
        },
        {
            "bufferView" : 5,
            "componentType" : 5126,
            "count" : 54,
            "type" : "VEC3"
        },
        {
            "bufferView" : 6,
            "componentType" : 5126,
            "count" : 54,
            "type" : "VEC2"
        },
        {
            "bufferView" : 7,
            "componentType" : 5123,
            "count" : 60,
            "type" : "SCALAR"
        },
        {
            "bufferView" : 8,
            "componentType" : 5126,
            "count" : 54,
            "max" : [
                2,
                0.3628286123275757,
                1
            ],
            "min" : [
                1,
                0.11282862722873688,
                -1
            ],
            "type" : "VEC3"
        },
        {
            "bufferView" : 9,
            "componentType" : 5126,
            "count" : 54,
            "type" : "VEC3"
        },
        {
            "bufferView" : 10,
            "componentType" : 5126,
            "count" : 54,
            "type" : "VEC2"
        },
        {
            "bufferView" : 11,
            "componentType" : 5123,
            "count" : 60,
            "type" : "SCALAR"
        },
        {
            "bufferView" : 12,
            "componentType" : 5126,
            "count" : 76,
            "max" : [
                3,
                0.3628286123275757,
                2
            ],
            "min" : [
                2,
                0.11282862722873688,
                -1
            ],
            "type" : "VEC3"
        },
        {
            "bufferView" : 13,
            "componentType" : 5126,
            "count" : 76,
            "type" : "VEC3"
        },
        {
            "bufferView" : 14,
            "componentType" : 5126,
            "count" : 76,
            "type" : "VEC2"
        },
        {
            "bufferView" : 15,
            "componentType" : 5123,
            "count" : 84,
            "type" : "SCALAR"
        },
        {
            "bufferView" : 16,
            "componentType" : 5126,
            "count" : 72,
            "max" : [
                2,
                0.3628286123275757,
                0
            ],
            "min" : [
                0,
                0.11282862722873688,
                -2
            ],
            "type" : "VEC3"
        },
        {
            "bufferView" : 17,
            "componentType" : 5126,
            "count" : 72,
            "type" : "VEC3"
        },
        {
            "bufferView" : 18,
            "componentType" : 5126,
            "count" : 72,
            "type" : "VEC2"
        },
        {
            "bufferView" : 19,
            "componentType" : 5123,
            "count" : 84,
            "type" : "SCALAR"
        },
        {
            "bufferView" : 20,
            "componentType" : 5126,
            "count" : 54,
            "max" : [
                1,
                0.3628286123275757,
                -1
            ],
            "min" : [
                -0.9999999403953552,
                0.11282862722873688,
                -2
            ],
            "type" : "VEC3"
        },
        {
            "bufferView" : 21,
            "componentType" : 5126,
            "count" : 54,
            "type" : "VEC3"
        },
        {
            "bufferView" : 22,
            "componentType" : 5126,
            "count" : 54,
            "type" : "VEC2"
        },
        {
            "bufferView" : 23,
            "componentType" : 5123,
            "count" : 60,
            "type" : "SCALAR"
        },
        {
            "bufferView" : 24,
            "componentType" : 5126,
            "count" : 54,
            "max" : [
                3,
                0.3628286123275757,
                2
            ],
            "min" : [
                -1,
                0.11282862722873688,
                0
            ],
            "type" : "VEC3"
        },
        {
            "bufferView" : 25,
            "componentType" : 5126,
            "count" : 54,
            "type" : "VEC3"
        },
        {
            "bufferView" : 26,
            "componentType" : 5126,
            "count" : 54,
            "type" : "VEC2"
        },
        {
            "bufferView" : 27,
            "componentType" : 5123,
            "count" : 60,
            "type" : "SCALAR"
        }
    ],
    "bufferViews" : [
        {
            "buffer" : 0,
            "byteLength" : 648,
            "byteOffset" : 0
        },
        {
            "buffer" : 0,
            "byteLength" : 648,
            "byteOffset" : 648
        },
        {
            "buffer" : 0,
            "byteLength" : 432,
            "byteOffset" : 1296
        },
        {
            "buffer" : 0,
            "byteLength" : 120,
            "byteOffset" : 1728
        },
        {
            "buffer" : 0,
            "byteLength" : 648,
            "byteOffset" : 1848
        },
        {
            "buffer" : 0,
            "byteLength" : 648,
            "byteOffset" : 2496
        },
        {
            "buffer" : 0,
            "byteLength" : 432,
            "byteOffset" : 3144
        },
        {
            "buffer" : 0,
            "byteLength" : 120,
            "byteOffset" : 3576
        },
        {
            "buffer" : 0,
            "byteLength" : 648,
            "byteOffset" : 3696
        },
        {
            "buffer" : 0,
            "byteLength" : 648,
            "byteOffset" : 4344
        },
        {
            "buffer" : 0,
            "byteLength" : 432,
            "byteOffset" : 4992
        },
        {
            "buffer" : 0,
            "byteLength" : 120,
            "byteOffset" : 5424
        },
        {
            "buffer" : 0,
            "byteLength" : 912,
            "byteOffset" : 5544
        },
        {
            "buffer" : 0,
            "byteLength" : 912,
            "byteOffset" : 6456
        },
        {
            "buffer" : 0,
            "byteLength" : 608,
            "byteOffset" : 7368
        },
        {
            "buffer" : 0,
            "byteLength" : 168,
            "byteOffset" : 7976
        },
        {
            "buffer" : 0,
            "byteLength" : 864,
            "byteOffset" : 8144
        },
        {
            "buffer" : 0,
            "byteLength" : 864,
            "byteOffset" : 9008
        },
        {
            "buffer" : 0,
            "byteLength" : 576,
            "byteOffset" : 9872
        },
        {
            "buffer" : 0,
            "byteLength" : 168,
            "byteOffset" : 10448
        },
        {
            "buffer" : 0,
            "byteLength" : 648,
            "byteOffset" : 10616
        },
        {
            "buffer" : 0,
            "byteLength" : 648,
            "byteOffset" : 11264
        },
        {
            "buffer" : 0,
            "byteLength" : 432,
            "byteOffset" : 11912
        },
        {
            "buffer" : 0,
            "byteLength" : 120,
            "byteOffset" : 12344
        },
        {
            "buffer" : 0,
            "byteLength" : 648,
            "byteOffset" : 12464
        },
        {
            "buffer" : 0,
            "byteLength" : 648,
            "byteOffset" : 13112
        },
        {
            "buffer" : 0,
            "byteLength" : 432,
            "byteOffset" : 13760
        },
        {
            "buffer" : 0,
            "byteLength" : 120,
            "byteOffset" : 14192
        }
    ],
    "buffers" : [
        {
            "byteLength" : 14312,
            "uri" : "data:application/octet-stream;base64,"
        }
    ]
}
