<?xml version="1.0" encoding="utf-8"?>
<!-- Generator: Adobe Illustrator 27.3.1, SVG Export Plug-In . SVG Version: 6.00 Build 0)  -->
<svg version="1.1"
	 id="svg2" xmlns:rdf="http://www.w3.org/1999/02/22-rdf-syntax-ns#" xmlns:cc="http://creativecommons.org/ns#" xmlns:svg="http://www.w3.org/2000/svg" xmlns:dc="http://purl.org/dc/elements/1.1/"
	 xmlns="http://www.w3.org/2000/svg" xmlns:xlink="http://www.w3.org/1999/xlink" x="0px" y="0px" viewBox="0 0 647.2 751"
	 style="enable-background:new 0 0 647.2 751;" xml:space="preserve">
<style type="text/css">
	.st0{fill-rule:evenodd;clip-rule:evenodd;fill:#F3CB14;}
</style>
<g>
	<path class="st0" d="M588.4,0H58.8C15.8,0,0,15.8,0,58.8V577c0,4.9,0.2,9.4,0.6,13.6c1,9.4,1.2,18.5,9.9,28.8
		c0.9,1,9.8,7.6,9.8,7.6c4.8,2.3,8.1,4.1,13.5,6.3l260.8,109.3c13.5,6.2,19.2,8.6,29,8.4v0c0,0,0,0,0,0c0,0,0,0,0,0v0
		c9.8,0.2,15.5-2.2,29-8.4l260.8-109.3c5.4-2.2,8.7-3.9,13.5-6.3c0,0,8.9-6.6,9.8-7.6c8.7-10.3,8.9-19.4,9.9-28.8
		c0.4-4.2,0.6-8.7,0.6-13.6V58.8C647.2,15.8,631.3,0,588.4,0z M356.6,99.8h43.8v287.9h-43.8V99.8z M337.5,491.2l0.6,1l0.6-1l0.6-1.1
		l0.7-1l0.6-1.1l0.6-0.9l0.6-1.1l0.7-1l0.6-1.1l0.6-1l0.6-0.9l0.7-1.1l0.6-1l0.6-1.1l0.6-1l0.7-1.1l0.6-1l0.6-1.1l0.6-1l0.6-1
		l0.7-1.1l0.6-1l0.6-1.1l0.6-1l0.7-1.1l0.6-1l0.6-1l0.6-1.1l0.7-0.9l0.6-1.1l0.6-1l0.6-1.1l0.7-0.9l0.6-1.1l0.6-1h1.2h1.2h1.1h1.2
		h1.2h1.2h1.1h1.2h1.2h1.2h1.1h1.2h1.2h1.2h1.1h1.2h1.2h1.2h1.1h1.2h1.2v1.2v1.2v1.2v1.2v1.2v1.2v1.2v1.2v1.2v1.2v1.2v1.2v1.2v1.2
		v1.2v1.2v1.2v1.2v1.1v1.2v1.2v1.2v1.2v1.2v1.2v1.2v1.2v1.2v1.2v1.2v1.2v1.2v1.2v1.2v1.2v1.2v1.2v1.2v1.2v1.2v1.2v1.2v1.2v1.2v1.2
		v1.2v1.2v1.2v1.2v1.2v1.2v1.2v1.2v1.2v1.1v1.2v1.2v1.2v1.2v1.2v1.2v1.2v1.2v1.2v1.2v1.2v1.2v1.2v1.2v1.2v1.2v1.2v1.2h-1.2h-1.2
		h-1.2h-1.3h-1.2h-1.2h-1.2h-1.2h-1.2h-1.3h-1.2h-1.2H368h-1.2h-1.2h-1.3h-1.2h-1.2h-1.2v-1.2v-1.2v-1.2v-1.2v-1.2v-1.2v-1.2v-1.2
		v-1.2V533v-1.2v-1.2v-1.2v-1.2V527v-1.2v-1.2v-1.2v-1.2V521v-1.2v-1.2v-1.2v-1.2V515v-1.2v-1.2v-1.2v-1.2V509v-1.2v-1.2v-1.2v-1.2
		V503v-1.2v-1.2v-1.2v-1.2v-1.2v-1.2v-1.2v-1.2l-0.6,1l-0.7,1.1l-0.6,1l-0.7,1l-0.6,1.1l-0.7,1l-0.6,1l-0.6,1.1l-0.7,1l-0.6,1
		l-0.7,1l-0.6,1.1l-0.7,1l-0.6,1l-0.6,1.1l-0.7,1l-0.6,1l-0.7,1.1l-0.6,1l-0.7,1l-0.6,1.1l-0.6,1l-0.7,1l-0.6,1.1l-0.7,1l-0.6,1
		l-0.7,1l-0.6,1.1l-0.6,1l-0.7,1l-0.6,1.1l-0.7,1l-0.6,1l-0.7,1.1l-0.6,1h-0.5l-0.7-1.1l-0.6-1l-0.7-1.1l-0.6-1l-0.7-1.1l-0.6-1
		l-0.7-1.1l-0.6-1l-0.7-1.1l-0.6-1l-0.7-1.1l-0.6-1l-0.7-1.1l-0.6-1l-0.7-1.1l-0.6-1l-0.7-1.1l-0.7-1l-0.6-1.1l-0.7-1l-0.6-1.1
		l-0.7-1l-0.6-1.1l-0.7-1l-0.6-1.1l-0.7-1l-0.6-1.1l-0.7-1l-0.6-1.1l-0.7-1l-0.6-1.1l-0.7-1l-0.6-1.1l-0.7-1v1.2v1.2v1.2v1.2v1.2
		v1.2v1.2v1.2v1.2v1.2v1.1v1.2v1.2v1.2v1.2v1.2v1.2v1.2v1.2v1.2v1.2v1.2v1.2v1.2v1.2v1.2v1.2v1.2v1.2v1.2v1.2v1.2v1.1v1.2v1.2v1.2
		v1.2v1.2v1.2v1.2v1.2v1.2v1.2h-1.2h-1.2h-1.2h-1.2h-1.2h-1.2h-1.2h-1.2h-1.2h-1.2h-1.2H301h-1.2h-1.2h-1.2h-1.2H295h-1.2h-1.2v-1.2
		v-1.2v-1.2v-1.2v-1.2v-1.2v-1.2v-1.2v-1.2V533v-1.2v-1.2v-1.2v-1.2V527v-1.2v-1.2v-1.2v-1.1v-1.2v-1.2v-1.2v-1.2v-1.2v-1.2V514
		v-1.2v-1.2v-1.2v-1.2V508v-1.2v-1.2v-1.2v-1.2V502v-1.2v-1.2v-1.2v-1.2V496v-1.2v-1.2v-1.2v-1.2v-1.2v-1.2v-1.2v-1.2v-1.2v-1.2
		v-1.2v-1.2v-1.2v-1.1v-1.2V477v-1.2v-1.2v-1.2v-1.2v-1.2v-1.2v-1.2v-1.2v-1.2v-1.2v-1.2v-1.2v-1.2v-1.2v-1.2v-1.2h1.2h1.2h1.1h1.2
		h1.2h1.2h1.1h1.2h1.2h1.2h1.1h1.2h1.2h1.2h1.1h1.2h1.2h1.2h1.1h1.2h1.2l0.6,1l0.6,1.1l0.7,0.9l0.6,1.1l0.6,1l0.6,1.1l0.6,0.9
		l0.7,1.1l0.6,1l0.6,1l0.6,1.1l0.6,1l0.7,1.1l0.6,1l0.6,1.1l0.6,1l0.7,1l0.6,1.1l0.6,1l0.6,1.1l0.6,1l0.7,1.1l0.6,1l0.6,1.1l0.6,0.9
		l0.6,1l0.7,1.1l0.6,1l0.6,1.1l0.6,0.9l0.6,1.1l0.7,1L337.5,491.2z M214.9,99.8h68.8c35.6,0,53.2,17.7,53.2,53.5v76.5
		c0,35.8-17.6,53.5-53.2,53.5h-25v104.5h-43.8V99.8z M95.5,99.8h97.4v39.9h-53.6v81.4h51.6V261h-51.6v86.8h54.4v39.9H95.5V99.8z
		 M178.4,495.4v1.2v1.2v1.1v1.2v1.2v1.2v1.2v1.2v1.1v1.2v1.2v1.2v1.2v1.2v1.2v1.1v1.2v1.2v1.2v1.2v1.2v1.2v1.1v1.2v1.2v1.2v1.2v1.2
		v1.1v1.2v1.2v1.2l-0.8,0.7l-1,0.7l-0.8,0.6l-1,0.7l-0.9,0.6l-0.9,0.7l-1,0.6l-0.9,0.6l-1.1,0.6l-1.1,0.6l-1.1,0.6l-1.1,0.5
		l-1.1,0.6l-1.2,0.5l-1.1,0.5l-1.2,0.5l-1.1,0.5l-1.1,0.4l-1.1,0.4l-1.1,0.4l-1.2,0.4l-1.1,0.4l-1.2,0.2l-1.1,0.2l-1.2,0.2l-1.2,0.2
		l-1.2,0.1l-1.3,0.1l-1.2,0.1l-1.3,0.1l-1.2,0.1l-1.3,0.1h-1.3h-1.3h-1.3h-1.2l-1.2-0.1l-1.3-0.1l-1.2-0.1l-1.2-0.1l-1.2-0.1
		l-1.2-0.2l-1.2-0.2l-1.1-0.2l-1.2-0.2l-1.1-0.4l-1.2-0.2l-1.1-0.4l-1.1-0.5l-1.1-0.4l-1.2-0.5l-1.1-0.5l-1.1-0.5l-1.1-0.5l-1.1-0.6
		l-0.9-0.6l-1.1-0.6l-1-0.6l-0.9-0.6l-1-0.7l-0.9-0.7l-1-0.7l-0.8-0.7l-0.8-0.7l-0.8-0.8l-0.8-0.7l-0.8-0.8l-0.8-0.8l-0.7-0.8
		l-0.7-1l-0.7-0.8l-0.6-1l-0.7-1l-0.6-1l-0.6-1l-0.6-1.1l-0.6-1l-0.5-1.1l-0.5-1.1l-0.5-1.1l-0.5-1.1l-0.4-1l-0.5-1.1l-0.2-1.1
		l-0.4-1.1l-0.2-1.2l-0.4-1.1l-0.2-1.2l-0.1-1.1l-0.2-1.2l-0.1-1.1l-0.1-1.2l-0.1-1.2l-0.1-1.2v-1.3v-1.2v-0.2v-1.2l0.1-1.3v-1.2
		l0.1-1.2l0.1-1.3l0.2-1.2l0.1-1.2l0.2-1.1l0.4-1.2l0.2-1.2l0.4-1.1l0.4-1.2l0.4-1.1l0.5-1.2l0.5-1.1l0.5-1.1l0.5-1.1l0.5-1.1
		l0.6-1.1l0.6-1l0.6-1l0.6-1l0.6-1l0.7-1l0.7-1l0.7-1l0.7-0.8l0.8-0.8l0.7-0.8l0.8-0.8l0.8-0.8l0.8-0.7l1-0.8l0.8-0.7l0.9-0.7l1-0.6
		l0.9-0.7l1-0.6l0.9-0.6l1.1-0.6l1.1-0.6l1.1-0.6l1.1-0.5l1.1-0.5l1.2-0.6l0.9-0.4l1.2-0.4l1.1-0.5l1.1-0.2l1.1-0.4l1.2-0.2l1.1-0.4
		l1.2-0.2l1.2-0.1l1.2-0.2l1.2-0.1l1.2-0.1l1.2-0.1l1.2-0.1h1.3h1.2h1.3h1.3l1.3,0.1l1.3,0.1h1.2l1.2,0.1l1.3,0.2l1.1,0.1l1.2,0.2
		l1.2,0.2l1.1,0.2l1.1,0.2l1.1,0.2l1.1,0.4l1.1,0.2l0.9,0.4l1.1,0.4l1.1,0.5l1.1,0.5l1.1,0.5l1.1,0.6l1.1,0.5l1,0.6l1.1,0.6l0.9,0.6
		l1.1,0.6l0.9,0.7l0.9,0.6l1,0.7l0.9,0.7l1,0.8l0.9,0.7l-0.7,1l-0.8,0.8l-0.7,1l-0.8,1l-0.7,1l-0.7,0.8l-0.8,1l-0.7,1l-0.7,0.8
		l-0.8,1l-0.7,1l-0.8,1l-0.7,0.8l-0.7,1l-0.8,1l-0.7,1l-0.8,0.8l-0.7,1l-1-0.7l-0.9-0.8l-1-0.6l-0.9-0.7l-0.9-0.6l-1-0.6l-1-0.6
		L154,480l-1-0.5l-0.9-0.5l-1-0.4l-1.1-0.4L149,478l-1.1-0.2l-1.2-0.2l-1.2-0.2l-1.2-0.1L143,477l-1.3-0.1h-1.3h-1.2L138,477
		l-1.1,0.1l-1.2,0.2l-1.1,0.2l-1.1,0.4l-1.1,0.4l-1.1,0.5l-1.1,0.5l-1,0.6l-0.9,0.6l-1,0.6l-0.8,0.7l-0.8,0.7l-0.8,0.7l-0.7,0.8
		l-0.8,0.8l-0.7,1l-0.6,0.8l-0.6,1l-0.6,1.1l-0.6,1l-0.5,1.1l-0.4,1.1l-0.5,1.1l-0.4,1.2l-0.2,1.2l-0.2,1.1l-0.2,1.3l-0.1,1.2
		l-0.1,1.2v1.3v0.2v1.2l0.1,1.2l0.1,1.1l0.1,1.2l0.2,1.1l0.2,1.1l0.2,1.1l0.4,1.1l0.4,1l0.5,1.2l0.5,1.1l0.6,1.1l0.6,1l0.6,1l0.7,1
		l0.7,0.8l0.8,0.8l0.7,0.8l0.8,0.7l1,0.7l0.9,0.7l0.9,0.6l1,0.6l1.1,0.5l1.1,0.5l1.1,0.5l1.2,0.4l1.2,0.4l1.2,0.2l1.2,0.2l1.2,0.1
		l1.3,0.1h1.3h1.4l1.3-0.1l1.3-0.1l1.2-0.1l1.2-0.2l1.2-0.2l1.2-0.4l1.1-0.2l1.1-0.5l1-0.5l1.1-0.5l0.8-0.5l1-0.6v-1.2v-1.2V519
		v-1.2v-1.3v-1.2v-1.2v-1.2v-1.2h-1.2h-1.1H153h-1.2h-1.2h-1.1h-1.2h-1.2H146h-1.1h-1.2h-1.2h-1.2h-1.1h-1.2v-1.2v-1.1v-1.2V507
		v-1.2v-1.1v-1.2v-1.2v-1.2v-1.1v-1.2v-1.2v-1.2v-1.1v-1.2h1.2h1.2h1.2h1.2h1.2h1.2h1.2h1.2h1.2h1.2h1.2h1.2h1.2h1.2h1.2h1.2h1.2
		h1.2h1.2h1.2h1.2h1.2h1.2h1.2h1.2h1.2h1.2h1.2h1.2h1.2h1.2h1.2h1.2V495.4z M196.8,544.9h-1.2h-1.2h-1.2H192h-1.2h-1.2h-1.2h-1.2
		l0.5-1.1l0.5-1.1l0.5-1.1l0.5-1.2l0.4-1.1l0.5-1.1l0.5-1.1l0.5-1.1l0.5-1.1l0.5-1.2l0.5-1.1l0.5-1.1l0.4-1.1l0.5-1.1l0.5-1.1
		l0.5-1.2l0.5-1.1l0.5-1.1l0.5-1.1l0.5-1.1l0.4-1.1l0.5-1.2l0.5-1.1l0.5-1.1l0.5-1.1l0.5-1.1l0.5-1.1l0.5-1.2l0.4-1.1l0.5-1.1
		l0.5-1.1l0.5-1.1l0.5-1.1l0.5-1.2l0.5-1.1l0.5-1.1l0.4-1.1l0.5-1.1l0.5-1.1l0.5-1.2l0.5-1.1l0.5-1.1l0.5-1.1l0.5-1.1l0.4-1.1
		l0.5-1.1l0.5-1.2l0.5-1.1l0.5-1.1l0.5-1.1l0.5-1.1l0.5-1.1l0.4-1.2l0.5-1.1l0.5-1.1l0.5-1.1l0.5-1.1l0.5-1.1l0.5-1.2l0.5-1.1
		l0.4-1.1l0.5-1.1l0.5-1.1l0.5-1.1l0.5-1.2l0.5-1.1l0.5-1.1l0.5-1.1l0.4-1.1l0.5-1.1l0.5-1.2l0.5-1.1l0.5-1.1l0.5-1.1l0.5-1.1
		l0.5-1.1l0.4-1.2l0.5-1.1l0.5-1.1l0.5-1.1h1.2h1.1h1.2h1.2h1.2h1.1h1.2h1.2h1.2h1.1h1.2h1.2h1.2h1.1h1.2h1.2h1.2h1.1h1.2l0.5,1.1
		l0.5,1.1l0.5,1.1l0.5,1.2l0.4,1.1l0.5,1.1l0.5,1.1l0.5,1.1l0.5,1.1l0.5,1.2l0.5,1.1l0.5,1.1l0.4,1.1l0.5,1.1l0.5,1.1l0.5,1.2
		l0.5,1.1l0.5,1.1l0.5,1.1l0.5,1.1l0.4,1.1l0.5,1.2l0.5,1.1l0.5,1.1l0.5,1.1l0.5,1.1l0.5,1.1l0.5,1.2l0.4,1.1l0.5,1.1l0.5,1.1
		l0.5,1.1l0.5,1.1l0.5,1.2l0.5,1.1l0.5,1.1l0.4,1.1l0.5,1.1l0.5,1.1l0.5,1.1l0.5,1.2l0.5,1.1l0.5,1.1l0.5,1.1l0.4,1.1l0.5,1.1
		l0.5,1.2l0.5,1.1l0.5,1.1l0.5,1.1l0.5,1.1l0.5,1.1l0.4,1.2l0.5,1.1l0.5,1.1l0.5,1.1l0.5,1.1l0.5,1.1l0.5,1.2l0.5,1.1l0.4,1.1
		l0.5,1.1l0.5,1.1l0.5,1.1l0.5,1.2l0.5,1.1l0.5,1.1l0.5,1.1l0.4,1.1l0.5,1.1l0.5,1.2l0.5,1.1l0.5,1.1l0.5,1.1l0.5,1.1l0.5,1.1
		l0.4,1.2l0.5,1.1l0.5,1.1l0.5,1.1h-1.2h-1.2h-1.1h-1.2h-1.2H276h-1.2h-1.1h-1.2h-1.2h-1.2H269h-1.2h-1.1h-1.2h-1.2h-1.2h-1.2h-1.1
		h-1.2h-1.2l-0.5-1.1l-0.4-1.1l-0.5-1.1l-0.5-1.2l-0.4-1.1l-0.5-1.1l-0.5-1.1l-0.4-1.1l-0.5-1.1l-0.5-1.1l-0.4-1.1l-0.5-1.2
		l-0.5-1.1l-0.4-1.1l-0.5-1.1h-1.2h-1.2h-1.2h-1.2h-1.1h-1.2h-1.2h-1.2h-1.2h-1.2H239h-1.2h-1.2h-1.2h-1.1h-1.2h-1.2h-1.2h-1.2h-1.2
		h-1.2H226h-1.2h-1.2h-1.1h-1.2h-1.2H219h-1.2l-0.5,1.1l-0.4,1.1l-0.5,1.1L216,533l-0.4,1.1l-0.5,1.1l-0.5,1.1l-0.4,1.1l-0.5,1.1
		l-0.5,1.1l-0.4,1.1l-0.5,1.2l-0.5,1.1l-0.4,1.1l-0.5,1.1H210h-1.2h-1.2h-1.2h-1.2H204h-1.2h-1.2h-1.2h-1.2H198H196.8z M321.6,690.3
		l-122.8-42.2h250.7L321.6,690.3z M470.7,526.4v1.1v1.2v1.2v1.2v1.1v1.2v1.2v1.1v1.2v1.2v1.1v1.2v1.2v1.2v1.1v1.2h-1.2h-1.2h-1.2
		h-1.2h-1.2h-1.2h-1.2h-1.2h-1.2h-1.3h-1.2h-1.2h-1.2h-1.2h-1.2h-1.2h-1.2h-1.2h-1.2h-1.2h-1.2h-1.2h-1.2H442h-1.2h-1.2h-1.2h-1.2
		H436h-1.3h-1.2h-1.2h-1.2H430h-1.2h-1.2h-1.2h-1.2H424h-1.2h-1.2h-1.2h-1.2H418h-1.2h-1.2h-1.2h-1.2H412h-1.2h-1.2h-1.2h-1.2H406
		h-1.2h-1.2h-1.2h-1.2v-1.2v-1.2v-1.2v-1.2v-1.2v-1.2v-1.2v-1.2v-1.2V533v-1.2v-1.2v-1.2v-1.2V527v-1.2v-1.2v-1.2v-1.1v-1.2v-1.2
		v-1.2v-1.2v-1.2v-1.2V514v-1.2v-1.2v-1.2v-1.2V508v-1.2v-1.2v-1.2v-1.2V502v-1.2v-1.2v-1.2v-1.2V496v-1.2v-1.2v-1.2v-1.2v-1.2v-1.2
		v-1.2v-1.2v-1.2v-1.2v-1.2v-1.2v-1.2v-1.1v-1.2V477v-1.2v-1.2v-1.2v-1.2v-1.2v-1.2v-1.2v-1.2v-1.2v-1.2v-1.2v-1.2v-1.2v-1.2v-1.2
		v-1.2h1.2h1.2h1.2h1.2h1.2h1.2h1.2h1.2h1.2h1.2h1.2h1.2h1.2h1.2h1.1h1.2h1.2h1.2h1.2h1.2h1.2h1.2h1.2h1.2h1.2h1.2h1.2h1.2h1.2h1.2
		h1.2h1.2h1.2h1.2h1.2h1.2h1.2h1.2h1.2h1.2h1.2h1.2h1.2h1.1h1.2h1.2h1.2h1.2h1.2h1.2h1.2h1.2h1.2h1.2h1.2h1.2h1.2h1.2v1.2v1.1v1.2
		v1.2v1.2v1.1v1.2v1.2v1.1v1.2v1.2v1.1v1.2v1.2v1.2v1.1v1.2h-1.2h-1.2h-1.2h-1.2h-1.2h-1.2h-1.1h-1.2h-1.2h-1.2h-1.2h-1.2h-1.2h-1.2
		h-1.2h-1.2h-1.2h-1.2h-1.2h-1.1h-1.2h-1.2h-1.2h-1.2h-1.2h-1.2h-1.2H437h-1.2h-1.2h-1.2h-1.2h-1.1H430h-1.2h-1.2h-1.2h-1.2H424v1.2
		v1.2v1.2v1.2v1.2v1.1v1.2v1.2v1.2v1.2v1.2v1.2h1.2h1.2h1.2h1.2h1.2h1.2h1.2h1.2h1.1h1.2h1.2h1.2h1.2h1.2h1.2h1.2h1.2h1.2h1.2h1.2
		h1.2h1.2h1.2h1.2h1.2h1.2h1.1h1.2h1.2h1.2h1.2h1.2h1.2h1.2h1.2v1.2v1.1v1.2v1.2v1.1v1.2v1.2v1.1v1.2v1.2v1.2v1.1v1.2v1.2v1.1v1.2
		h-1.2H463h-1.2h-1.2h-1.2h-1.2h-1.2h-1.2h-1.1h-1.2h-1.2h-1.2h-1.2h-1.2h-1.2h-1.2h-1.2h-1.2h-1.2h-1.2h-1.2h-1.2h-1.2H437h-1.2
		h-1.2h-1.1h-1.2h-1.2H430h-1.2h-1.2h-1.2h-1.2H424v1.2v1.3v1.2v1.2v1.3v1.2v1.2v1.3v1.2v1.2v1.3v1.2h1.2h1.2h1.2h1.2h1.2h1.2h1.2
		h1.2h1.2h1.3h1.2h1.2h1.2h1.2h1.2h1.2h1.2h1.2h1.2h1.2h1.2h1.2h1.2h1.2h1.2h1.2h1.2h1.2h1.2h1.3h1.2h1.2h1.2h1.2h1.2h1.2h1.2h1.2
		h1.2V526.4z M423.6,336.7V150.8c0-35.8,17.6-53.5,53.2-53.5h21.3c35.6,0,52.8,17.3,52.8,53.1v58.8h-43v-56.4
		c0-11.5-5.3-16.9-16.4-16.9h-7.4c-11.5,0-16.8,5.3-16.8,16.9v181.8c0,11.5,5.3,16.9,16.8,16.9h8.2c11,0,16.4-5.3,16.4-16.9v-65h43
		v67c0,35.8-17.6,53.5-53.2,53.5h-21.7C441.2,390.2,423.6,372.5,423.6,336.7z M553,518.1v0.2v1.3l-0.1,1.3l-0.1,1.2l-0.1,1.3
		l-0.2,1.2l-0.4,1.2l-0.2,1.1l-0.4,1.2l-0.5,1.1l-0.5,1l-0.5,1.1l-0.6,1l-0.6,1l-0.7,1l-0.6,1l-0.7,0.8l-0.8,0.8l-0.7,0.7l-1,0.8
		l-0.8,0.7l-1,0.7l-0.9,0.6l-0.9,0.7l-1.1,0.6l-1.1,0.5l-1.1,0.6l-1.2,0.5l-1.2,0.5l-1.2,0.4l-1.2,0.4l-1.1,0.4l-1.2,0.2l-1.1,0.2
		l-1.1,0.2l-1.2,0.2l-1.2,0.1l-1.1,0.1l-1.2,0.1l-1.3,0.1l-1.2,0.1H520h-1.3h-1.3h-1.2l-1.2-0.1h-1.3l-1.2-0.1l-1.2-0.1l-1.3-0.1
		l-1.2-0.2l-1.2-0.1l-1.2-0.2l-1.2-0.2l-1.2-0.2l-1.2-0.2l-1.2-0.4l-1.1-0.2l-1.2-0.4l-1.2-0.4l-1.1-0.5l-1.2-0.4l-1.1-0.4l-1.2-0.5
		l-1.1-0.5l-1.1-0.5l-1.1-0.6l-1.1-0.5l-1.1-0.6l-0.9-0.6l-1.1-0.6l-0.9-0.6l-1-0.6l-0.9-0.7l-0.9-0.7l-1-0.7l-1-0.7l-0.8-0.7
		l-0.9-0.8l0.7-1l0.8-0.8l0.7-1l0.8-1l0.7-0.8l0.7-1l0.8-1l0.7-0.8l0.8-1l0.7-0.8l0.8-1l0.7-1l0.7-0.8l0.8-1l0.7-1l0.8-0.8l0.7-1
		l0.9,0.7l1.1,0.7l1,0.7l1.1,0.7l1,0.6l1.1,0.7l0.9,0.6l1.1,0.5l0.9,0.6l1.1,0.5l1.1,0.5l1.1,0.5l1.1,0.4l1.1,0.5l1.2,0.4l1.2,0.4
		l1.1,0.4l1.2,0.2l1.2,0.2l1.2,0.2l1.3,0.1l1.2,0.2h1.2l1.3,0.1h1.2h1.4l1.3-0.1l1.2-0.2l1.1-0.2l1.1-0.2l1-0.4l0.8-0.5l1-0.7
		l0.7-0.8l0.5-1l0.4-1.1l0.1-1.2v-0.2l-0.1-1.4l-0.5-1.2l-0.6-0.8l-0.8-0.7l-1-0.7l-0.9-0.5l-1.1-0.5l-1.2-0.5l-1.4-0.6l-0.8-0.2
		l-0.9-0.2l-1.1-0.4l-1.1-0.2l-1.2-0.4l-1.2-0.2l-1.3-0.4l-1.2-0.2l-1.3-0.4l-1.2-0.2l-1.2-0.4l-1.2-0.2l-1.2-0.4l-1.1-0.4l-1.2-0.2
		l-1.1-0.4l-1.1-0.4l-1.1-0.4l-1.3-0.5l-1.2-0.5l-1.2-0.5L497,506l-1.1-0.6l-1.2-0.6l-1-0.6l-1.1-0.6l-0.9-0.7l-1-0.6l-0.8-0.7
		l-0.8-0.8l-0.8-0.8l-0.7-0.8l-0.7-0.8l-0.6-0.8l-0.6-1l-0.6-1.1l-0.5-0.8l-0.4-1l-0.4-1.1l-0.4-1l-0.2-1.2l-0.2-1.1l-0.1-1.2
		l-0.1-1.2l-0.1-1.3v-1.3V484v-1.2l0.1-1.2l0.1-1.1l0.1-1.2l0.2-1.1l0.2-1.1l0.4-1.1l0.2-1.1l0.5-1.1l0.5-1.1l0.5-1.1l0.6-1.1
		l0.6-1.1l0.7-1l0.7-1l0.8-1l0.8-0.8l0.8-1l1-0.8l0.8-0.6l1-0.7l1-0.7l0.9-0.6l1.1-0.6l1.1-0.5l1.1-0.6l1.1-0.5l1.2-0.4l1.2-0.5
		l1.1-0.4l0.9-0.2l1.1-0.2l1.1-0.2l1.2-0.2l1.1-0.2l1.2-0.1l1.2-0.1l1.2-0.1l1.2-0.1h1.2h1.3h1.3h1.3l1.3,0.1l1.3,0.1h1.2l1.3,0.1
		l1.2,0.2l1.3,0.1l1.2,0.2l1.1,0.2l1.2,0.2l1.2,0.2l1.1,0.2l1.2,0.4l1.1,0.4l1.1,0.2l1.2,0.5l1.1,0.4l1.1,0.5l1.1,0.5l1.2,0.5
		l1.1,0.6l0.9,0.5l1.1,0.6l1.1,0.6l0.9,0.6l1.1,0.7l1,0.6l1,0.7l0.9,0.7l0.9,0.7l-0.7,1l-0.6,1l-0.7,1l-0.7,1l-0.7,1.1l-0.6,1
		l-0.7,1l-0.7,1l-0.6,1l-0.7,1l-0.7,1l-0.6,1l-0.7,1.1l-0.7,1l-0.7,1l-0.6,1l-0.7,1l-1-0.7l-1.1-0.6l-1-0.6l-1-0.7l-1.1-0.5l-1-0.6
		l-1.1-0.5l-0.9-0.5l-1.1-0.5l-0.9-0.5l-1.1-0.4l-1-0.5l-1.3-0.4l-1.2-0.4l-1.2-0.4l-1.2-0.2l-1.2-0.2l-1.2-0.2l-1.2-0.1l-1.2-0.1
		l-1.1-0.1h-1.2h-1.4l-1.3,0.2l-1.2,0.2l-1.1,0.2l-0.9,0.5l-0.8,0.5l-1.1,1l-0.7,1.1l-0.5,1.1l-0.1,1.2v0.2l0.1,1.6l0.6,1.3l0.5,0.7
		l0.8,0.8l1.1,0.6l0.9,0.6l1.2,0.5l1.3,0.5l1.4,0.5l0.9,0.2l0.9,0.4l1.1,0.2l1.1,0.4l1.2,0.2l1.3,0.4l1.3,0.4l1.3,0.4l1.3,0.2
		l1.2,0.4l1.3,0.4l1.2,0.2l1.2,0.4l1.2,0.4l1.1,0.4l1.2,0.4l1.1,0.4l1.1,0.4l1.3,0.5l1.2,0.6l1.2,0.5l1.2,0.6l1.1,0.6l1.1,0.6
		l0.9,0.6l1,0.7l1,0.6l0.9,0.8l1,0.8l0.8,1l0.8,0.8l0.7,1l0.7,1.1l0.6,1l0.6,1.1l0.5,1l0.4,1.1l0.4,1.1l0.2,1.1l0.2,1.2l0.2,1.2
		l0.1,1.2l0.1,1.3V518.1z"/>
	<polygon class="st0" points="227.2,510.1 228.4,510.1 229.6,510.1 230.7,510.1 231.9,510.1 233.1,510.1 234.3,510.1 235.4,510.1 
		236.6,510.1 237.8,510.1 239,510.1 240.2,510.1 241.3,510.1 242.5,510.1 243.7,510.1 244.9,510.1 244.4,509.1 244.1,508 
		243.6,506.8 243.1,505.7 242.8,504.6 242.3,503.5 241.8,502.4 241.5,501.3 241,500.2 240.5,499.1 240.1,498 239.7,496.8 
		239.3,495.8 238.8,494.7 238.4,493.6 238,492.5 237.5,491.3 237.1,490.3 236.7,489.2 236.2,488.1 235.7,486.9 235.4,485.8 
		234.9,484.7 234.4,485.8 234.1,486.9 233.6,488.1 233.1,489.2 232.8,490.3 232.3,491.3 231.8,492.5 231.3,493.6 231,494.7 
		230.5,495.8 230,496.8 229.7,498 229.2,499.1 228.7,500.2 228.4,501.3 227.9,502.4 227.4,503.5 226.9,504.6 226.6,505.7 
		226.1,506.8 225.6,508 225.3,509.1 224.8,510.1 226,510.1 	"/>
	<path class="st0" d="M293,227.7v-72.4c0-11.5-5.3-16.9-16.4-16.9h-18v106.1h18C287.7,244.6,293,239.2,293,227.7z"/>
</g>
</svg>
