<svg width="20" height="20" viewBox="0 0 20 20" fill="none" xmlns="http://www.w3.org/2000/svg">
<path fill-rule="evenodd" clip-rule="evenodd" d="M4 0C1.79086 0 0 1.79086 0 4V16C0 18.2091 1.79086 20 4 20H16C18.2091 20 20 18.2091 20 16V4C20 1.79086 18.2091 0 16 0H4ZM11.416 5.37604C11.0714 5.14628 10.6057 5.23941 10.376 5.58405C10.1462 5.9287 10.2393 6.39435 10.584 6.62412L11.8105 7.44181C10.455 7.6838 9.1621 8.15729 8.08397 8.87604C6.41112 9.99128 5.25 11.7092 5.25 14.0001C5.25 14.4143 5.58579 14.7501 6 14.7501C6.41421 14.7501 6.75 14.4143 6.75 14.0001C6.75 12.291 7.58888 11.0089 8.91603 10.1241C9.9123 9.45993 11.1792 9.0275 12.5342 8.84666L11.376 10.5841C11.1462 10.9287 11.2393 11.3944 11.584 11.6241C11.9286 11.8539 12.3943 11.7608 12.624 11.4161L14.624 8.41611C14.8538 8.07146 14.7607 7.60581 14.416 7.37604L11.416 5.37604Z" fill="#F3CB14"/>
</svg>
