<svg width="20" height="20" viewBox="0 0 20 20" fill="none" xmlns="http://www.w3.org/2000/svg">
<path fill-rule="evenodd" clip-rule="evenodd" d="M18.3332 10.0003C18.3332 14.6027 14.6022 18.3337 9.99984 18.3337C5.39746 18.3337 1.6665 14.6027 1.6665 10.0003C1.6665 5.39795 5.39746 1.66699 9.99984 1.66699C14.6022 1.66699 18.3332 5.39795 18.3332 10.0003ZM10.8332 5.83366C10.8332 6.2939 10.4601 6.66699 9.99984 6.66699C9.5396 6.66699 9.1665 6.2939 9.1665 5.83366C9.1665 5.37342 9.5396 5.00033 9.99984 5.00033C10.4601 5.00033 10.8332 5.37342 10.8332 5.83366ZM9.1665 7.70866C8.82133 7.70866 8.5415 7.98848 8.5415 8.33366C8.5415 8.67884 8.82133 8.95866 9.1665 8.95866H9.37484V14.167C9.37484 14.5122 9.65466 14.792 9.99984 14.792C10.345 14.792 10.6248 14.5122 10.6248 14.167V8.33366C10.6248 7.98848 10.345 7.70866 9.99984 7.70866H9.1665Z" fill="white"/>
</svg>
