<svg width="105" height="32" viewBox="0 0 105 32" fill="none" xmlns="http://www.w3.org/2000/svg">
<rect width="105" height="32" rx="2" fill="black"/>
<path d="M18.0328 7.27141C18.8375 5.5762 21.1625 5.5762 21.9672 7.27141L23.3579 10.2012C23.6774 10.8743 24.2951 11.3409 25.0096 11.4489L28.1193 11.9187C29.9187 12.1905 30.6371 14.4895 29.3351 15.8091L27.0849 18.0896C26.5679 18.6136 26.332 19.3685 26.454 20.1084L26.9852 23.3285C27.2926 25.1918 25.4116 26.6126 23.8022 25.7329L21.0208 24.2126C20.3817 23.8633 19.6183 23.8633 18.9792 24.2126L16.1978 25.7329C14.5884 26.6126 12.7074 25.1918 13.0148 23.3286L13.546 20.1084C13.668 19.3685 13.4321 18.6136 12.9151 18.0896L10.6649 15.8091C9.36287 14.4895 10.0813 12.1905 11.8807 11.9187L14.9904 11.4489C15.7049 11.3409 16.3226 10.8743 16.6421 10.2012L18.0328 7.27141Z" fill="#F5D543"/>
<path d="M36.9513 21V10.8182H40.9684C41.7406 10.8182 42.3986 10.9657 42.9421 11.2607C43.4857 11.5523 43.9 11.9583 44.185 12.4787C44.4734 12.9957 44.6175 13.5923 44.6175 14.2685C44.6175 14.9446 44.4717 15.5412 44.18 16.0582C43.8884 16.5753 43.4658 16.978 42.9123 17.2663C42.3621 17.5547 41.6959 17.6989 40.9137 17.6989H38.3533V15.9737H40.5657C40.98 15.9737 41.3214 15.9025 41.5898 15.7599C41.8616 15.6141 42.0638 15.4136 42.1964 15.1584C42.3323 14.8999 42.4002 14.6032 42.4002 14.2685C42.4002 13.9304 42.3323 13.6354 42.1964 13.3835C42.0638 13.1283 41.8616 12.9311 41.5898 12.7919C41.3181 12.6494 40.9734 12.5781 40.5558 12.5781H39.104V21H36.9513ZM45.976 21V13.3636H48.0293V14.696H48.1088C48.248 14.2221 48.4817 13.8641 48.8098 13.6222C49.138 13.3769 49.5158 13.2543 49.9434 13.2543C50.0494 13.2543 50.1638 13.2609 50.2864 13.2741C50.409 13.2874 50.5167 13.3056 50.6096 13.3288V15.2081C50.5101 15.1783 50.3726 15.1518 50.1969 15.1286C50.0212 15.1054 49.8605 15.0938 49.7147 15.0938C49.4031 15.0938 49.1247 15.1617 48.8794 15.2976C48.6375 15.4302 48.4453 15.6158 48.3027 15.8544C48.1635 16.093 48.0939 16.3681 48.0939 16.6797V21H45.976ZM54.8292 21.1491C54.0437 21.1491 53.3675 20.9901 52.8008 20.6719C52.2373 20.3504 51.8031 19.8963 51.4982 19.3097C51.1933 18.7197 51.0408 18.022 51.0408 17.2166C51.0408 16.4311 51.1933 15.7417 51.4982 15.1484C51.8031 14.5552 52.2324 14.0928 52.7859 13.7614C53.3427 13.4299 53.9956 13.2642 54.7447 13.2642C55.2485 13.2642 55.7174 13.3454 56.1516 13.5078C56.5891 13.6669 56.9703 13.9072 57.2951 14.2287C57.6232 14.5502 57.8784 14.9545 58.0607 15.4418C58.243 15.9257 58.3342 16.4924 58.3342 17.142V17.7237H51.886V16.4112H56.3406C56.3406 16.1063 56.2743 15.8362 56.1417 15.6009C56.0091 15.3655 55.8252 15.1816 55.5898 15.049C55.3578 14.9131 55.0877 14.8452 54.7795 14.8452C54.458 14.8452 54.1729 14.9197 53.9244 15.0689C53.6791 15.2147 53.4869 15.4119 53.3477 15.6605C53.2085 15.9058 53.1372 16.1792 53.1339 16.4808V17.7287C53.1339 18.1065 53.2035 18.433 53.3427 18.7081C53.4852 18.9832 53.6857 19.1953 53.9442 19.3445C54.2028 19.4936 54.5094 19.5682 54.864 19.5682C55.0993 19.5682 55.3147 19.535 55.5103 19.4688C55.7058 19.4025 55.8732 19.303 56.0124 19.1705C56.1516 19.0379 56.2577 18.8755 56.3306 18.6832L58.2894 18.8125C58.19 19.2831 57.9862 19.6941 57.6779 20.0455C57.373 20.3935 56.9786 20.6652 56.4947 20.8608C56.0141 21.053 55.4589 21.1491 54.8292 21.1491ZM59.7163 21V13.3636H61.7347V14.7109H61.8242C61.9833 14.2635 62.2485 13.9105 62.6197 13.652C62.9909 13.3935 63.435 13.2642 63.9521 13.2642C64.4757 13.2642 64.9215 13.3951 65.2894 13.657C65.6573 13.9155 65.9026 14.2668 66.0252 14.7109H66.1048C66.2605 14.2734 66.5423 13.9238 66.9499 13.6619C67.3609 13.3968 67.8465 13.2642 68.4066 13.2642C69.1192 13.2642 69.6976 13.4912 70.1417 13.9453C70.5891 14.3961 70.8129 15.0357 70.8129 15.8643V21H68.6999V16.282C68.6999 15.8577 68.5872 15.5395 68.3619 15.3274C68.1365 15.1153 67.8548 15.0092 67.5167 15.0092C67.1322 15.0092 66.8323 15.1319 66.6168 15.3771C66.4014 15.6191 66.2937 15.9389 66.2937 16.3366V21H64.2404V16.2372C64.2404 15.8627 64.1327 15.5644 63.9173 15.3423C63.7051 15.1203 63.4251 15.0092 63.0771 15.0092C62.8417 15.0092 62.6296 15.0689 62.4407 15.1882C62.2551 15.3042 62.1076 15.4683 61.9982 15.6804C61.8888 15.8892 61.8342 16.1345 61.8342 16.4162V21H59.7163ZM72.4858 21V13.3636H74.6037V21H72.4858ZM73.5497 12.3793C73.2348 12.3793 72.9647 12.2749 72.7393 12.0661C72.5173 11.8539 72.4062 11.6004 72.4062 11.3054C72.4062 11.0137 72.5173 10.7635 72.7393 10.5547C72.9647 10.3426 73.2348 10.2365 73.5497 10.2365C73.8646 10.2365 74.133 10.3426 74.3551 10.5547C74.5805 10.7635 74.6932 11.0137 74.6932 11.3054C74.6932 11.6004 74.5805 11.8539 74.3551 12.0661C74.133 12.2749 73.8646 12.3793 73.5497 12.3793ZM81.1973 17.7486V13.3636H83.3152V21H81.2818V19.6129H81.2022C81.0299 20.0604 80.7432 20.42 80.3422 20.6918C79.9444 20.9635 79.4589 21.0994 78.8855 21.0994C78.3751 21.0994 77.926 20.9834 77.5382 20.7514C77.1504 20.5194 76.8471 20.1896 76.6284 19.7621C76.4129 19.3345 76.3036 18.8224 76.3002 18.2259V13.3636H78.4181V17.848C78.4215 18.2988 78.5424 18.6551 78.7811 18.9169C79.0197 19.1787 79.3395 19.3097 79.7406 19.3097C79.9958 19.3097 80.2344 19.2517 80.4565 19.1357C80.6786 19.0163 80.8575 18.8407 80.9934 18.6087C81.1326 18.3767 81.2006 18.09 81.1973 17.7486ZM85.0092 21V13.3636H87.0277V14.7109H87.1172C87.2763 14.2635 87.5414 13.9105 87.9126 13.652C88.2839 13.3935 88.728 13.2642 89.245 13.2642C89.7687 13.2642 90.2145 13.3951 90.5824 13.657C90.9503 13.9155 91.1955 14.2668 91.3182 14.7109H91.3977C91.5535 14.2734 91.8352 13.9238 92.2429 13.6619C92.6539 13.3968 93.1394 13.2642 93.6996 13.2642C94.4122 13.2642 94.9905 13.4912 95.4347 13.9453C95.8821 14.3961 96.1058 15.0357 96.1058 15.8643V21H93.9929V16.282C93.9929 15.8577 93.8802 15.5395 93.6548 15.3274C93.4295 15.1153 93.1477 15.0092 92.8097 15.0092C92.4252 15.0092 92.1252 15.1319 91.9098 15.3771C91.6944 15.6191 91.5866 15.9389 91.5866 16.3366V21H89.5334V16.2372C89.5334 15.8627 89.4257 15.5644 89.2102 15.3423C88.9981 15.1203 88.718 15.0092 88.37 15.0092C88.1347 15.0092 87.9226 15.0689 87.7337 15.1882C87.5481 15.3042 87.4006 15.4683 87.2912 15.6804C87.1818 15.8892 87.1271 16.1345 87.1271 16.4162V21H85.0092Z" fill="#F5D543"/>
</svg>
