<?xml version="1.0" encoding="UTF-8" standalone="no"?>
<!DOCTYPE svg PUBLIC "-//W3C//DTD SVG 1.1//EN" "http://www.w3.org/Graphics/SVG/1.1/DTD/svg11.dtd">
<svg width="100%" height="100%" viewBox="0 0 2763 401" version="1.1" xmlns="http://www.w3.org/2000/svg" xmlns:xlink="http://www.w3.org/1999/xlink" xml:space="preserve" xmlns:serif="http://www.serif.com/" style="fill-rule:evenodd;clip-rule:evenodd;stroke-linejoin:round;stroke-miterlimit:2;">
    <g transform="matrix(1,0,0,1,-6275.68,-6303.31)">
        <g transform="matrix(1.31449,0,0,1.26355,6411.53,-1249.04)">
            <text x="343px" y="6235px" style="font-family:'EuclidCircularB-Bold', 'Euclid Circular B', sans-serif;font-weight:700;font-size:280.605px;fill:white;">G<tspan x="588.53px 835.462px 1120px 1316.7px 1544.55px 1782.51px " y="6235px 6235px 6235px 6235px 6235px 6235px ">AMEDAO</tspan></text>
        </g>
        <g transform="matrix(0.390625,0,0,0.390625,4115.05,4400.43)">
            <path d="M5543.21,5895.37L6543.18,5895.37L6043.19,5395.39L5543.21,5895.37ZM5531.19,5883.36L5770.93,5643.62L5531.19,5403.88L5531.19,5883.36ZM6055.21,5383.37L6555.19,5883.36L6555.19,4883.38L6055.21,5383.37ZM6031.18,5383.37L5782.95,5631.6L5534.71,5383.37L5782.94,5135.14L6031.18,5383.37ZM5803.46,5131.62L6282.93,5131.62L6043.19,5371.36L5803.46,5131.62ZM5531.19,4871.37L5531.19,5362.86L6022.68,4871.37L5531.19,4871.37ZM6046.71,4871.37L5803.46,5114.62L6299.93,5114.62L6543.18,4871.37L6046.71,4871.37Z" style="fill:white;fill-rule:nonzero;"/>
        </g>
    </g>
</svg>
