<?xml version="1.0" encoding="utf-8"?>
<!-- Generator: Adobe Illustrator 26.5.0, SVG Export Plug-In . SVG Version: 6.00 Build 0)  -->
<svg version="1.1" id="Ebene_1" xmlns="http://www.w3.org/2000/svg" xmlns:xlink="http://www.w3.org/1999/xlink" x="0px" y="0px"
	 viewBox="0 0 32 32" style="enable-background:new 0 0 32 32;" xml:space="preserve">
<style type="text/css">
	.st0{fill-rule:evenodd;clip-rule:evenodd;fill:#FFFFFF;}
</style>
<g>
	<path class="st0" d="M22.1,13.8h-0.8v4.6h0.6c1.5,0,2.2-0.8,2.2-2.3c0-0.8-0.2-1.4-0.5-1.7C23.3,14,22.8,13.8,22.1,13.8z"/>
	<path class="st0" d="M16,0C7.2,0,0,7.2,0,16s7.2,16,16,16s16-7.2,16-16S24.8,0,16,0z M6.9,19.7l-0.3-0.9H5.4l-0.3,0.9H4.3l1.3-3.6
		h0.9l1.3,3.6H6.9z M14.1,17.1c0,0.5-0.1,0.9-0.3,1.3s-0.5,0.7-1,0.9c-0.4,0.2-1,0.3-1.7,0.3c-0.9,0-1.7-0.2-2.2-0.7
		c-0.5-0.5-0.7-1.1-0.7-1.9v-4.6h1.5v4.4c0,0.6,0.1,1,0.4,1.2c0.2,0.2,0.6,0.4,1.1,0.4c0.5,0,0.9-0.1,1.1-0.4
		c0.2-0.3,0.3-0.7,0.3-1.2v-4.4h1.5V17.1z M18.6,19.1c-0.5,0.4-1.1,0.6-1.9,0.6c-0.8,0-1.4-0.1-2-0.4v-1.4c0.3,0.1,0.7,0.3,1.1,0.4
		c0.4,0.1,0.7,0.2,1.1,0.2c0.4,0,0.6-0.1,0.8-0.2c0.2-0.1,0.2-0.3,0.2-0.5c0-0.2-0.1-0.3-0.2-0.5c-0.1-0.1-0.3-0.2-0.5-0.4
		c-0.2-0.1-0.4-0.2-0.7-0.4c-0.2-0.1-0.3-0.2-0.5-0.3c-0.2-0.1-0.4-0.2-0.6-0.4c-0.2-0.2-0.3-0.4-0.4-0.6s-0.2-0.5-0.2-0.8
		c0-0.6,0.2-1.1,0.7-1.5c0.4-0.4,1-0.5,1.8-0.5c0.4,0,0.7,0,1.1,0.1c0.3,0.1,0.7,0.2,1.1,0.4L18.8,14c-0.3-0.1-0.6-0.2-0.9-0.3
		c-0.3-0.1-0.5-0.1-0.8-0.1c-0.3,0-0.5,0.1-0.7,0.2s-0.2,0.3-0.2,0.5c0,0.3,0.1,0.5,0.3,0.6c0.2,0.1,0.6,0.3,1,0.5
		c0.4,0.2,0.7,0.4,0.9,0.5c0.3,0.2,0.5,0.4,0.6,0.7c0.1,0.3,0.2,0.6,0.2,0.9C19.3,18.2,19.1,18.7,18.6,19.1z M24.7,18.8
		c-0.7,0.6-1.6,0.9-2.9,0.9h-2v-7.1H22c0.7,0,1.4,0.1,1.9,0.4c0.5,0.3,1,0.7,1.3,1.2c0.3,0.5,0.5,1.2,0.5,1.9
		C25.7,17.2,25.4,18.1,24.7,18.8z"/>
	<path class="st0" d="M6.2,17.1c0-0.1-0.1-0.2-0.1-0.3c0-0.1,0-0.2-0.1-0.2c0,0.1,0,0.1-0.1,0.2c0,0.1-0.1,0.2-0.1,0.3
		c0,0.1,0,0.2-0.1,0.2l-0.3,0.8h0.9l-0.3-0.8C6.2,17.3,6.2,17.2,6.2,17.1z"/>
</g>
</svg>
