<?xml version="1.0" encoding="utf-8"?>
<!-- Generator: Adobe Illustrator 26.5.0, SVG Export Plug-In . SVG Version: 6.00 Build 0)  -->
<svg version="1.1" id="Ebene_1" xmlns="http://www.w3.org/2000/svg" xmlns:xlink="http://www.w3.org/1999/xlink" x="0px" y="0px"
	 viewBox="0 0 32 32" style="enable-background:new 0 0 32 32;" xml:space="preserve">
<style type="text/css">
	.st0{fill-rule:evenodd;clip-rule:evenodd;fill:#FFFFFF;}
</style>
<g>
	<path class="st0" d="M16,19.7v0.4c0.1,0,0.2-0.1,0.3-0.1v-0.4C16.2,19.6,16.1,19.6,16,19.7L16,19.7z"/>
	<path class="st0" d="M16,18.5v0.4c0.1,0,0.2-0.1,0.3-0.1v-0.4C16.2,18.4,16.1,18.4,16,18.5L16,18.5z"/>
	<path class="st0" d="M17,19.6c0.4-0.3,0.6-0.5,0.7-0.8c-0.2,0.2-0.5,0.3-0.7,0.5V19.6z"/>
	<path class="st0" d="M16,16.5c0.1,0,0.2-0.1,0.3-0.1v-0.6c-0.1,0-0.2,0.1-0.3,0.1V16.5z"/>
	<path class="st0" d="M16,17.3v0.4c0.1,0,0.2-0.1,0.3-0.1v-0.4C16.2,17.2,16.1,17.2,16,17.3L16,17.3z"/>
	<path class="st0" d="M15.2,19.9c-0.6,0.1-1.3,0.2-2.1,0.2c-1.4,0-2.8-0.3-3.7-0.7c-0.4-0.2-0.7-0.4-0.9-0.6
		c0.1,0.4,0.6,0.8,1.2,1.1c0.9,0.4,2.1,0.7,3.4,0.7c0.7,0,1.5-0.1,2.1-0.2V19.9z"/>
	<path class="st0" d="M9.8,16.3c0.9,0.4,2.1,0.7,3.4,0.7c0.7,0,1.5-0.1,2.1-0.2h0v-0.6c-0.6,0.1-1.3,0.2-2.1,0.2
		c-1.4,0-2.8-0.3-3.7-0.7c-0.4-0.2-0.7-0.4-1-0.6C8.5,15.5,9,15.9,9.8,16.3z"/>
	<path class="st0" d="M15.2,18.7c-0.6,0.1-1.3,0.2-2.1,0.2c-1.4,0-2.8-0.3-3.7-0.7c-0.4-0.2-0.7-0.4-0.9-0.6
		c0.1,0.4,0.6,0.8,1.2,1.1c0.9,0.4,2.1,0.7,3.4,0.7c0.7,0,1.5-0.1,2.1-0.2h0V18.7z"/>
	<path class="st0" d="M15.2,17.5c-0.6,0.1-1.3,0.2-2.1,0.2c-1.4,0-2.8-0.3-3.7-0.7c-0.4-0.2-0.7-0.4-0.9-0.6
		c0.1,0.4,0.6,0.8,1.2,1.1c0.9,0.4,2.1,0.7,3.4,0.7c0.7,0,1.5-0.1,2.1-0.2h0V17.5z"/>
	<path class="st0" d="M21.5,19.5c0.1,0.1,0.2,0.2,0.3,0.2l0.5-0.3c-0.1-0.1-0.2-0.2-0.3-0.2L21.5,19.5z"/>
	<path class="st0" d="M19.1,12.3c-0.4,0.3-0.6,0.9-0.5,1.7c0.1,1.7,1.2,3.7,2.4,5l0.5-0.3c-1.2-1.4-2.3-3.5-2.4-5.3
		C19,13,19,12.6,19.1,12.3z"/>
	<path class="st0" d="M17,18.4c0.4-0.3,0.6-0.5,0.7-0.8c-0.2,0.2-0.5,0.3-0.7,0.5V18.4z"/>
	<path class="st0" d="M22.1,12c-0.7-0.5-1.4-0.7-1.8-0.4c-0.6,0.3-0.6,1.2-0.5,1.8v0c0.2,2.1,1.7,4.7,3.4,5.9
		c0.4,0.3,1.3,0.7,1.8,0.4c0.6-0.3,0.6-1.2,0.5-1.8l0,0c-0.1-1-0.5-2.1-1.1-3.3C23.7,13.4,22.9,12.5,22.1,12z"/>
	<path class="st0" d="M16,0C7.2,0,0,7.2,0,16s7.2,16,16,16s16-7.2,16-16S24.8,0,16,0z M25.3,20.3L24.2,21c-0.7,0.4-1.6,0.2-2.6-0.5
		c-1.3-0.9-2.4-2.4-3-3.9v1.9c0,0.8-0.6,1.5-1.7,2c-1,0.5-2.3,0.7-3.7,0.7c-1.4,0-2.8-0.3-3.7-0.7c-1-0.5-1.7-1.2-1.7-2v-5
		c0-0.8,0.6-1.5,1.7-2c1-0.5,2.3-0.7,3.7-0.7l0,0c1.4,0,2.8,0.3,3.7,0.7c0.5,0.2,0.9,0.5,1.2,0.9c0.1-0.3,0.4-0.6,0.7-0.8l1.2-0.7
		c0.7-0.4,1.6-0.2,2.6,0.5c0.9,0.6,1.8,1.6,2.5,2.8c0.7,1.3,1.1,2.5,1.2,3.6C26.3,19,26,19.9,25.3,20.3z"/>
	<path class="st0" d="M22.5,20.2c0.5,0.3,0.9,0.3,1.3,0.2c-0.3-0.1-0.6-0.2-0.8-0.4L22.5,20.2z"/>
	<path class="st0" d="M16.6,12.2c-0.9-0.4-2.1-0.7-3.4-0.7c-1.3,0-2.5,0.3-3.4,0.7c-0.8,0.4-1.3,0.8-1.3,1.4c0,0.5,0.5,1,1.3,1.4
		c0.9,0.4,2.1,0.7,3.4,0.7c1.3,0,2.5-0.3,3.4-0.7c0.8-0.4,1.3-0.8,1.3-1.4C17.8,13.1,17.3,12.6,16.6,12.2z"/>
	<path class="st0" d="M17,16c0.5-0.3,0.7-0.7,0.8-1c-0.2,0.2-0.5,0.4-0.8,0.5V16z"/>
	<path class="st0" d="M17,17.2c0.4-0.3,0.6-0.5,0.7-0.8c-0.2,0.2-0.5,0.3-0.7,0.5V17.2z"/>
</g>
</svg>
