<?xml version="1.0" encoding="utf-8"?>
<!-- Generator: Adobe Illustrator 26.5.0, SVG Export Plug-In . SVG Version: 6.00 Build 0)  -->
<svg version="1.1" id="Ebene_1" xmlns="http://www.w3.org/2000/svg" xmlns:xlink="http://www.w3.org/1999/xlink" x="0px" y="0px"
	 viewBox="0 0 32 32" style="enable-background:new 0 0 32 32;" xml:space="preserve">
<style type="text/css">
	.st0{fill-rule:evenodd;clip-rule:evenodd;fill:#FFFFFF;}
</style>
<g>
	<path class="st0" d="M16,0C7.2,0,0,7.2,0,16s7.2,16,16,16s16-7.2,16-16S24.8,0,16,0z M8.9,15.8c-0.2,0.4-0.6,0.8-1,1
		c-0.5,0.3-1.1,0.4-2,0.4H5.1v3H3.3v-8.6H6c1.1,0,1.9,0.2,2.4,0.7s0.8,1.1,0.8,2C9.2,14.9,9.1,15.4,8.9,15.8z M20.9,20.3l-0.6-2
		h-3.1l-0.6,2h-1.4h-0.6H9.9v-8.6h1.8v7.1h3.5l2.5-7.1h2.2l3,8.6H20.9z M25.9,17v3.3h-1.8V17l-2.8-5.3h2l1.8,3.5l1.8-3.5h2L25.9,17z
		"/>
	<path class="st0" d="M19.1,14.2C19,14,19,13.8,18.9,13.6s-0.1-0.4-0.2-0.6c0,0.2-0.1,0.4-0.2,0.6c-0.1,0.2-0.1,0.5-0.2,0.7
		c-0.1,0.2-0.1,0.4-0.1,0.4l-0.6,2h2.2l-0.6-2C19.2,14.6,19.2,14.4,19.1,14.2z"/>
	<path class="st0" d="M5.9,13.2H5.1v2.5h0.6c0.5,0,0.9-0.1,1.2-0.3c0.3-0.2,0.5-0.5,0.5-1C7.4,13.6,6.9,13.2,5.9,13.2z"/>
</g>
</svg>
