<?xml version="1.0" encoding="utf-8"?>
<!-- Generator: Adobe Illustrator 26.5.0, SVG Export Plug-In . SVG Version: 6.00 Build 0)  -->
<svg version="1.1" id="Ebene_1" xmlns="http://www.w3.org/2000/svg" xmlns:xlink="http://www.w3.org/1999/xlink" x="0px" y="0px"
	 viewBox="0 0 32 32" style="enable-background:new 0 0 32 32;" xml:space="preserve">
<style type="text/css">
	.st0{fill-rule:evenodd;clip-rule:evenodd;fill:#FFFFFF;}
</style>
<path class="st0" d="M16,0C7.2,0,0,7.2,0,16s7.2,16,16,16s16-7.2,16-16S24.8,0,16,0z M23.4,26H8.6v-2.7l2.2-3.1h-2v-1.9H12l3.2-4.6
	h-4.6v1.9H8.7v-1.9v-1.9h7.8l1.6-2.3H8.8V6h14.4v2.7L21,11.8h2.3v1.9h-3.6l-3.2,4.6h4.9v-1.9h1.9v1.9v1.9h-8.1l-1.6,2.3h9.8V26z"/>
</svg>
