<?xml version="1.0" encoding="utf-8"?>
<!-- Generator: Adobe Illustrator 26.5.0, SVG Export Plug-In . SVG Version: 6.00 Build 0)  -->
<svg version="1.1" id="Ebene_1" xmlns="http://www.w3.org/2000/svg" xmlns:xlink="http://www.w3.org/1999/xlink" x="0px" y="0px"
	 viewBox="0 0 32 32" style="enable-background:new 0 0 32 32;" xml:space="preserve">
<style type="text/css">
	.st0{fill-rule:evenodd;clip-rule:evenodd;fill:#FFFFFF;}
</style>
<path class="st0" d="M16,0C7.2,0,0,7.2,0,16s7.2,16,16,16s16-7.2,16-16S24.8,0,16,0z M24.7,16.9h-3.2v1.9h3.2v2h-3.2v3.1
	c-0.9,0.3-1.9,0.6-2.8,0.7c-1,0.2-2.1,0.3-3.3,0.3c-2.6,0-4.6-0.8-6-2.3C8,21.1,7.3,18.9,7.3,16c0-1.8,0.3-3.4,1-4.7
	c0.7-1.3,1.7-2.4,3.1-3.1c1.4-0.7,3-1.1,4.9-1.1c0.9,0,1.8,0.1,2.7,0.3c0.9,0.2,1.7,0.5,2.4,0.8l-1.2,2.9c-0.5-0.3-1.1-0.5-1.8-0.7
	c-0.7-0.2-1.4-0.3-2.1-0.3c-1.1,0-2,0.2-2.8,0.7c-0.8,0.5-1.4,1.2-1.8,2.1c-0.4,0.9-0.6,1.9-0.6,3.1c0,1.1,0.2,2.1,0.5,3
	c0.3,0.9,0.8,1.6,1.5,2.1c0.7,0.5,1.5,0.7,2.6,0.7c0.5,0,1,0,1.3-0.1c0.4,0,0.7-0.1,1-0.2v-0.8h-3.3v-2H18V18h-3.3v-1.1v-2v0h10
	V16.9z"/>
</svg>
