<svg id="Ebene_1" data-name="Ebene 1" xmlns="http://www.w3.org/2000/svg" viewBox="0 0 490.1 214.22"><defs><style>.cls-1{fill:#f1fc00;}.cls-2{fill:#1a80ff;}.cls-2,.cls-3,.cls-4,.cls-5,.cls-6,.cls-7{fill-rule:evenodd;}.cls-3{fill:#f20011;}.cls-4{fill:#f1c200;}.cls-5{fill:#21ff3c;}.cls-6{fill:#0df2c9;}.cls-7{fill:#f300e6;}.cls-8{stroke:#000;stroke-miterlimit:10;stroke-width:0.25px;}</style></defs><path class="cls-1" d="M60.18,200.79,15.65,245.32l45.42,45.42,44.53-44.52Z" transform="translate(-5.24 -142.79)"/><path class="cls-2" d="M118.17,142.79,75.84,185.13h90.83l42.23-42.34Z" transform="translate(-5.24 -142.79)"/><path class="cls-3" d="M155.13,196.66H73.78l40.67,40.68Z" transform="translate(-5.24 -142.79)"/><path class="cls-4" d="M114.45,255.13,12.57,357H216.33Z" transform="translate(-5.24 -142.79)"/><path class="cls-5" d="M53.05,298.64,5.24,250.83v95.62Z" transform="translate(-5.24 -142.79)"/><path class="cls-6" d="M7.59,237.34,102,142.79H5.24V234a2.36,2.36,0,0,0,.69,1.66Z" transform="translate(-5.24 -142.79)"/><path class="cls-7" d="M123.35,246.23l96.11,96V150.12Z" transform="translate(-5.24 -142.79)"/><path class="cls-8" d="M307,203.05h8.71v17.74q-7.33,8.18-21,8.17a26.39,26.39,0,0,1-19.32-7.64,25.76,25.76,0,0,1-7.76-19.12,26,26,0,0,1,7.91-19.27,26.32,26.32,0,0,1,19.17-7.8q11.25,0,18.69,6.48l-4.67,6.68a19.93,19.93,0,0,0-13.28-4.56,18.49,18.49,0,0,0-13.32,5.15,17.61,17.61,0,0,0-5.36,13.32q0,8.19,5.15,13.23a17.55,17.55,0,0,0,12.79,5q7.44,0,12.32-3.19Z" transform="translate(-5.24 -142.79)"/><path class="cls-8" d="M334.61,216.54l-5.21,11.79h-9.34L343,176.4h9.34l22.83,51.93h-9.34l-5.21-11.79Zm22.51-8.18L347.67,187l-9.45,21.34Z" transform="translate(-5.24 -142.79)"/><path class="cls-8" d="M391.2,228.33h-8.81V176.4h13.7L411.7,209l15.71-32.6H441v51.93h-8.7V187.76l-18.16,36h-4.88l-18.06-36Z" transform="translate(-5.24 -142.79)"/><path class="cls-8" d="M492,176.4v8.18H464.26v13.8h24.85v7.75H464.26V220h28.56v8.29H455.45V176.4Z" transform="translate(-5.24 -142.79)"/><path d="M296.45,240.67q20.31,0,31.32,9.84t11,27.67q0,18.13-10.85,28.21t-32.4,10.08H270.41v-75.8ZM296,252.45H283.28v51.93h14.1q14,0,21.24-6.59t7.29-19.3Q325.91,252.45,296,252.45Z" transform="translate(-5.24 -142.79)"/><path d="M358.23,299.26l-7.6,17.21H337l33.49-75.8h13.64l33.32,75.8H403.8l-7.59-17.21Zm32.86-11.93L377.3,256.17l-13.8,31.16Z" transform="translate(-5.24 -142.79)"/><path d="M455.35,317.24q-17.06,0-28.52-11.23t-11.47-28q0-16.75,11.47-28t28.52-11.24q17,0,28.52,11.24t11.47,28q0,16.74-11.62,27.9A39.17,39.17,0,0,1,455.35,317.24Zm0-66.81a25.43,25.43,0,0,0-19.07,8.06A27.16,27.16,0,0,0,428.53,278a26.85,26.85,0,0,0,7.75,19.45,26.78,26.78,0,0,0,38.14,0A26.89,26.89,0,0,0,482.17,278a27.2,27.2,0,0,0-7.75-19.54A25.44,25.44,0,0,0,455.35,250.43Z" transform="translate(-5.24 -142.79)"/></svg>