<?xml version="1.0" encoding="UTF-8" standalone="no"?>
<!DOCTYPE svg PUBLIC "-//W3C//DTD SVG 1.1//EN" "http://www.w3.org/Graphics/SVG/1.1/DTD/svg11.dtd">
<svg width="100%" height="100%" viewBox="0 0 953 953" version="1.1" xmlns="http://www.w3.org/2000/svg" xmlns:xlink="http://www.w3.org/1999/xlink" xml:space="preserve" xmlns:serif="http://www.serif.com/" style="fill-rule:evenodd;clip-rule:evenodd;stroke-linecap:square;stroke-miterlimit:1.5;">
    <g transform="matrix(1,0,0,1,-11174.9,-4278.55)">
        <g transform="matrix(-2.77556e-16,1,-1,-2.77556e-16,14958.1,30.3371)">
            <path d="M4251.97,2834.65L5196.85,2834.65L4724.41,3307.09L4251.97,2834.65Z" style="fill:rgb(243,0,230);stroke:black;stroke-width:4.17px;"/>
        </g>
        <g transform="matrix(-1,-2.22045e-16,2.22045e-16,-1,16375.5,8061.83)">
            <path d="M4251.97,2834.65L5196.85,2834.65L4724.41,3307.09L4251.97,2834.65Z" style="fill:rgb(241,194,0);stroke:black;stroke-width:4.17px;"/>
        </g>
        <g transform="matrix(1.11022e-16,-0.5,0.5,1.11022e-16,9761.3,7353.17)">
            <path d="M4251.97,2834.65L5196.85,2834.65L4724.41,3307.09L4251.97,2834.65Z" style="fill:rgb(33,255,60);stroke:black;stroke-width:8.33px;"/>
        </g>
        <g transform="matrix(0.5,1.66533e-16,-1.66533e-16,0.5,9288.85,3101.2)">
            <path d="M4251.97,2834.65L5196.85,2834.65L4724.41,3307.09L4251.97,2834.65Z" style="fill:rgb(242,0,17);stroke:black;stroke-width:8.33px;"/>
        </g>
        <g transform="matrix(-2.77556e-16,1,-1,-2.77556e-16,14958.1,-914.545)">
            <path d="M5669.29,3307.09L5905.51,3543.31L5669.29,3779.53L5433.07,3543.31L5669.29,3307.09Z" style="fill:rgb(241,252,0);stroke:black;stroke-width:4.17px;"/>
        </g>
        <g transform="matrix(-2.77556e-16,1,-1,-2.77556e-16,14958.1,30.3371)">
            <path d="M4724.41,3779.53L4251.97,3779.53L4251.97,3307.09L4724.41,3779.53Z" style="fill:rgb(13,242,201);stroke:black;stroke-width:4.17px;"/>
        </g>
        <g transform="matrix(-2.77556e-16,1,-1,-2.77556e-16,14958.1,30.3371)">
            <path d="M4251.97,2834.65L4488.19,3070.87L4488.19,3543.31L4251.97,3307.09L4251.97,2834.65Z" style="fill:rgb(26,128,255);stroke:black;stroke-width:4.17px;"/>
        </g>
    </g>
</svg>
