<svg id="Ebene_1" data-name="Ebene 1" xmlns="http://www.w3.org/2000/svg" viewBox="0 0 214.22 214.22">
    <defs>
        <style>
            .cls-1{fill:#f1fc00;}.cls-2{fill:#1a80ff;}.cls-2,.cls-3,.cls-4,.cls-5,.cls-6,.cls-7{fill-rule:evenodd;}.cls-3{fill:#f20011;}.cls-4{fill:#f1c200;}.cls-5{fill:#21ff3c;}.cls-6{fill:#0df2c9;}.cls-7{fill:#f300e6;}
        </style>
    </defs>
    <path class="cls-1" d="M198.11,200.79l-44.52,44.53L199,290.74l44.53-44.52Z" transform="translate(-143.18 -142.79)"/>
    <path class="cls-2" d="M256.11,142.79l-42.34,42.34h90.84l42.23-42.34Z" transform="translate(-143.18 -142.79)"/>
    <path class="cls-3" d="M293.07,196.66H211.72l40.67,40.68Z" transform="translate(-143.18 -142.79)"/>
    <path class="cls-4" d="M252.39,255.13,150.51,357H354.27Z" transform="translate(-143.18 -142.79)"/>
    <path class="cls-5" d="M191,298.64l-47.81-47.81v95.62Z" transform="translate(-143.18 -142.79)"/>
    <path class="cls-6" d="M145.53,237.34,240,142.79H143.18V234a2.36,2.36,0,0,0,.69,1.66Z"
          transform="translate(-143.18 -142.79)"/>
    <path class="cls-7" d="M261.29,246.23l96.11,96V150.12Z" transform="translate(-143.18 -142.79)"/>
</svg>