<svg id="Ebene_1" data-name="Ebene 1" xmlns="http://www.w3.org/2000/svg" viewBox="0 0 124.02 124.06"><path d="M81,37.38H43.65a5.76,5.76,0,0,0-5.75,5.76V80.52a5.77,5.77,0,0,0,5.75,5.76H81a5.77,5.77,0,0,0,5.75-5.76V43.14A5.76,5.76,0,0,0,81,37.38Zm-1.25,41.9H44.9V44.38H79.79Z" transform="translate(-0.03)"/><path d="M120.55,79.28h-9.06V44.38h9.06a3.5,3.5,0,0,0,0-7h-9.06V21A8.47,8.47,0,0,0,103,12.56H86.79V3.5a3.5,3.5,0,0,0-7,0v9.06H44.9V3.5a3.5,3.5,0,0,0-7,0v9.06H21A8.47,8.47,0,0,0,12.59,21V37.38H3.53a3.5,3.5,0,0,0,0,7h9.06V77.47H3.53a3.5,3.5,0,0,0,0,7h9.06v18.58A8.47,8.47,0,0,0,21,111.5H37.93v9.06a3.5,3.5,0,0,0,7,0V111.5H79.82v9.06a3.5,3.5,0,0,0,7,0V111.5H103a8.47,8.47,0,0,0,8.45-8.45V86.28h9.06a3.5,3.5,0,0,0,0-7Zm-16.06,23.77A1.45,1.45,0,0,1,103,104.5H21a1.45,1.45,0,0,1-1.45-1.45h0v-82A1.45,1.45,0,0,1,21,19.6h82a1.45,1.45,0,0,1,1.45,1.45h0Z" transform="translate(-0.03)"/></svg>