<svg id="Ebene_1" data-name="Ebene 1" xmlns="http://www.w3.org/2000/svg" viewBox="0 0 116.78 112.46"><path d="M110.42,0H54.76A6.38,6.38,0,0,0,48.4,6.36V46.65A6.38,6.38,0,0,0,54.76,53h55.66a6.36,6.36,0,0,0,6.36-6.36V6.36A6.36,6.36,0,0,0,110.42,0Zm-.64,46H55.42V7h54.4Z" transform="translate(0)"/><path d="M6.49,53H35.21a6.36,6.36,0,0,0,6.36-6.36V6.36A6.36,6.36,0,0,0,35.21,0H6.49A6.36,6.36,0,0,0,.13,6.36V46.65A6.36,6.36,0,0,0,6.49,53ZM7.13,7H34.57V46H7.13Z" transform="translate(0)"/><path d="M62,59.45H6.36A6.38,6.38,0,0,0,0,65.81V106.1a6.38,6.38,0,0,0,6.36,6.36H62a6.36,6.36,0,0,0,6.36-6.36V65.81A6.36,6.36,0,0,0,62,59.45Zm-.64,46H7v-39H61.42Z" transform="translate(0)"/><path d="M110.32,59.45H81.6a6.36,6.36,0,0,0-6.36,6.36V106.1a6.36,6.36,0,0,0,6.36,6.36h28.72a6.36,6.36,0,0,0,6.36-6.36V65.81A6.36,6.36,0,0,0,110.32,59.45Zm-.64,46H82.24v-39h27.44Z" transform="translate(0)"/></svg>