<svg id="Ebene_1" data-name="Ebene 1" xmlns="http://www.w3.org/2000/svg" viewBox="0 0 115.55 140.25"><path d="M114.34,33.1,81.56,1.1A4,4,0,0,0,78.76,0H21.1A21.12,21.12,0,0,0,0,21.06v98.05a21.12,21.12,0,0,0,21.1,21.1H94.45a21.12,21.12,0,0,0,21.1-21.1V36A4,4,0,0,0,114.34,33.1ZM94.45,132.25H21.1A13.12,13.12,0,0,1,8,119.15V21.1A13.12,13.12,0,0,1,21.1,8H76V31.05a8.83,8.83,0,0,0,9,8.62h22.51v79.48a13.12,13.12,0,0,1-13.08,13.1Z" transform="translate(0 0.04)"/><path d="M24.29,52H65.45a4,4,0,0,0,0-8H24.29a4,4,0,0,0,0,8Z" transform="translate(0 0.04)"/><path d="M90.7,72.57H24.29a4,4,0,1,0,0,8h66.4a4,4,0,0,0,0-8Z" transform="translate(0 0.04)"/><path d="M90.7,100H24.29a4,4,0,0,0,0,8h66.4a4,4,0,0,0,0-8Z" transform="translate(0 0.04)"/></svg>