<svg id="Ebene_1" data-name="Ebene 1" xmlns="http://www.w3.org/2000/svg" viewBox="0 0 106.94 132.89"><path d="M106.72,92.73c-.14-.44-3.3-10.5-13.93-13.44V67.16a4.44,4.44,0,0,0-.27-1.45,11.67,11.67,0,0,0,.27-2.43c0-11.72-17.11-20.55-39.79-20.55S13.22,51.56,13.22,63.28a12.06,12.06,0,0,0,.29,2.54,4.65,4.65,0,0,0-.23,1.34V79.71C10.8,81,3.88,85.2.65,92.71a3.75,3.75,0,0,0-.17.47c-.57,1.86-.63,7.3-.19,16.17a4.64,4.64,0,0,0,.21,1.16c.3.93,7.71,22.35,49.55,22.35h3c43.07-1,52.48-17.22,53.41-19.06a4.5,4.5,0,0,0,.48-2V94A4.79,4.79,0,0,0,106.72,92.73ZM22.28,76.66c7.18,4.46,18.09,7.2,30.72,7.2s23.61-2.76,30.79-7.24V93.89c-2.78,2.26-11.46,7.76-30.25,7.76-19.47,0-28.51-6.73-31.26-9.3ZM53,51.77c18.79,0,30.79,6.84,30.79,11.55S71.79,74.86,53,74.86,22.22,68,22.22,63.32,34.21,51.77,53,51.77Zm44.92,58.65c-2.29,2.8-12.67,12.74-45.1,13.5-33.91.82-42.33-13.17-43.57-15.7-.22-4.9-.32-10.6-.13-12.29a16.66,16.66,0,0,1,4.17-5.33v5.06l.94,1.21c.43.57,10.93,13.78,39.32,13.78,27.86,0,37.28-10.79,38.26-12l1-1.23V89a12.28,12.28,0,0,1,5.12,5.86Z" transform="translate(0 0.03)"/><path d="M52.11,34.67a1.72,1.72,0,0,0,2.42.2,1.89,1.89,0,0,0,.2-.2L67.08,20.28a1.72,1.72,0,0,0-.17-2.43,1.74,1.74,0,0,0-1.14-.42H62.54a1.72,1.72,0,0,1-1.73-1.71V1.7A1.72,1.72,0,0,0,59.08,0h-11a1.72,1.72,0,0,0-1.72,1.71l-.16,14a1.73,1.73,0,0,1-1.7,1.71H41.05a1.72,1.72,0,0,0-1.29,2.85Z" transform="translate(0 0.03)"/></svg>