<svg id="Ebene_1" data-name="Ebene 1" xmlns="http://www.w3.org/2000/svg" viewBox="0 0 155.07 97.83"><path d="M154.4,74.19,140.88,24.75A33.7,33.7,0,0,0,108.45,0H45.69A33.63,33.63,0,0,0,13.16,25.1L.64,72.93a19.53,19.53,0,0,0,11.65,23l.5.21a19.47,19.47,0,0,0,24.46-9l3.34-6.32A18.47,18.47,0,0,1,57,71h42.1a18.47,18.47,0,0,1,16.41,10l3.31,6.37a19.54,19.54,0,0,0,17.33,10.5,19.25,19.25,0,0,0,6.76-1.22A18.56,18.56,0,0,0,154.4,74.19ZM140.46,90.05a12.51,12.51,0,0,1-15.44-6l-3.31-6.37A25.43,25.43,0,0,0,99.05,64H57A25.43,25.43,0,0,0,34.4,77.6l-3.35,6.31a12.48,12.48,0,0,1-15.68,5.77l-.5-.2A12.5,12.5,0,0,1,7.4,74.7L19.92,26.88A26.63,26.63,0,0,1,45.68,7h62.77a26.69,26.69,0,0,1,25.68,19.6L147.65,76A11.59,11.59,0,0,1,140.46,90.05Z" transform="translate(-0.02)"/><path d="M106.65,20a14,14,0,1,0,14,14A14,14,0,0,0,106.65,20Zm0,22.1a8,8,0,1,1,8-8A8,8,0,0,1,106.65,42.14Z" transform="translate(-0.02)"/><path d="M58.56,30.75H51.31V23.5a3,3,0,0,0-6,0v7.25H38.05a3,3,0,0,0,0,6H45.3V44a3,3,0,0,0,6,0V36.75h7.25a3,3,0,0,0,0-6Z" transform="translate(-0.02)"/></svg>