<svg id="Ebene_1" data-name="Ebene 1" xmlns="http://www.w3.org/2000/svg" viewBox="0 0 106.25 101.51">
    <path d="M553.51,469.22H538v-4.31a3.5,3.5,0,0,0-7,0v4.31h-38.5v-4.31a3.5,3.5,0,0,0-7,0v4.31H470.71A11.74,11.74,0,0,0,459,481v70.24a11.74,11.74,0,0,0,11.72,11.73h82.8a11.74,11.74,0,0,0,11.73-11.73V481A11.74,11.74,0,0,0,553.51,469.22Zm-82.8,7h14.78v6.69a3.5,3.5,0,1,0,7,0v-6.69H531v6.69a3.5,3.5,0,1,0,7,0v-6.69h15.52a4.73,4.73,0,0,1,4.73,4.73v21.58H466V481A4.73,4.73,0,0,1,470.71,476.22Zm82.8,79.7h-82.8a4.73,4.73,0,0,1-4.72-4.73V509.53h92.25v41.66A4.73,4.73,0,0,1,553.51,555.92Z"
          transform="translate(-458.99 -461.41)"/>
</svg>