<svg id="Ebene_1" data-name="Ebene 1" xmlns="http://www.w3.org/2000/svg" viewBox="0 0 89.63 121.98"><path d="M44.83,0C20.12,0,0,17.35,0,38.67c0,9.94,5.42,17.95,10.67,25.7C16.26,72.6,22,81.12,22,92.48A3.5,3.5,0,0,0,25.43,96H64.06a3.5,3.5,0,0,0,3.5-3.35c.37-8.6,6-18.24,11.42-27.56S89.65,46.77,89.65,38.67C89.63,17.34,69.52,0,44.83,0Zm28.1,61.56c-5.23,9-10.61,18.22-12,27.44H48.31V59.79a3.5,3.5,0,1,0-7,0V89H28.83c-1-11.75-7-20.64-12.33-28.56C11.42,52.94,7,46.44,7,38.67,7,21.21,24,7,44.84,7S82.66,21.21,82.66,38.67c0,6.21-4.75,14.31-9.75,22.89Z" transform="translate(-0.02)"/><path d="M59.83,41.42l-6.92,7.15-5.5-6.34a3.51,3.51,0,0,0-4.95-.34l-.14.13-6.88,6.74-7-7.32a3.5,3.5,0,1,0-5.07,4.83l9.42,9.89a3.49,3.49,0,0,0,2.47,1.09,3.37,3.37,0,0,0,2.51-1l6.76-6.62L50.1,56a3.52,3.52,0,0,0,2.55,1.21h.09a3.52,3.52,0,0,0,2.52-1.07l9.57-9.84a3.5,3.5,0,0,0-4.63-5.25,3.32,3.32,0,0,0-.37.38Z" transform="translate(-0.02)"/><path d="M61.62,102H28a3.5,3.5,0,0,0,0,7H61.62a3.5,3.5,0,1,0,0-7Z" transform="translate(-0.02)"/><path d="M57.91,115H31.71a3.5,3.5,0,1,0,0,7h26.2a3.5,3.5,0,0,0,0-7Z" transform="translate(-0.02)"/></svg>