<svg id="Ebene_1" data-name="Ebene 1" xmlns="http://www.w3.org/2000/svg" viewBox="0 0 112.13 84.5">
    <path d="M108.63,24.41h-5V10.68A10.69,10.69,0,0,0,93,0H10.68A10.69,10.69,0,0,0,0,10.68V73.82A10.69,10.69,0,0,0,10.68,84.5H93a10.69,10.69,0,0,0,10.68-10.68V60h5a3.5,3.5,0,0,0,3.5-3.5V27.93a3.5,3.5,0,0,0-3.48-3.52Zm-12,49.41A3.68,3.68,0,0,1,93,77.5H10.68A3.68,3.68,0,0,1,7,73.82V10.68A3.68,3.68,0,0,1,10.68,7H93a3.68,3.68,0,0,1,3.68,3.68V24.41H70a3.5,3.5,0,0,0-3.5,3.5V56.5A3.5,3.5,0,0,0,70,60H96.63ZM105.13,53H73.52V31.41h31.61Z"/>
    <circle cx="85.33" cy="42.25" r="5.41"/>
</svg>