<svg width="18" height="19" viewBox="0 0 18 19" fill="none" xmlns="http://www.w3.org/2000/svg">
    <path d="M3.21795 13.0897L1.93777 13.8399C1.87203 13.8796 1.79902 13.9058 1.72303 13.917C1.64704 13.9282 1.56958 13.9241 1.4952 13.9049C1.42081 13.8858 1.35099 13.852 1.28982 13.8055C1.22865 13.7591 1.17736 13.7009 1.13895 13.6344C1.10054 13.5678 1.07578 13.4943 1.06612 13.4181C1.05646 13.3419 1.0621 13.2645 1.0827 13.1905C1.1033 13.1165 1.13845 13.0474 1.1861 12.9871C1.23375 12.9269 1.29293 12.8767 1.36019 12.8396L2.64037 12.0894C2.77278 12.0164 2.92854 11.9982 3.07421 12.0388C3.21988 12.0793 3.34384 12.1754 3.41946 12.3064C3.49508 12.4373 3.51633 12.5927 3.47865 12.7392C3.44098 12.8857 3.34737 13.0115 3.21795 13.0897ZM5.92582 15.4629L5.17572 16.7457C5.09979 16.8784 4.97429 16.9754 4.82681 17.0155C4.67934 17.0556 4.52198 17.0355 4.38936 16.9595C4.25673 16.8836 4.1597 16.7581 4.11961 16.6106C4.07952 16.4631 4.09965 16.3057 4.17558 16.1731L4.92568 14.8902C5.00161 14.7576 5.12712 14.6605 5.27459 14.6204C5.42206 14.5803 5.57942 14.6005 5.71204 14.6764C5.84467 14.7523 5.9417 14.8779 5.98179 15.0254C6.02188 15.1728 6.00175 15.3302 5.92582 15.4629ZM9.46131 17.646C9.46131 17.7992 9.40046 17.9461 9.29214 18.0544C9.18383 18.1628 9.03692 18.2236 8.88373 18.2236C8.73055 18.2236 8.58364 18.1628 8.47532 18.0544C8.367 17.9461 8.30615 17.7992 8.30615 17.646V16.1656C8.30615 16.0124 8.367 15.8654 8.47532 15.7571C8.58364 15.6488 8.73055 15.5879 8.88373 15.5879C9.03692 15.5879 9.18383 15.6488 9.29214 15.7571C9.40046 15.8654 9.46131 16.0124 9.46131 16.1656V17.646ZM13.3994 17.0758C13.267 17.1521 13.1098 17.1728 12.9622 17.1335C12.8146 17.0941 12.6886 16.9978 12.6118 16.8658L11.8616 15.5829C11.8219 15.5171 11.7957 15.4441 11.7846 15.3681C11.7734 15.2921 11.7775 15.2147 11.7967 15.1403C11.8158 15.0659 11.8496 14.996 11.896 14.9349C11.9425 14.8737 12.0007 14.8224 12.0672 14.784C12.1337 14.7456 12.2072 14.7208 12.2834 14.7111C12.3596 14.7015 12.4369 14.7071 12.5109 14.7277C12.5849 14.7483 12.6541 14.7835 12.7143 14.8311C12.7746 14.8788 12.8247 14.938 12.8618 15.0052L13.6119 16.2881C13.688 16.4208 13.7083 16.5782 13.6684 16.7259C13.6286 16.8736 13.5318 16.9994 13.3994 17.0758ZM18 9.34117C18.0003 9.41712 17.9856 9.49238 17.9567 9.56262C17.9278 9.63285 17.8853 9.69666 17.8316 9.75037C17.7779 9.80408 17.7141 9.84661 17.6438 9.87553C17.5736 9.90444 17.4984 9.91916 17.4224 9.91883H15.9422C15.789 9.91883 15.6421 9.85797 15.5338 9.74963C15.4255 9.6413 15.3646 9.49437 15.3646 9.34117C15.3646 9.18796 15.4255 9.04103 15.5338 8.9327C15.6421 8.82437 15.789 8.7635 15.9422 8.7635H17.4224C17.5756 8.7635 17.7225 8.82437 17.8308 8.9327C17.9391 9.04103 18 9.18796 18 9.34117ZM14.782 5.36256L16.0647 4.61235C16.1971 4.53932 16.3529 4.52113 16.4986 4.56169C16.6442 4.60226 16.7682 4.69834 16.8438 4.8293C16.9194 4.96026 16.9407 5.11566 16.903 5.26212C16.8653 5.40859 16.7717 5.53443 16.6423 5.61263L15.3596 6.36284C15.2939 6.40256 15.2209 6.42877 15.1449 6.43993C15.0689 6.45109 14.9914 6.44698 14.9171 6.42784C14.8427 6.4087 14.7729 6.37491 14.7117 6.32845C14.6505 6.282 14.5992 6.2238 14.5608 6.15728C14.5224 6.09076 14.4976 6.01724 14.488 5.94104C14.4783 5.86483 14.484 5.78746 14.5046 5.71345C14.5252 5.63945 14.5603 5.5703 14.608 5.51005C14.6556 5.4498 14.7148 5.39966 14.782 5.36256ZM14.4545 12.512C14.4921 12.4465 14.5422 12.3891 14.602 12.3429C14.6618 12.2968 14.7301 12.2629 14.803 12.2431C14.8759 12.2234 14.952 12.2182 15.0269 12.2279C15.1018 12.2375 15.1741 12.2619 15.2396 12.2995L16.5223 13.0497C16.588 13.0873 16.6456 13.1375 16.6919 13.1973C16.7382 13.2572 16.7722 13.3256 16.792 13.3986C16.8119 13.4717 16.8172 13.5479 16.8076 13.623C16.798 13.698 16.7737 13.7705 16.7361 13.8362C16.6985 13.9018 16.6483 13.9595 16.5884 14.0058C16.5286 14.0521 16.4602 14.0861 16.3872 14.106C16.3141 14.1258 16.2379 14.1311 16.1629 14.1215C16.0878 14.1119 16.0154 14.0876 15.9497 14.05L14.667 13.2998C14.6012 13.2622 14.5434 13.2119 14.4971 13.1519C14.4507 13.0919 14.4167 13.0233 14.3969 12.9501C14.3772 12.8769 14.3721 12.8005 14.382 12.7253C14.3919 12.6502 14.4165 12.5777 14.4545 12.512ZM12.0792 2.9844L12.8293 1.70154C12.9052 1.5689 13.0307 1.47185 13.1782 1.43176C13.3257 1.39166 13.483 1.41179 13.6156 1.48773C13.7483 1.56367 13.8453 1.6892 13.8854 1.83669C13.9255 1.98418 13.9053 2.14156 13.8294 2.2742L13.0793 3.55706C13.0034 3.6897 12.8779 3.78675 12.7304 3.82685C12.5829 3.86694 12.4256 3.84681 12.293 3.77087C12.1603 3.69493 12.0633 3.56941 12.0232 3.42191C11.9831 3.27442 12.0032 3.11705 12.0792 2.9844ZM8.54368 0.801293C8.54368 0.648088 8.60454 0.501158 8.71286 0.392825C8.82117 0.284493 8.96808 0.223633 9.12126 0.223633C9.27445 0.223633 9.42136 0.284493 9.52968 0.392825C9.63799 0.501158 9.69884 0.648088 9.69884 0.801293V2.2817C9.69884 2.43491 9.63799 2.58184 9.52968 2.69017C9.42136 2.7985 9.27445 2.85937 9.12126 2.85937C8.96808 2.85937 8.82117 2.7985 8.71286 2.69017C8.60454 2.58184 8.54368 2.43491 8.54368 2.2817V0.801293ZM4.60314 1.36145C4.73551 1.28517 4.8927 1.26444 5.04032 1.30381C5.18793 1.34318 5.31393 1.43944 5.39075 1.57151L6.14085 2.85436C6.18057 2.92012 6.20677 2.99313 6.21793 3.06913C6.22909 3.14513 6.22498 3.2226 6.20584 3.297C6.1867 3.37139 6.15292 3.44122 6.10647 3.5024C6.06002 3.56358 6.00184 3.61488 5.93533 3.65329C5.86881 3.69171 5.79531 3.71647 5.71911 3.72613C5.64291 3.73579 5.56555 3.73016 5.49156 3.70955C5.41756 3.68895 5.34842 3.65379 5.28818 3.60614C5.22794 3.55848 5.1778 3.49929 5.14071 3.43202L4.39061 2.14917C4.31455 2.01648 4.29421 1.85903 4.33405 1.71137C4.37389 1.5637 4.47066 1.43786 4.60314 1.36145ZM5.35324 5.56512C6.20021 4.72435 7.31233 4.20312 8.50031 4.09016C9.68829 3.9772 10.8787 4.2795 11.8689 4.94558C12.8591 5.61167 13.5879 6.60038 13.9312 7.74341C14.2746 8.88645 14.2112 10.1132 13.752 11.2148C13.2928 12.3163 12.466 13.2247 11.4125 13.7852C10.3589 14.3457 9.1437 14.5238 7.97368 14.289C6.80365 14.0543 5.75113 13.4213 4.99527 12.4977C4.23941 11.5741 3.82692 10.4171 3.82803 9.22363C3.8285 8.5447 3.96329 7.87256 4.22462 7.24595C4.48596 6.61934 4.86868 6.05065 5.35074 5.57262L5.35324 5.56512ZM1.26767 4.61235C1.30526 4.54683 1.35539 4.48936 1.41519 4.44322C1.475 4.39707 1.5433 4.36316 1.61621 4.34343C1.68911 4.32369 1.76519 4.31851 1.8401 4.32818C1.91501 4.33785 1.98728 4.36218 2.05278 4.39979L3.33546 5.15C3.46809 5.22594 3.56512 5.35146 3.60521 5.49895C3.64531 5.64645 3.62517 5.80382 3.54924 5.93647C3.47331 6.06911 3.34781 6.16616 3.20034 6.20626C3.05287 6.24635 2.89551 6.22622 2.76288 6.15028L1.4802 5.40007C1.41436 5.36247 1.3566 5.31223 1.31025 5.25222C1.26389 5.19222 1.22987 5.12363 1.21011 5.05042C1.19036 4.97721 1.18528 4.90082 1.19515 4.82564C1.20503 4.75046 1.22968 4.67797 1.26767 4.61235ZM0.577579 8.52844H2.05778C2.21097 8.52844 2.35788 8.5893 2.4662 8.69763C2.57451 8.80596 2.63536 8.9529 2.63536 9.1061C2.63536 9.25931 2.57451 9.40624 2.4662 9.51457C2.35788 9.6229 2.21097 9.68376 2.05778 9.68376H0.577579C0.424396 9.68376 0.277484 9.6229 0.169167 9.51457C0.0608499 9.40624 0 9.25931 0 9.1061C0 8.9529 0.0608499 8.80596 0.169167 8.69763C0.277484 8.5893 0.424396 8.52844 0.577579 8.52844Z"
          fill="white"/>
</svg>
