<svg width="15" height="17" viewBox="0 0 15 17" fill="none" xmlns="http://www.w3.org/2000/svg">
<path d="M7.696 16.2236C9.2928 16.2246 10.8503 15.7081 12.1523 14.7458C13.4543 13.7835 14.4363 12.4231 14.9619 10.8535C15.1533 10.283 14.5857 9.94793 14.092 10.4007C13.5136 10.9573 12.8289 11.3806 12.0826 11.643C11.3363 11.9053 10.5452 12.0008 9.76108 11.9233C8.97692 11.8457 8.2173 11.5968 7.53184 11.1928C6.84638 10.7888 6.2505 10.2388 5.78312 9.57878C5.31574 8.91873 4.98738 8.16347 4.81948 7.36232C4.65159 6.56117 4.64793 5.73216 4.80876 4.92944C4.96958 4.12672 5.29127 3.36835 5.75281 2.70387C6.21435 2.03938 6.80536 1.48373 7.48723 1.07321C8.13966 0.683808 7.9461 0.181209 7.20233 0.226488C5.2087 0.357264 3.34231 1.29093 1.99863 2.82967C0.654941 4.3684 -0.0604606 6.39129 0.00400775 8.4697C0.0684761 10.5481 0.907749 12.5187 2.34399 13.964C3.78024 15.4093 5.7006 16.2157 7.69818 16.2123L7.696 16.2236Z" fill="white"/>
</svg>
