<svg id="Ebene_1" data-name="Ebene 1" xmlns="http://www.w3.org/2000/svg" viewBox="0 0 215.12 181.8">
    <path d="M187.33,17.77a27.73,27.73,0,0,0-26,37.21l-19.09,10.4a39.05,39.05,0,0,0-30.41-14.56,22.83,22.83,0,0,0-2.75.11V38a19.35,19.35,0,1,0-9,.35v14.1h.54A39.26,39.26,0,0,0,76.21,73.85l-21.1-7.37a28.61,28.61,0,0,0,.32-4.24A27.74,27.74,0,1,0,52.29,75l21.13,7.44A39.07,39.07,0,0,0,88,121l-8.77,13.22a24.84,24.84,0,1,0,7.46,5l9-13.63A39,39,0,0,0,137,119.77l7.36,7.09a16.9,16.9,0,1,0,6.56-6.17l-7.76-7.48A39,39,0,0,0,147,73l18.7-10.19a27.7,27.7,0,1,0,21.6-45ZM93.46,19.38a10.38,10.38,0,1,1,10.38,10.38A10.38,10.38,0,0,1,93.46,19.38ZM27.72,80.9A18.72,18.72,0,1,1,46.43,62.17v0A18.74,18.74,0,0,1,27.72,80.9ZM69.3,172.6A15.78,15.78,0,1,1,85,156.78v0A15.8,15.8,0,0,1,69.3,172.6ZM81.69,89.92a30.1,30.1,0,1,1,30.1,30.1h0a30.14,30.14,0,0,1-30.1-30.1Zm85,45.71a7.88,7.88,0,1,1-7.88-7.89,7.88,7.88,0,0,1,7.88,7.89Zm20.68-71.44A18.71,18.71,0,1,1,206,45.44v0a18.73,18.73,0,0,1-18.71,18.71Z"
          transform="translate(0.05 -0.05)"/>
</svg>