<svg id="Ebene_1" data-name="Ebene 1" xmlns="http://www.w3.org/2000/svg" viewBox="0 0 105.5 86">
    <path d="M554,469.16H470.18A10.83,10.83,0,0,0,459.36,480v64.37a10.83,10.83,0,0,0,10.82,10.81H554a10.83,10.83,0,0,0,10.82-10.81V480A10.83,10.83,0,0,0,554,469.16Zm-83.86,7H554a3.82,3.82,0,0,1,3.82,3.82v27.24L507.8,523.51,492,511.16a3.49,3.49,0,0,0-3.72-.38l-21.94,11V480A3.82,3.82,0,0,1,470.18,476.16Zm83.86,72H470.18a3.82,3.82,0,0,1-3.82-3.81V529.58L489.45,518,505,530.17a3.5,3.5,0,0,0,3.24.57l49.67-16.16v29.77A3.82,3.82,0,0,1,554,548.16Z"
          transform="translate(-459.36 -469.16)"/>
    <path d="M527.61,509.16a12.5,12.5,0,1,0-12.5-12.5A12.51,12.51,0,0,0,527.61,509.16Zm0-18a5.5,5.5,0,1,1-5.5,5.5A5.51,5.51,0,0,1,527.61,491.16Z"
          transform="translate(-459.36 -469.16)"/>
</svg>