<svg id="Ebene_1" data-name="Ebene 1" xmlns="http://www.w3.org/2000/svg" viewBox="0 0 144.49 130.28"><path d="M144.5,39.82v-.23a3.27,3.27,0,0,0-.09-1.08l-9-35.87A3.5,3.5,0,0,0,132,0H12.69A3.49,3.49,0,0,0,9.31,2.61L.17,37.37h0a.9.9,0,0,1-.05.36,1.67,1.67,0,0,0,0,.31v.1c0,.55,0,1.12,0,1.68A27,27,0,0,0,10.4,61.08v56.46a12.76,12.76,0,0,0,12.74,12.74h98.4a12.75,12.75,0,0,0,12.71-12.74V61A27,27,0,0,0,144.5,39.82ZM7,39.82v-1L15.36,7H129.25l8.23,32.8h0a20,20,0,1,1-40,0v-.46a3.5,3.5,0,1,0-7,0,18.24,18.24,0,0,1-36.48,0,3.5,3.5,0,0,0-7,0v.46a20,20,0,0,1-40,0Zm78.62,83.46H58.88V98.46a13.37,13.37,0,1,1,26.74,0v24.84Zm41.63-5.74a5.74,5.74,0,0,1-5.74,5.74H92.61V98.46a20.37,20.37,0,0,0-40.74,0v24.85H23.12a5.74,5.74,0,0,1-5.74-5.74V65.05a27,27,0,0,0,33.4-12.43,25.23,25.23,0,0,0,42.94,0A27,27,0,0,0,127.25,65Z" transform="translate(-0.02 0)"/></svg>