<svg width="24" height="22" viewBox="0 0 24 22" fill="none" xmlns="http://www.w3.org/2000/svg">
<path d="M13.5649 5.13274V4.25C13.5649 2.59315 12.2217 1.25 10.5649 1.25H4.61328C2.95643 1.25 1.61328 2.59315 1.61328 4.25V17.75C1.61328 19.4069 2.95643 20.75 4.61328 20.75H10.5649C12.2217 20.75 13.5649 19.4069 13.5649 17.75V16.9535" stroke="white" stroke-width="1.3" stroke-linecap="round"/>
<path d="M6.64648 10.0355C6.2875 10.0355 5.99648 10.3266 5.99648 10.6855C5.99648 11.0445 6.2875 11.3355 6.64648 11.3355V10.0355ZM23.4609 11.1452C23.7148 10.8913 23.7148 10.4798 23.4609 10.2259L19.3244 6.08935C19.0705 5.83551 18.659 5.83551 18.4051 6.08935C18.1513 6.34319 18.1513 6.75475 18.4051 7.00859L22.0821 10.6855L18.4051 14.3625C18.1513 14.6163 18.1513 15.0279 18.4051 15.2817C18.659 15.5356 19.0705 15.5356 19.3244 15.2817L23.4609 11.1452ZM6.64648 11.3355H23.0013V10.0355H6.64648V11.3355Z" fill="white"/>
</svg>
