<svg id="Ebene_1" data-name="Ebene 1" xmlns="http://www.w3.org/2000/svg" viewBox="0 0 119.72 103.43">
    <path d="M119.49,41.3a3.86,3.86,0,0,0-.73-1.06L101.27,22.75,81.06,1.09a3.51,3.51,0,0,0-5-.19l0,0L55.61,20.65,40.91,5.21a3.51,3.51,0,0,0-2.49-1.09,3.32,3.32,0,0,0-2.52,1L1,40l-.11.12A3.49,3.49,0,0,0,1,44.91H1L58.47,102.4a3.56,3.56,0,0,0,2.48,1h0a3.49,3.49,0,0,0,2.49-1.07l55.29-57.26a3.68,3.68,0,0,0,.7-1,3.33,3.33,0,0,0,.28-1.35h0A3.44,3.44,0,0,0,119.49,41.3ZM78.37,8.48,90.7,21.68H64.63ZM97.3,28.68,107.82,39.2l-34.61-.11L63.27,28.64Zm-59-16L63.53,39.09,11.94,39ZM60.91,95l-49-49,96.08.19Z"
          transform="translate(0 0.03)"/>
</svg>