<svg width="50" height="64" viewBox="0 0 50 64" fill="none" xmlns="http://www.w3.org/2000/svg">
<g filter="url(#filter0_i_203_818)">
<path d="M1.3509 5.11926C1.46263 4.25045 2.13668 3.57754 3.00212 3.44212L24.6908 0.0483801C24.8957 0.0163217 25.1043 0.0163218 25.3092 0.0483802L46.9979 3.44212C47.8633 3.57754 48.5374 4.25044 48.6491 5.11926C49.3332 10.4395 51.4169 29.1121 48.4531 39.3195C44.7093 52.2131 29.7319 61.3505 25.8977 63.5101C25.3348 63.8272 24.6652 63.8272 24.1023 63.5101C20.2681 61.3505 5.29073 52.2131 1.54694 39.3195C-1.41685 29.1121 0.666777 10.4395 1.3509 5.11926Z" fill="url(#paint0_linear_203_818)"/>
</g>
<path d="M2.57936 20.4759C2.8 14.2956 3.42701 8.64629 3.77801 5.85113L25 2.53042L46.222 5.85113C46.573 8.64629 47.2 14.2956 47.4206 20.4759C47.6555 27.0552 47.4147 33.9301 46.0522 38.6224C44.372 44.409 40.0951 49.5342 35.5493 53.5707C31.2903 57.3526 27.007 59.9932 25 61.1447C22.993 59.9932 18.7097 57.3526 14.4507 53.5707C9.90489 49.5342 5.628 44.409 3.94778 38.6224C2.58535 33.9301 2.34447 27.0552 2.57936 20.4759Z" stroke="url(#paint1_linear_203_818)" stroke-width="5"/>
<defs>
<filter id="filter0_i_203_818" x="0" y="0.024292" width="50" height="63.7236" filterUnits="userSpaceOnUse" color-interpolation-filters="sRGB">
<feFlood flood-opacity="0" result="BackgroundImageFix"/>
<feBlend mode="normal" in="SourceGraphic" in2="BackgroundImageFix" result="shape"/>
<feColorMatrix in="SourceAlpha" type="matrix" values="0 0 0 0 0 0 0 0 0 0 0 0 0 0 0 0 0 0 127 0" result="hardAlpha"/>
<feOffset/>
<feGaussianBlur stdDeviation="5"/>
<feComposite in2="hardAlpha" operator="arithmetic" k2="-1" k3="1"/>
<feColorMatrix type="matrix" values="0 0 0 0 1 0 0 0 0 1 0 0 0 0 1 0 0 0 0.5 0"/>
<feBlend mode="normal" in2="shape" result="effect1_innerShadow_203_818"/>
</filter>
<linearGradient id="paint0_linear_203_818" x1="25" y1="0.120864" x2="25" y2="63.9999" gradientUnits="userSpaceOnUse">
<stop stop-color="#F5D543"/>
<stop offset="0.421875" stop-color="#EA4C1A"/>
<stop offset="1" stop-color="#F5D543"/>
</linearGradient>
<linearGradient id="paint1_linear_203_818" x1="25" y1="0.120864" x2="25" y2="63.9999" gradientUnits="userSpaceOnUse">
<stop stop-color="white"/>
<stop offset="0.270833" stop-color="#C8C8C8" stop-opacity="0.910567"/>
<stop offset="0.489583" stop-color="white" stop-opacity="0.838333"/>
<stop offset="0.635417" stop-color="#898989" stop-opacity="0.955"/>
<stop offset="1" stop-color="#898989" stop-opacity="0.68"/>
</linearGradient>
</defs>
</svg>
