<svg width="40" height="41" viewBox="0 0 40 41" fill="none" xmlns="http://www.w3.org/2000/svg">
<path fill-rule="evenodd" clip-rule="evenodd" d="M12.3333 15.4023C12.3333 14.8501 12.781 14.4023 13.3333 14.4023H26.6666C27.2189 14.4023 27.6666 14.8501 27.6666 15.4023C27.6666 15.9546 27.2189 16.4023 26.6666 16.4023H13.3333C12.781 16.4023 12.3333 15.9546 12.3333 15.4023ZM12.3333 20.7357C12.3333 20.1834 12.781 19.7357 13.3333 19.7357H26.6666C27.2189 19.7357 27.6666 20.1834 27.6666 20.7357C27.6666 21.288 27.2189 21.7357 26.6666 21.7357H13.3333C12.781 21.7357 12.3333 21.288 12.3333 20.7357ZM13.3333 25.069C12.781 25.069 12.3333 25.5167 12.3333 26.069C12.3333 26.6213 12.781 27.069 13.3333 27.069H26.6666C27.2189 27.069 27.6666 26.6213 27.6666 26.069C27.6666 25.5167 27.2189 25.069 26.6666 25.069H13.3333Z" fill="white"/>
</svg>
