<svg width="14" height="14" viewBox="0 0 14 14" fill="none" xmlns="http://www.w3.org/2000/svg">
<path fill-rule="evenodd" clip-rule="evenodd" d="M11.9496 13.3636C12.3402 13.7541 12.9733 13.7541 13.3638 13.3636C13.7544 12.9731 13.7544 12.3399 13.3638 11.9494L8.41412 6.99965L13.3638 2.04994C13.7544 1.65941 13.7544 1.02625 13.3638 0.635725C12.9733 0.245201 12.3401 0.245201 11.9496 0.635725L6.99991 5.58544L2.05014 0.635667C1.65961 0.245142 1.02645 0.245143 0.635923 0.635667C0.245398 1.02619 0.245398 1.65936 0.635923 2.04988L5.58569 6.99965L0.635911 11.9494C0.245386 12.34 0.245387 12.9731 0.635911 13.3636C1.02644 13.7542 1.6596 13.7542 2.05012 13.3636L6.99991 8.41387L11.9496 13.3636Z" fill="white"/>
</svg>
