<svg width="20" height="20" viewBox="0 0 20 20" fill="none" xmlns="http://www.w3.org/2000/svg">
<path d="M11.7679 11.7674L15.8335 15.833M10.0002 9.99967L15.8335 4.16634M10.0002 9.99967L7.60126 12.3986M10.0002 9.99967L7.60126 7.60077M7.60126 12.3986C7.14885 11.9462 6.52385 11.6663 5.8335 11.6663C4.45278 11.6663 3.3335 12.7856 3.3335 14.1663C3.3335 15.5471 4.45278 16.6663 5.8335 16.6663C7.21421 16.6663 8.3335 15.5471 8.3335 14.1663C8.3335 13.476 8.05367 12.851 7.60126 12.3986ZM7.60126 7.60077C8.05367 7.14836 8.3335 6.52336 8.3335 5.83301C8.3335 4.4523 7.21421 3.33301 5.8335 3.33301C4.45278 3.33301 3.3335 4.4523 3.3335 5.83301C3.3335 7.21372 4.45278 8.33301 5.8335 8.33301C6.52385 8.33301 7.14885 8.05319 7.60126 7.60077Z" stroke="white" stroke-width="2" stroke-linecap="round"/>
</svg>
