
<svg width="41" height="40" viewBox="0 0 41 40" fill="none" xmlns="http://www.w3.org/2000/svg">
<path fill-rule="evenodd" clip-rule="evenodd" d="M21.75 2.91699C21.75 2.22664 21.1903 1.66699 20.5 1.66699C19.8096 1.66699 19.25 2.22664 19.25 2.91699V4.58366C19.25 5.27401 19.8096 5.83366 20.5 5.83366C21.1903 5.83366 21.75 5.27401 21.75 4.58366V2.91699ZM16.1292 9.58366C15.4346 9.58366 14.8309 10.0605 14.67 10.7362L12.6065 19.4029C12.3821 20.3455 13.0968 21.2503 14.0657 21.2503H7.79586C7.10127 21.2503 6.49754 21.7272 6.33665 22.4029L4.27316 31.0696C4.04874 32.0121 4.76346 32.917 5.73237 32.917H18.6009C19.5698 32.917 20.2845 32.0121 20.0601 31.0696L17.9966 22.4029C17.8357 21.7272 17.232 21.2503 16.5374 21.2503H24.4625C23.7679 21.2503 23.1642 21.7272 23.0033 22.4029L20.9398 31.0696C20.7154 32.0121 21.4301 32.917 22.399 32.917H35.2676C36.2365 32.917 36.9512 32.0121 36.7268 31.0696L34.6633 22.4029C34.5024 21.7272 33.8987 21.2503 33.2041 21.2503H26.9342C27.9031 21.2503 28.6179 20.3455 28.3934 19.4029L26.3299 10.7362C26.1691 10.0605 25.5653 9.58366 24.8707 9.58366H16.1292ZM31.3838 5.46754L29.7172 7.13421C29.229 7.62236 28.4376 7.62236 27.9494 7.13421C27.4613 6.64605 27.4613 5.8546 27.9494 5.36644L29.6161 3.69978C30.1042 3.21162 30.8957 3.21162 31.3838 3.69978C31.872 4.18793 31.872 4.97939 31.3838 5.46754ZM11.3838 3.69978C10.8957 3.21162 10.1042 3.21162 9.61608 3.69978C9.12793 4.18793 9.12793 4.97939 9.61608 5.46754L11.2827 7.13421C11.7709 7.62236 12.5624 7.62236 13.0505 7.13421C13.5387 6.64605 13.5387 5.8546 13.0505 5.36644L11.3838 3.69978Z" fill="#F3CB14"/>
</svg>
