<svg width="41" height="40" viewBox="0 0 41 40" fill="none" xmlns="http://www.w3.org/2000/svg">
<path fill-rule="evenodd" clip-rule="evenodd" d="M23.8333 11.6667C23.8333 15.3486 20.8486 18.3333 17.1667 18.3333C13.4848 18.3333 10.5 15.3486 10.5 11.6667C10.5 7.98477 13.4848 5 17.1667 5C20.8486 5 23.8333 7.98477 23.8333 11.6667ZM28.8333 28.3333C28.8333 32.0152 23.61 35 17.1667 35C10.7233 35 5.5 32.0152 5.5 28.3333C5.5 24.6514 10.7233 21.6667 17.1667 21.6667C23.61 21.6667 28.8333 24.6514 28.8333 28.3333ZM30.5 21.25C29.8096 21.25 29.25 20.6904 29.25 20L29.25 17.9167H27.1667C26.4763 17.9167 25.9167 17.357 25.9167 16.6667C25.9167 15.9763 26.4763 15.4167 27.1667 15.4167H29.25V13.3333C29.25 12.643 29.8096 12.0833 30.5 12.0833C31.1904 12.0833 31.75 12.643 31.75 13.3333V15.4167H33.8333C34.5237 15.4167 35.0833 15.9763 35.0833 16.6667C35.0833 17.357 34.5237 17.9167 33.8333 17.9167H31.75V20C31.75 20.6904 31.1904 21.25 30.5 21.25Z" fill="#F3CB14"/>
</svg>
