<svg width="41" height="40" viewBox="0 0 41 40" fill="none" xmlns="http://www.w3.org/2000/svg">
<path d="M25.9767 6.66699C22.4703 6.66699 19.6278 9.65176 19.6278 13.3337C19.6278 13.89 19.6927 14.4305 19.815 14.9471C16.4434 14.9471 11.3652 14.2655 7.12398 10.0163C6.56001 9.45131 5.52006 9.82908 5.55918 10.6265C6.18772 23.4381 11.6745 27.1752 14.5001 27.4077C12.6755 29.2098 10.0251 30.6322 7.35807 31.2706C6.65419 31.4391 6.48031 32.2097 7.16858 32.4335C9.07697 33.0542 11.8085 33.2933 13.2788 33.3337C23.6802 33.3337 32.1343 24.5789 32.3224 13.7042C33.688 12.8161 34.5628 10.8878 35.0543 9.52184C35.174 9.18916 34.6287 8.80154 34.3023 8.93743C33.2822 9.36212 31.9871 9.4628 30.8839 9.10334C29.7195 7.61577 27.9536 6.66699 25.9767 6.66699Z" fill="#F3CB14"/>
</svg>
