<svg width="33" height="34" viewBox="0 0 33 34" fill="none" xmlns="http://www.w3.org/2000/svg">
<path fill-rule="evenodd" clip-rule="evenodd" d="M11.5 3.66634C11.5 5.50729 10.0076 6.99967 8.16667 6.99967C6.32572 6.99967 4.83333 5.50729 4.83333 3.66634C4.83333 1.82539 6.32572 0.333008 8.16667 0.333008C10.0076 0.333008 11.5 1.82539 11.5 3.66634ZM8.16667 6.99967C5.40524 6.99967 3.16667 8.49206 3.16667 10.333C3.16667 12.174 5.40524 13.6663 8.16667 13.6663C10.9281 13.6663 13.1667 12.174 13.1667 10.333C13.1667 8.49206 10.9281 6.99967 8.16667 6.99967ZM26.5 26.9997C28.3409 26.9997 29.8333 25.5073 29.8333 23.6663C29.8333 21.8254 28.3409 20.333 26.5 20.333C24.659 20.333 23.1667 21.8254 23.1667 23.6663C23.1667 25.5073 24.659 26.9997 26.5 26.9997ZM26.5 26.9997C29.2614 26.9997 31.5 28.4921 31.5 30.333C31.5 32.174 29.2614 33.6663 26.5 33.6663C23.7386 33.6663 21.5 32.174 21.5 30.333C21.5 28.4921 23.7386 26.9997 26.5 26.9997ZM15.25 1.99967C15.25 1.30932 15.8096 0.749675 16.5 0.749675C25.4746 0.749675 32.75 8.02505 32.75 16.9997C32.75 17.69 32.1904 18.2497 31.5 18.2497C30.8096 18.2497 30.25 17.69 30.25 16.9997C30.25 9.40576 24.0939 3.24967 16.5 3.24967C15.8096 3.24967 15.25 2.69003 15.25 1.99967ZM1.5 15.7497C2.19036 15.7497 2.75 16.3093 2.75 16.9997C2.75 24.5936 8.90608 30.7497 16.5 30.7497C17.1904 30.7497 17.75 31.3093 17.75 31.9997C17.75 32.69 17.1904 33.2497 16.5 33.2497C7.52537 33.2497 0.25 25.9743 0.25 16.9997C0.25 16.3093 0.809644 15.7497 1.5 15.7497Z" fill="#F3CB14"/>
</svg>
