<svg width="41" height="40" viewBox="0 0 41 40" fill="none" xmlns="http://www.w3.org/2000/svg">
<path fill-rule="evenodd" clip-rule="evenodd" d="M3.8335 11.6667C3.8335 7.98477 6.81826 5 10.5002 5H30.5002C34.1821 5 37.1668 7.98477 37.1668 11.6667V14.1667H30.5002C27.2785 14.1667 24.6668 16.7783 24.6668 20C24.6668 23.2217 27.2785 25.8333 30.5002 25.8333H37.1668V28.3333C37.1668 32.0152 34.1821 35 30.5002 35H10.5002C6.81826 35 3.8335 32.0152 3.8335 28.3333V11.6667ZM30.5002 23.3333H37.1668V16.6667H30.5002C28.6592 16.6667 27.1668 18.159 27.1668 20C27.1668 21.8409 28.6592 23.3333 30.5002 23.3333Z" fill="#F3CB14"/>
</svg>
