<svg width="20" height="20" viewBox="0 0 20 20" fill="none" xmlns="http://www.w3.org/2000/svg">
<path fill-rule="evenodd" clip-rule="evenodd" d="M10.0002 1.875C7.81404 1.875 6.04183 3.64721 6.04183 5.83333V6.04647C4.46651 6.58365 3.3335 8.07618 3.3335 9.83334V13.5C3.3335 15.7091 5.12435 17.5 7.33349 17.5H12.6668C14.876 17.5 16.6668 15.7091 16.6668 13.5V9.83333C16.6668 8.07618 15.5338 6.58365 13.9585 6.04647V5.83333C13.9585 3.64721 12.1863 1.875 10.0002 1.875ZM12.7085 5.83355V5.83333C12.7085 4.33756 11.4959 3.125 10.0002 3.125C8.50439 3.125 7.29183 4.33756 7.29183 5.83333V5.83355C7.3057 5.8334 7.31959 5.83333 7.3335 5.83333H12.6668C12.6807 5.83333 12.6946 5.8334 12.7085 5.83355ZM11.6668 11.6667C11.6668 12.5871 10.9206 13.3333 10.0002 13.3333C9.07969 13.3333 8.3335 12.5871 8.3335 11.6667C8.3335 10.7462 9.07969 10 10.0002 10C10.9206 10 11.6668 10.7462 11.6668 11.6667Z" fill="white"/>
</svg>
