<?xml version="1.0" encoding="UTF-8" standalone="no"?>
<!DOCTYPE svg PUBLIC "-//W3C//DTD SVG 1.1//EN" "http://www.w3.org/Graphics/SVG/1.1/DTD/svg11.dtd">
<svg width="100%" height="100%" viewBox="0 0 686 192" version="1.1" xmlns="http://www.w3.org/2000/svg" xmlns:xlink="http://www.w3.org/1999/xlink" xml:space="preserve" xmlns:serif="http://www.serif.com/" style="fill-rule:evenodd;clip-rule:evenodd;stroke-linejoin:round;stroke-miterlimit:2;">
    <g transform="matrix(1,0,0,1,-617.43,-444.38)">
        <path d="M705.53,538.61L620.78,453.86C619.54,452.62 617.43,453.5 617.43,455.25L617.43,624.75C617.43,626.5 619.55,627.38 620.78,626.14L705.53,541.4C706.3,540.63 706.3,539.39 705.53,538.62L705.53,538.61Z" style="fill-rule:nonzero;"/>
        <path d="M711.65,532.48C712.42,533.25 713.66,533.25 714.43,532.48L799.18,447.74C800.42,446.5 799.54,444.38 797.79,444.38L628.29,444.38C626.54,444.38 625.66,446.5 626.9,447.73L711.65,532.48Z" style="fill-rule:nonzero;"/>
        <path d="M711.66,547.51L678.82,580.36C677.58,581.6 678.46,583.71 680.21,583.71L745.9,583.71C747.65,583.71 748.53,581.59 747.29,580.36L714.44,547.51C713.67,546.74 712.43,546.74 711.66,547.51Z" style="fill-rule:nonzero;"/>
        <path d="M805.32,453.86L768.63,490.56C767.86,491.33 767.86,492.57 768.63,493.34L805.32,530.03C806.56,531.27 808.67,530.39 808.67,528.64L808.67,455.26C808.67,453.51 806.55,452.63 805.31,453.87L805.32,453.86Z" style="fill-rule:nonzero;"/>
        <path d="M745.9,592.39L667.6,592.39C667.08,592.39 666.58,592.6 666.21,592.97L626.91,632.27C625.67,633.51 626.55,635.62 628.3,635.62L706.6,635.62C707.12,635.62 707.62,635.41 707.99,635.04L747.29,595.74C748.53,594.5 747.65,592.39 745.9,592.39Z" style="fill-rule:nonzero;"/>
        <path d="M805.32,549.97L723.02,632.27C721.78,633.51 722.66,635.62 724.41,635.62L806.7,635.62C807.79,635.62 808.67,634.74 808.67,633.65L808.67,551.36C808.67,549.61 806.55,548.73 805.32,549.97Z" style="fill-rule:nonzero;"/>
        <path d="M762.49,580.53L801.64,541.39C802.41,540.62 802.41,539.38 801.64,538.61L762.49,499.46C761.72,498.69 760.48,498.69 759.71,499.46L720.57,538.61C719.8,539.38 719.8,540.62 720.57,541.39L759.71,580.53C760.48,581.3 761.72,581.3 762.49,580.53Z" style="fill-rule:nonzero;"/>
        <path d="M908.29,548.11L924.07,548.11C923.16,553.56 920.82,557.59 917.03,560.2C913.25,562.81 908.78,564.12 903.64,564.12C896.15,564.12 890.34,561.98 886.22,557.71C882.1,553.43 880.03,547.4 880.03,539.61C880.18,532.2 882.09,526.35 885.76,522.08C889.43,517.81 895.12,515.67 902.84,515.67C907.68,515.67 911.96,516.79 915.66,519.02C919.37,521.25 921.83,524.94 923.04,530.09L932.12,528.84C930.61,521.65 927.43,516.19 922.59,512.44C917.75,508.7 911.16,506.82 902.84,506.82C896.48,506.82 890.92,508.13 886.16,510.74C881.39,513.35 877.67,517.13 874.98,522.09C872.29,527.05 870.91,533.08 870.84,540.19C870.76,547.3 871.98,553.3 874.47,558.18C876.97,563.06 880.5,566.79 885.08,569.36C889.66,571.93 895.05,573.22 901.25,573.22C905.86,573.22 909.78,572.46 913,570.95C916.21,569.44 918.75,567.6 920.6,565.45C922.45,563.29 923.76,561.23 924.52,559.26L924.75,559.26L926.91,571.86L933.38,571.86L933.38,540.99L908.3,540.99L908.3,548.14L908.29,548.11Z" style="fill-rule:nonzero;"/>
        <path d="M972.06,534.94L971.83,535.05C971.38,533.84 970.56,532.48 969.39,530.96C968.22,529.45 966.57,528.1 964.45,526.93C962.33,525.76 959.57,525.17 956.17,525.17C949.81,525.17 945.2,527.4 942.32,531.87C939.44,536.33 938.01,542.08 938.01,549.12C938.01,553.74 938.63,557.84 939.88,561.43C941.13,565.02 943.08,567.84 945.72,569.89C948.37,571.93 951.85,572.95 956.16,572.95C959.49,572.95 962.21,572.4 964.33,571.3C966.45,570.2 968.11,568.92 969.32,567.44C970.53,565.96 971.36,564.66 971.82,563.52L972.05,563.63L973.64,571.8L981.7,571.8L981.7,525.16L972.05,525.16L972.05,534.92L972.06,534.94ZM969.28,560.53C967.5,563.44 964.38,564.9 959.92,564.9C955.46,564.9 952.05,563.39 950.16,560.36C948.27,557.33 947.32,553.59 947.32,549.12C947.32,546.25 947.72,543.64 948.51,541.29C949.3,538.95 950.61,537.09 952.43,535.73C954.25,534.37 956.74,533.69 959.92,533.69C964.23,533.69 967.31,535.07 969.17,537.83C971.02,540.59 971.95,544.39 971.95,549.24C971.95,554.09 971.06,557.62 969.28,560.53Z" style="fill-rule:nonzero;"/>
        <path d="M1054,538.07C1053.58,535.91 1052.87,533.87 1051.84,531.94C1050.82,530.01 1049.38,528.44 1047.53,527.23C1045.68,526.02 1043.27,525.41 1040.32,525.41C1037.6,525.41 1035.29,525.88 1033.4,526.83C1031.51,527.78 1029.98,528.91 1028.8,530.23C1027.63,531.55 1026.74,532.78 1026.13,533.92C1025.52,535.05 1025.18,535.81 1025.11,536.19L1024.88,536.19C1024.05,533.32 1022.67,530.8 1020.74,528.64C1018.81,526.48 1015.84,525.41 1011.83,525.41C1009.18,525.41 1006.95,525.88 1005.13,526.83C1003.31,527.78 1001.86,528.91 1000.76,530.23C999.66,531.55 998.87,532.78 998.38,533.92C997.89,535.05 997.57,535.81 997.42,536.19L997.19,536.19L996.96,525.41L988.79,525.41L988.79,571.83L997.19,571.83L997.19,549.7C997.19,547.05 997.53,544.5 998.21,542.04C998.89,539.58 1000.03,537.6 1001.61,536.08C1003.2,534.57 1005.43,533.81 1008.31,533.81C1010.73,533.81 1012.6,534.36 1013.93,535.46C1015.25,536.56 1016.2,537.96 1016.77,539.66C1017.34,541.36 1017.68,543.06 1017.79,544.77C1017.9,546.47 1017.96,547.89 1017.96,549.03L1017.96,571.84L1026.02,571.84L1026.02,549.71C1026.02,547.06 1026.36,544.51 1027.04,542.05C1027.72,539.59 1028.86,537.61 1030.44,536.09C1032.03,534.58 1034.26,533.82 1037.14,533.82C1039.56,533.82 1041.43,534.37 1042.76,535.47C1044.08,536.57 1045.03,537.97 1045.6,539.67C1046.17,541.37 1046.51,543.07 1046.62,544.78C1046.73,546.48 1046.79,547.9 1046.79,549.04L1046.79,571.85L1054.85,571.85L1054.85,549.15C1054.85,547.86 1054.81,546.24 1054.74,544.27C1054.66,542.3 1054.42,540.24 1054,538.08L1054,538.07Z" style="fill-rule:nonzero;"/>
        <path d="M1103.98,546.75C1103.83,542.36 1102.81,538.56 1100.92,535.34C1099.03,532.13 1096.47,529.63 1093.26,527.85C1090.04,526.07 1086.43,525.18 1082.42,525.18C1077.73,525.18 1073.7,526.24 1070.33,528.36C1066.96,530.48 1064.39,533.35 1062.61,536.99C1060.83,540.62 1059.98,544.67 1060.06,549.13C1060.06,553.14 1060.85,556.96 1062.44,560.59C1064.03,564.22 1066.49,567.19 1069.82,569.5C1073.15,571.81 1077.42,572.96 1082.64,572.96C1088.77,572.96 1093.69,571.35 1097.39,568.14C1101.1,564.93 1103.29,560.9 1103.97,556.06L1094.78,556.06C1094.25,558.78 1092.87,560.96 1090.64,562.59C1088.41,564.22 1085.7,565.03 1082.53,565.03C1078.29,565.03 1074.98,563.69 1072.6,561C1070.22,558.31 1069.03,554.44 1069.03,549.37L1104.1,549.37C1104.02,547.86 1103.99,546.99 1103.99,546.76L1103.98,546.75ZM1069.37,545.05C1069.52,543.39 1070.03,541.63 1070.9,539.77C1071.77,537.92 1073.09,536.33 1074.87,535C1076.65,533.68 1079.09,533.01 1082.19,533.01C1084.69,533.01 1086.73,533.46 1088.32,534.37C1089.91,535.28 1091.14,536.39 1092.01,537.72C1092.88,539.04 1093.5,540.39 1093.88,541.75C1094.26,543.11 1094.48,544.21 1094.56,545.04L1069.37,545.04L1069.37,545.05Z" style="fill-rule:nonzero;"/>
        <path d="M1161.04,522.12C1157.79,517.43 1153.23,513.89 1147.36,511.51C1141.5,509.13 1134.63,507.93 1126.76,507.93L1109.51,507.93L1109.51,571.82L1126.76,571.82C1134.63,571.82 1141.49,570.91 1147.36,569.1C1153.22,567.28 1157.78,564.05 1161.04,559.4C1164.29,554.75 1165.92,548.22 1165.92,539.82C1165.92,532.71 1164.29,526.81 1161.04,522.12ZM1152.64,554.92C1150.44,558.4 1147.34,560.76 1143.33,562.01C1139.32,563.26 1134.63,563.88 1129.26,563.88L1118.93,563.88L1118.93,516.1L1129.26,516.1C1137.35,516.1 1143.82,518.05 1148.67,521.94C1153.51,525.84 1155.93,531.76 1155.93,539.7C1155.93,546.36 1154.83,551.43 1152.64,554.91L1152.64,554.92Z" style="fill-rule:nonzero;"/>
        <path d="M1185.55,507.93L1162.91,571.82L1172.9,571.82L1179.03,552.75L1207.98,552.75L1214.11,571.82L1224.21,571.82L1201.11,507.93L1185.55,507.93ZM1181.52,545.27L1193.5,511.9L1205.48,545.27L1181.52,545.27Z" style="fill-rule:nonzero;"/>
        <path d="M1253.1,506.8C1246.06,506.8 1240.22,508.18 1235.57,510.94C1230.92,513.7 1227.44,517.56 1225.13,522.52C1222.82,527.48 1221.67,533.32 1221.67,540.05C1221.67,550.26 1224.36,558.34 1229.73,564.28C1235.1,570.22 1242.89,573.19 1253.11,573.19C1259.92,573.19 1265.65,571.83 1270.3,569.1C1274.95,566.38 1278.47,562.5 1280.85,557.47C1283.23,552.44 1284.43,546.63 1284.43,540.05C1284.43,529.91 1281.76,521.83 1276.43,515.82C1271.1,509.81 1263.32,506.8 1253.11,506.8L1253.1,506.8ZM1269.56,557.42C1265.85,561.88 1260.33,564.12 1252.99,564.12C1248,564.12 1243.85,563.12 1240.56,561.11C1237.27,559.11 1234.83,556.27 1233.24,552.6C1231.65,548.93 1230.86,544.75 1230.86,540.06C1230.86,532.57 1232.73,526.63 1236.48,522.24C1240.23,517.85 1245.73,515.66 1252.99,515.66C1260.25,515.66 1265.95,517.95 1269.62,522.53C1273.29,527.11 1275.12,532.95 1275.12,540.06C1275.12,547.17 1273.27,552.96 1269.56,557.42Z" style="fill-rule:nonzero;"/>
        <path d="M1295.31,558.61C1291.22,558.61 1288,561.93 1288,565.9L1288,565.94C1288,569.91 1291.18,573.19 1295.27,573.19C1299.36,573.19 1302.58,569.87 1302.58,565.9L1302.58,565.86C1302.58,561.89 1299.4,558.61 1295.31,558.61ZM1301.33,565.9C1301.33,569.24 1298.73,571.97 1295.28,571.97C1291.83,571.97 1289.26,569.27 1289.26,565.93L1289.26,565.89C1289.26,562.55 1291.86,559.82 1295.31,559.82C1298.76,559.82 1301.33,562.52 1301.33,565.86L1301.33,565.9Z" style="fill-rule:nonzero;"/>
        <path d="M1297.66,567.33C1297.42,567.33 1297.26,567.43 1297.14,567.53C1296.64,567.95 1296.13,568.19 1295.43,568.19C1294.12,568.19 1293.21,567.1 1293.21,565.81L1293.21,565.77C1293.21,564.46 1294.14,563.39 1295.43,563.39C1296.03,563.39 1296.6,563.63 1297.02,563.95C1297.2,564.09 1297.4,564.17 1297.58,564.17C1298.04,564.17 1298.43,563.79 1298.43,563.3C1298.43,562.98 1298.27,562.74 1298.05,562.57C1297.41,562.09 1296.66,561.76 1295.43,561.76C1293.05,561.76 1291.4,563.57 1291.4,565.77L1291.4,565.81C1291.4,568.03 1293.09,569.78 1295.37,569.78C1296.68,569.78 1297.49,569.38 1298.23,568.71C1298.37,568.59 1298.49,568.39 1298.49,568.13C1298.49,567.69 1298.11,567.3 1297.66,567.3L1297.66,567.33Z" style="fill-rule:nonzero;"/>
    </g>
</svg>
