<?xml version="1.0" encoding="UTF-8"?>
<svg id="Layer_2" data-name="Layer 2" xmlns="http://www.w3.org/2000/svg" viewBox="0 0 278.91 278.91">
  <defs>
    <style>
      .cls-1 {
        fill: #fff;
      }
    </style>
  </defs>
  <g id="Layer_1-2" data-name="Layer 1">
    <path class="cls-1" d="M128.49,137.42L4.89,13.82c-1.8-1.81-4.89-.53-4.89,2.03v247.19c0,2.55,3.09,3.83,4.89,2.03l123.6-123.59c1.12-1.12,1.12-2.94,0-4.05Z"/>
    <path class="cls-1" d="M137.43,128.48c1.12,1.12,2.94,1.12,4.05,0L265.08,4.89c1.81-1.81,.53-4.89-2.03-4.89H15.87c-2.55,0-3.83,3.09-2.03,4.89l123.59,123.59h0Z"/>
    <path class="cls-1" d="M137.43,150.41l-47.9,47.91c-1.8,1.81-.53,4.89,2.03,4.89h95.81c2.55,0,3.83-3.09,2.03-4.89l-47.91-47.91c-1.12-1.12-2.94-1.12-4.05,0Z"/>
    <path class="cls-1" d="M274.02,13.82l-53.5,53.52c-1.12,1.12-1.12,2.94,0,4.05l53.5,53.5c1.8,1.8,4.89,.53,4.89-2.03V15.85c0-2.55-3.09-3.83-4.89-2.03Z"/>
    <path class="cls-1" d="M187.37,215.86H73.18c-.76,0-1.49,.3-2.03,.84l-57.31,57.31c-1.8,1.8-.53,4.89,2.03,4.89h114.18c.76,0,1.49-.3,2.03-.84l57.31-57.31c1.8-1.8,.53-4.89-2.03-4.89Z"/>
    <path class="cls-1" d="M274.01,154.01l-120,120c-1.8,1.8-.53,4.89,2.03,4.89h120c1.58,0,2.87-1.28,2.87-2.87v-120c0-2.55-3.09-3.83-4.89-2.03Z"/>
    <path class="cls-1" d="M211.57,198.56l57.1-57.09c1.12-1.12,1.12-2.94,0-4.05l-57.1-57.1c-1.12-1.12-2.94-1.12-4.05,0l-57.09,57.1c-1.12,1.12-1.12,2.94,0,4.05l57.09,57.09c1.12,1.12,2.94,1.12,4.05,0Z"/>
  </g>
</svg>