<?xml version="1.0" encoding="UTF-8" standalone="no"?>
<!DOCTYPE svg PUBLIC "-//W3C//DTD SVG 1.1//EN" "http://www.w3.org/Graphics/SVG/1.1/DTD/svg11.dtd">
<svg width="100%" height="100%" viewBox="0 0 641 179" version="1.1" xmlns="http://www.w3.org/2000/svg" xmlns:xlink="http://www.w3.org/1999/xlink" xml:space="preserve" xmlns:serif="http://www.serif.com/" style="fill-rule:evenodd;clip-rule:evenodd;stroke-linejoin:round;stroke-miterlimit:2;">
    <g transform="matrix(1,0,0,1,-176.66,-450.58)">
        <g transform="matrix(1,0,0,1,-463,0)">
            <path d="M722.05,538.7L642.8,459.45C641.64,458.29 639.66,459.11 639.66,460.75L639.66,619.24C639.66,620.88 641.64,621.7 642.8,620.54L722.05,541.3C722.77,540.58 722.77,539.42 722.05,538.7Z" style="fill:rgb(232,57,135);fill-rule:nonzero;"/>
        </g>
        <g transform="matrix(1,0,0,1,-463,0)">
            <path d="M727.78,532.96C728.5,533.68 729.66,533.68 730.38,532.96L809.63,453.72C810.79,452.56 809.97,450.58 808.33,450.58L649.84,450.58C648.2,450.58 647.38,452.56 648.54,453.72L727.78,532.96Z" style="fill:rgb(250,205,174);fill-rule:nonzero;"/>
        </g>
        <g transform="matrix(1,0,0,1,-463,0)">
            <path d="M727.78,547.03L697.07,577.75C695.91,578.91 696.73,580.89 698.37,580.89L759.8,580.89C761.44,580.89 762.26,578.91 761.1,577.75L730.38,547.03C729.66,546.31 728.5,546.31 727.78,547.03Z" style="fill:rgb(146,33,80);fill-rule:nonzero;"/>
        </g>
        <g transform="matrix(1,0,0,1,-463,0)">
            <path d="M815.36,459.45L781.06,493.76C780.34,494.48 780.34,495.64 781.06,496.36L815.36,530.66C816.52,531.82 818.5,531 818.5,529.36L818.5,460.74C818.5,459.1 816.52,458.28 815.36,459.44L815.36,459.45Z" style="fill:rgb(200,215,168);fill-rule:nonzero;"/>
        </g>
        <g transform="matrix(1,0,0,1,-463,0)">
            <path d="M759.8,588.99L686.59,588.99C686.1,588.99 685.64,589.18 685.29,589.53L648.54,626.28C647.38,627.44 648.2,629.42 649.84,629.42L723.05,629.42C723.54,629.42 724,629.23 724.35,628.88L761.1,592.13C762.26,590.97 761.44,588.99 759.8,588.99Z" style="fill:rgb(163,183,222);fill-rule:nonzero;"/>
        </g>
        <g transform="matrix(1,0,0,1,-463,0)">
            <path d="M815.36,549.33L738.42,626.27C737.26,627.43 738.08,629.41 739.72,629.41L816.66,629.41C817.67,629.41 818.5,628.59 818.5,627.57L818.5,550.63C818.5,548.99 816.52,548.17 815.36,549.33Z" style="fill:rgb(148,204,178);fill-rule:nonzero;"/>
        </g>
        <g transform="matrix(1,0,0,1,-463,0)">
            <path d="M775.32,577.9L811.93,541.3C812.65,540.58 812.65,539.42 811.93,538.7L775.32,502.09C774.6,501.37 773.44,501.37 772.72,502.09L736.12,538.7C735.4,539.42 735.4,540.58 736.12,541.3L772.72,577.9C773.44,578.62 774.6,578.62 775.32,577.9Z" style="fill:rgb(245,204,18);fill-rule:nonzero;"/>
        </g>
        <g transform="matrix(1,0,0,1,-463,0)">
            <path d="M911.65,547.58L926.4,547.58C925.55,552.67 923.36,556.44 919.82,558.88C916.28,561.32 912.11,562.54 907.3,562.54C900.3,562.54 894.87,560.54 891.01,556.54C887.15,552.54 885.23,546.9 885.23,539.61C885.37,532.68 887.16,527.21 890.59,523.21C894.02,519.21 899.34,517.21 906.56,517.21C911.09,517.21 915.08,518.25 918.55,520.34C922.02,522.43 924.32,525.88 925.45,530.69L933.94,529.52C932.52,522.8 929.55,517.69 925.03,514.19C920.5,510.69 914.35,508.94 906.57,508.94C900.63,508.94 895.43,510.16 890.97,512.6C886.51,515.04 883.03,518.58 880.52,523.21C878.01,527.84 876.72,533.49 876.65,540.14C876.58,546.79 877.71,552.4 880.05,556.96C882.38,561.52 885.69,565.01 889.97,567.41C894.25,569.81 899.29,571.02 905.09,571.02C909.4,571.02 913.07,570.31 916.07,568.9C919.08,567.49 921.45,565.77 923.18,563.75C924.91,561.73 926.13,559.81 926.84,557.97L927.05,557.97L929.07,569.75L935.12,569.75L935.12,540.89L911.67,540.89L911.67,547.58L911.65,547.58Z" style="fill:white;fill-rule:nonzero;"/>
        </g>
        <g transform="matrix(1,0,0,1,-463,0)">
            <path d="M971.28,535.27L971.07,535.38C970.65,534.25 969.88,532.98 968.79,531.56C967.69,530.15 966.15,528.89 964.17,527.79C962.19,526.69 959.61,526.14 956.42,526.14C950.48,526.14 946.16,528.23 943.47,532.4C940.78,536.58 939.44,541.95 939.44,548.53C939.44,552.85 940.02,556.68 941.19,560.04C942.36,563.4 944.18,566.04 946.66,567.95C949.14,569.86 952.39,570.82 956.42,570.82C959.53,570.82 962.08,570.31 964.06,569.28C966.04,568.26 967.6,567.05 968.73,565.67C969.86,564.29 970.64,563.07 971.06,562.01L971.27,562.12L972.76,569.76L980.29,569.76L980.29,526.14L971.27,526.14L971.27,535.27L971.28,535.27ZM968.68,559.2C967.02,561.92 964.1,563.29 959.93,563.29C955.76,563.29 952.57,561.88 950.8,559.05C949.03,556.22 948.15,552.72 948.15,548.54C948.15,545.85 948.52,543.41 949.26,541.22C950,539.03 951.22,537.29 952.92,536.02C954.62,534.75 956.95,534.11 959.92,534.11C963.95,534.11 966.83,535.4 968.57,537.98C970.3,540.56 971.17,544.12 971.17,548.64C971.17,553.16 970.34,556.48 968.68,559.2Z" style="fill:white;fill-rule:nonzero;"/>
        </g>
        <g transform="matrix(1,0,0,1,-463,0)">
            <path d="M1047.9,538.19C1047.51,536.17 1046.84,534.26 1045.88,532.46C1044.92,530.66 1043.58,529.19 1041.85,528.06C1040.12,526.93 1037.87,526.36 1035.11,526.36C1032.56,526.36 1030.4,526.8 1028.64,527.69C1026.87,528.58 1025.44,529.64 1024.34,530.87C1023.24,532.11 1022.41,533.26 1021.85,534.32C1021.28,535.38 1020.96,536.09 1020.89,536.44L1020.68,536.44C1019.9,533.75 1018.61,531.4 1016.81,529.38C1015.01,527.36 1012.23,526.36 1008.48,526.36C1006,526.36 1003.92,526.8 1002.22,527.69C1000.52,528.58 999.16,529.64 998.13,530.87C997.1,532.11 996.36,533.26 995.9,534.32C995.44,535.38 995.14,536.09 995,536.44L994.79,536.44L994.58,526.36L986.94,526.36L986.94,569.76L994.79,569.76L994.79,549.07C994.79,546.59 995.11,544.21 995.75,541.91C996.39,539.61 997.45,537.75 998.93,536.34C1000.42,534.93 1002.5,534.22 1005.19,534.22C1007.45,534.22 1009.2,534.73 1010.44,535.76C1011.68,536.79 1012.56,538.09 1013.09,539.69C1013.62,541.28 1013.94,542.87 1014.05,544.47C1014.16,546.06 1014.21,547.39 1014.21,548.45L1014.21,569.78L1021.74,569.78L1021.74,549.09C1021.74,546.61 1022.06,544.23 1022.7,541.93C1023.34,539.63 1024.4,537.77 1025.88,536.36C1027.37,534.95 1029.45,534.24 1032.14,534.24C1034.4,534.24 1036.15,534.75 1037.39,535.78C1038.63,536.81 1039.51,538.11 1040.04,539.71C1040.57,541.3 1040.89,542.89 1041,544.49C1041.11,546.08 1041.16,547.41 1041.16,548.47L1041.16,569.8L1048.69,569.8L1048.69,548.58C1048.69,547.38 1048.65,545.86 1048.58,544.02C1048.51,542.18 1048.28,540.25 1047.89,538.24L1047.9,538.19Z" style="fill:white;fill-rule:nonzero;"/>
        </g>
        <g transform="matrix(1,0,0,1,-463,0)">
            <path d="M1094.63,546.31C1094.49,542.21 1093.53,538.65 1091.76,535.64C1089.99,532.63 1087.6,530.3 1084.6,528.64C1081.59,526.98 1078.21,526.15 1074.47,526.15C1070.08,526.15 1066.32,527.14 1063.17,529.12C1060.02,531.1 1057.62,533.79 1055.95,537.19C1054.29,540.59 1053.49,544.37 1053.56,548.54C1053.56,552.29 1054.3,555.86 1055.79,559.26C1057.28,562.66 1059.57,565.43 1062.69,567.59C1065.8,569.75 1069.8,570.83 1074.68,570.83C1080.41,570.83 1085.01,569.33 1088.48,566.32C1091.95,563.31 1094,559.55 1094.63,555.02L1086.03,555.02C1085.53,557.57 1084.24,559.6 1082.16,561.12C1080.07,562.64 1077.54,563.4 1074.57,563.4C1070.61,563.4 1067.51,562.15 1065.28,559.63C1063.05,557.12 1061.94,553.49 1061.94,548.75L1094.73,548.75C1094.66,547.34 1094.62,546.52 1094.62,546.31L1094.63,546.31ZM1062.26,544.72C1062.4,543.16 1062.88,541.52 1063.69,539.79C1064.5,538.06 1065.74,536.57 1067.4,535.33C1069.06,534.09 1071.34,533.47 1074.24,533.47C1076.57,533.47 1078.48,533.89 1079.97,534.74C1081.46,535.59 1082.6,536.63 1083.42,537.87C1084.23,539.11 1084.82,540.36 1085.17,541.64C1085.52,542.91 1085.74,543.94 1085.81,544.72L1062.25,544.72L1062.26,544.72Z" style="fill:white;fill-rule:nonzero;"/>
        </g>
        <g transform="matrix(1,0,0,1,-463,0)">
            <path d="M1147.99,523.28C1144.95,518.89 1140.68,515.59 1135.2,513.36C1129.72,511.13 1123.3,510.02 1115.94,510.02L1099.81,510.02L1099.81,569.77L1115.94,569.77C1123.3,569.77 1129.72,568.92 1135.2,567.22C1140.68,565.52 1144.94,562.5 1147.99,558.15C1151.03,553.8 1152.55,547.7 1152.55,539.84C1152.55,533.19 1151.03,527.67 1147.99,523.29L1147.99,523.28ZM1140.14,553.95C1138.09,557.2 1135.19,559.42 1131.44,560.58C1127.69,561.75 1123.3,562.33 1118.28,562.33L1108.62,562.33L1108.62,517.65L1118.28,517.65C1125.85,517.65 1131.9,519.47 1136.43,523.12C1140.96,526.76 1143.22,532.3 1143.22,539.73C1143.22,545.96 1142.19,550.7 1140.14,553.95Z" style="fill:white;fill-rule:nonzero;"/>
        </g>
        <g transform="matrix(1,0,0,1,-463,0)">
            <path d="M1170.91,510.02L1149.74,569.77L1159.08,569.77L1164.81,551.94L1191.88,551.94L1197.61,569.77L1207.05,569.77L1185.45,510.02L1170.91,510.02ZM1167.14,544.93L1178.34,513.73L1189.54,544.93L1167.14,544.93Z" style="fill:white;fill-rule:nonzero;"/>
        </g>
        <g transform="matrix(1,0,0,1,-463,0)">
            <path d="M1234.07,508.96C1227.49,508.96 1222.03,510.25 1217.67,512.83C1213.32,515.41 1210.06,519.02 1207.91,523.65C1205.75,528.28 1204.67,533.75 1204.67,540.05C1204.67,549.6 1207.18,557.15 1212.2,562.71C1217.22,568.26 1224.51,571.04 1234.06,571.04C1240.43,571.04 1245.79,569.77 1250.14,567.22C1254.49,564.67 1257.78,561.05 1260.01,556.34C1262.24,551.64 1263.35,546.21 1263.35,540.05C1263.35,530.57 1260.86,523.02 1255.87,517.39C1250.88,511.77 1243.61,508.95 1234.06,508.95L1234.07,508.96ZM1249.46,556.29C1245.99,560.47 1240.83,562.55 1233.97,562.55C1229.3,562.55 1225.43,561.61 1222.35,559.74C1219.27,557.87 1216.99,555.21 1215.51,551.78C1214.02,548.35 1213.28,544.44 1213.28,540.05C1213.28,533.05 1215.03,527.49 1218.53,523.39C1222.03,519.29 1227.18,517.23 1233.97,517.23C1240.76,517.23 1246.08,519.37 1249.52,523.65C1252.95,527.93 1254.67,533.4 1254.67,540.05C1254.67,546.7 1252.94,552.11 1249.47,556.29L1249.46,556.29Z" style="fill:white;fill-rule:nonzero;"/>
        </g>
        <g transform="matrix(1,0,0,1,-463,0)">
            <path d="M1273.53,557.4C1269.71,557.4 1266.69,560.51 1266.69,564.22L1266.69,564.26C1266.69,567.97 1269.67,571.04 1273.49,571.04C1277.31,571.04 1280.33,567.93 1280.33,564.22L1280.33,564.18C1280.33,560.47 1277.35,557.4 1273.53,557.4ZM1279.16,564.22C1279.16,567.34 1276.73,569.9 1273.5,569.9C1270.27,569.9 1267.87,567.38 1267.87,564.26L1267.87,564.22C1267.87,561.1 1270.3,558.54 1273.53,558.54C1276.76,558.54 1279.16,561.06 1279.16,564.18L1279.16,564.22Z" style="fill:white;fill-rule:nonzero;"/>
        </g>
        <g transform="matrix(1,0,0,1,-463,0)">
            <path d="M1275.74,565.55C1275.51,565.55 1275.36,565.64 1275.25,565.74C1274.78,566.14 1274.31,566.36 1273.65,566.36C1272.43,566.36 1271.58,565.34 1271.58,564.14L1271.58,564.1C1271.58,562.88 1272.45,561.88 1273.65,561.88C1274.22,561.88 1274.74,562.11 1275.14,562.41C1275.31,562.54 1275.5,562.62 1275.67,562.62C1276.1,562.62 1276.46,562.26 1276.46,561.81C1276.46,561.51 1276.31,561.28 1276.1,561.13C1275.5,560.68 1274.8,560.38 1273.65,560.38C1271.43,560.38 1269.88,562.08 1269.88,564.13L1269.88,564.17C1269.88,566.24 1271.46,567.88 1273.59,567.88C1274.81,567.88 1275.57,567.5 1276.26,566.88C1276.39,566.77 1276.5,566.58 1276.5,566.33C1276.5,565.92 1276.14,565.56 1275.73,565.56L1275.74,565.55Z" style="fill:white;fill-rule:nonzero;"/>
        </g>
    </g>
</svg>
