{
	"buffers":[{
		"uri":"data:application/octet-stream;base64,",
		"byteLength":2184
	},
	{
		"uri":"data:application/octet-stream;base64,",
		"byteLength":11544
	},
	{
		"uri":"data:application/octet-stream;base64,",
		"byteLength":278232
	}],
	"asset":{
		"version":"2.0",
		"generator":"Created using the official Cinema 4D glTF Exporter 1.000x284978"
	},
	"nodes":[{
		"name":"sticker",
		"mesh":0,
		"translation":[0.0,
		2.5832550525665285,
		2.0761144161224367],
		"rotation":[0.0,
		0.0,
		0.0,
		-1.0],
		"scale":[1.0,
		1.0,
		1.0]
	},
	{
		"name":"pack",
		"translation":[1.1295864243976439e-9,
		-0.30322206020355227,
		-2.1059696209135838e-8],
		"rotation":[-0.7071067690849304,
		-6.143906006172983e-8,
		6.143906006172983e-8,
		-0.7071067690849304],
		"scale":[0.9252169728279114,
		0.9635760188102722,
		0.6064419746398926],
		"children":[2,
		3]
	},
	{
		"name":"pack-backside",
		"mesh":1
	},
	{
		"name":"pack-pack",
		"mesh":2
	}],
	"scenes":[{
		"nodes":[0,
		1]
	}],
	"meshes":[{
		"name":"sticker",
		"primitives":[{
			"attributes":{
				"POSITION":1,
				"NORMAL":2
			},
			"indices":0,
			"material":0
		}]
	},
	{
		"name":"pack-backside",
		"primitives":[{
			"attributes":{
				"POSITION":4,
				"NORMAL":5
			},
			"indices":3,
			"material":1
		}]
	},
	{
		"name":"pack-pack",
		"primitives":[{
			"attributes":{
				"POSITION":7,
				"NORMAL":8
			},
			"indices":6,
			"material":2
		}]
	}],
	"accessors":[{
		"bufferView":0,
		"type":"SCALAR",
		"count":300,
		"componentType":5123,
		"byteOffset":0,
		"min":[0],
		"max":[65]
	},
	{
		"bufferView":1,
		"type":"VEC3",
		"count":66,
		"componentType":5126,
		"byteOffset":0,
		"min":[-17.5,
		0.0,
		-27.5],
		"max":[17.5,
		1.025138020515442,
		27.5]
	},
	{
		"bufferView":1,
		"type":"VEC3",
		"count":66,
		"componentType":5126,
		"byteOffset":12,
		"min":[-0.047938279807567599,
		0.995868444442749,
		-0.08544014394283295],
		"max":[0.047938279807567599,
		1.0,
		0.08544014394283295]
	},
	{
		"bufferView":2,
		"type":"SCALAR",
		"count":1728,
		"componentType":5123,
		"byteOffset":0,
		"min":[0],
		"max":[336]
	},
	{
		"bufferView":3,
		"type":"VEC3",
		"count":337,
		"componentType":5126,
		"byteOffset":0,
		"min":[-27.657638549804689,
		-32.17910385131836,
		-0.6874619722366333],
		"max":[27.468639373779298,
		36.86277770996094,
		5.405544757843018]
	},
	{
		"bufferView":3,
		"type":"VEC3",
		"count":337,
		"componentType":5126,
		"byteOffset":12,
		"min":[-0.9204641580581665,
		-0.9689744114875794,
		0.24706394970417024],
		"max":[0.9244969487190247,
		0.956580400466919,
		0.9999929666519165]
	},
	{
		"bufferView":4,
		"type":"SCALAR",
		"count":46176,
		"componentType":5123,
		"byteOffset":0,
		"min":[0],
		"max":[7744]
	},
	{
		"bufferView":5,
		"type":"VEC3",
		"count":7745,
		"componentType":5126,
		"byteOffset":0,
		"min":[-27.67500877380371,
		-35.73301315307617,
		-6.411684989929199],
		"max":[27.49823570251465,
		40.44469451904297,
		0.23169654607772828]
	},
	{
		"bufferView":5,
		"type":"VEC3",
		"count":7745,
		"componentType":5126,
		"byteOffset":12,
		"min":[-0.9999994039535523,
		-1.0,
		-0.9999994039535523],
		"max":[0.9999990463256836,
		0.9999984502792358,
		0.9999994039535523]
	}],
	"bufferViews":[{
		"buffer":0,
		"byteOffset":0,
		"byteLength":600,
		"target":34963
	},
	{
		"buffer":0,
		"byteOffset":600,
		"byteLength":1584,
		"target":34962,
		"byteStride":24
	},
	{
		"buffer":1,
		"byteOffset":0,
		"byteLength":3456,
		"target":34963
	},
	{
		"buffer":1,
		"byteOffset":3456,
		"byteLength":8088,
		"target":34962,
		"byteStride":24
	},
	{
		"buffer":2,
		"byteOffset":0,
		"byteLength":92352,
		"target":34963
	},
	{
		"buffer":2,
		"byteOffset":92352,
		"byteLength":185880,
		"target":34962,
		"byteStride":24
	}],
	"materials":[{
		"pbrMetallicRoughness":{
			"baseColorFactor":[0.7999999999999998,
			0.0,
			1.0,
			1.0],
			"metallicFactor":0.0,
			"roughnessFactor":0.5
		},
		"emissiveFactor":[0.0,
		0.0,
		0.0],
		"alphaMode":"OPAQUE",
		"doubleSided":false,
		"name":"sticker"
	},
	{
		"pbrMetallicRoughness":{
			"baseColorFactor":[0.8,
			0.8,
			0.8,
			1.0],
			"metallicFactor":0.0,
			"roughnessFactor":0.5
		},
		"emissiveFactor":[0.0,
		0.0,
		0.0],
		"alphaMode":"OPAQUE",
		"doubleSided":false,
		"name":"backside"
	},
	{
		"pbrMetallicRoughness":{
			"baseColorFactor":[0.8,
			0.0,
			0.0,
			1.0],
			"metallicFactor":0.0,
			"roughnessFactor":0.5
		},
		"emissiveFactor":[0.0,
		0.0,
		0.0],
		"alphaMode":"OPAQUE",
		"doubleSided":false,
		"name":"pack"
	}]
}