<?xml version="1.0" encoding="UTF-8" standalone="no"?>
<!DOCTYPE svg PUBLIC "-//W3C//DTD SVG 1.1//EN" "http://www.w3.org/Graphics/SVG/1.1/DTD/svg11.dtd">
<svg width="100%" height="100%" viewBox="0 0 5484 1951" version="1.1" xmlns="http://www.w3.org/2000/svg" xmlns:xlink="http://www.w3.org/1999/xlink" xml:space="preserve" xmlns:serif="http://www.serif.com/" style="fill-rule:evenodd;clip-rule:evenodd;stroke-linejoin:round;stroke-miterlimit:2;">
    <g transform="matrix(1,0,0,1,-41807.4,18332.9)">
        <path d="M42329.4,-17351.5C42407,-17351.5 42487,-17340 42569.5,-17317C42610.5,-17305.5 42649,-17292.2 42684.9,-17277C42720.8,-17261.8 42754.2,-17244.8 42785,-17225.9L42584.3,-16943.3C42500.6,-16983.6 42423.4,-17003.7 42352.8,-17003.7C42305.6,-17003.7 42267.7,-16991.4 42238.9,-16966.7C42210.2,-16942.9 42195.8,-16910.7 42195.8,-16870.1C42195.8,-16830.3 42207.9,-16801.2 42232.2,-16783C42256.4,-16764.7 42294.3,-16755.6 42346,-16755.6L42346,-16902.7L42762.2,-16902.7L42762.2,-16396.1L42557.2,-16386.2C42523.9,-16384.6 42495.8,-16383.5 42472.9,-16382.8C42449.9,-16382.2 42431.8,-16381.9 42418.7,-16381.9C42284.1,-16381.9 42174.3,-16398.3 42089.3,-16431.2C42005.6,-16463.6 41937.5,-16519.6 41885,-16599.2C41833.2,-16678.4 41807.4,-16768.7 41807.4,-16870.1C41807.4,-16960.4 41828.7,-17043.3 41871.4,-17118.8C41913.7,-17193.5 41974.2,-17250.9 42053,-17291.2C42131.4,-17331.4 42223.5,-17351.5 42329.4,-17351.5ZM46115.5,-16454.5L46216.5,-16766.7C46245.2,-16721.5 46281.5,-16685.2 46325.4,-16657.7C46369,-16630.2 46411,-16616.5 46451.6,-16616.5C46471.8,-16616.5 46488.5,-16621.5 46501.8,-16631.5C46515.2,-16641.6 46521.8,-16654.2 46521.8,-16669.4C46521.8,-16687.5 46512.5,-16703.2 46493.8,-16716.5C46475.1,-16729.8 46446.1,-16744.1 46406.7,-16759.3C46309.9,-16795.8 46243.4,-16835.4 46207.3,-16878.1C46171.6,-16921.2 46153.7,-16973.9 46153.7,-17036.3C46153.7,-17141 46191.5,-17219.6 46267,-17272.4C46342.5,-17325.1 46454.5,-17351.5 46603.1,-17351.5C46635.1,-17351.5 46667.5,-17349.9 46700.3,-17346.9C46733.2,-17343.8 46767,-17339.4 46801.9,-17333.6C46836.8,-17327.9 46869,-17321.3 46898.6,-17313.9C46928.1,-17306.5 46955.2,-17298.1 46979.8,-17288.7L46876.4,-16992.6C46844,-17036.1 46807.9,-17069.8 46768.1,-17093.9C46728.3,-17117.9 46686.6,-17129.9 46643.1,-17129.9C46617.2,-17129.9 46598.6,-17124.6 46587.1,-17114.2C46575.6,-17103.7 46569.8,-17090.7 46569.8,-17075.1C46569.8,-17060.3 46581,-17046.1 46603.4,-17032.6C46625.8,-17019.1 46660.3,-17003.5 46707.1,-16985.8C46829,-16941.1 46907.8,-16896.6 46943.5,-16852.2C46978.4,-16808.7 46995.8,-16755 46995.8,-16691C46995.8,-16591.2 46958,-16514.8 46882.3,-16461.6C46806.5,-16408.5 46693.8,-16381.9 46544,-16381.9C46466,-16381.9 46391.9,-16387.3 46321.8,-16397.9C46251.8,-16408.6 46183,-16426.8 46115.5,-16452.5L46115.5,-16397.3L45335.5,-16397.3L45335.5,-17336.7L46115.5,-17336.7L46115.5,-17100.9L45751,-17100.9L45751,-16984.6L46004.7,-16984.6L46004.7,-16748.8L45751,-16748.8L45751,-16633.1L46115.5,-16633.1L46115.5,-16454.5ZM44460.7,-17336.7L44630.6,-17141L44801.1,-17336.7L45204.3,-17336.7L45204.3,-16397.3L44788.2,-16397.3L44788.2,-16867.6L44630.6,-16686L44473,-16867.6L44473,-16397.3L44056.9,-16397.3L44056.9,-17336.7L44460.7,-17336.7ZM43689.9,-17336.7L44016.2,-16397.3L43600.7,-16397.3L43546.5,-16556.1L43241.2,-16556.1L43187,-16397.3L42770.8,-16397.3L43097.1,-17336.7L43689.9,-17336.7ZM43316.9,-16777.8L43470.8,-16777.8L43395.1,-17007.4L43392.6,-17007.4L43316.9,-16777.8ZM42427.3,-18332.9C42541,-18332.9 42629,-18309.9 42691.4,-18263.9C42754.6,-18217.9 42786.2,-18153.5 42786.2,-18070.6C42786.2,-18023.4 42775.6,-17983.5 42754.5,-17950.9C42733.4,-17918.2 42703.1,-17890.9 42663.7,-17868.7C42712.1,-17843.2 42748.8,-17813.6 42773.9,-17779.7C42798.9,-17745.9 42811.4,-17703.7 42811.4,-17653.2C42811.4,-17572.4 42782.9,-17509 42725.9,-17463C42668.4,-17416.6 42591.9,-17393.5 42496.2,-17393.5L41833.9,-17393.5L41833.9,-18332.9L42427.3,-18332.9ZM43668.4,-18332.9L43668.4,-18097.1L43304,-18097.1L43304,-17980.7L43557.6,-17980.7L43557.6,-17745L43304,-17745L43304,-17629.2L43668.4,-17629.2L43668.4,-17393.5L42888.4,-17393.5L42888.4,-18332.9L43668.4,-18332.9ZM46184.5,-18332.9L46184.5,-18097.1L45820,-18097.1L45820,-17980.7L46073.7,-17980.7L46073.7,-17745L45820,-17745L45820,-17629.2L46184.5,-17629.2L46184.5,-17393.5L45404.5,-17393.5L45404.5,-18332.9L46184.5,-18332.9ZM44300.7,-17916.7L44300.7,-17393.5L43884.5,-17393.5L43884.5,-17916.7L43675.2,-17916.7L43675.2,-18332.9L45339.8,-18332.9L45339.8,-17916.7L45130.5,-17916.7L45130.5,-17393.5L44714.4,-17393.5L44714.4,-17916.7L44300.7,-17916.7ZM46880.8,-18332.9C46947.7,-18332.9 47007.2,-18320.1 47059.3,-18294.7C47111.4,-18269.7 47150.6,-18235.4 47176.9,-18191.9C47203.1,-18149.2 47216.3,-18102.4 47216.3,-18051.5C47216.3,-18008 47207.1,-17968.6 47188.9,-17933.3C47170.6,-17898 47144,-17868.1 47109.2,-17843.5C47160.5,-17785.6 47201.2,-17719 47231.3,-17643.7C47261.5,-17568.4 47281.3,-17485 47290.8,-17393.5L46859.2,-17393.5C46850.6,-17517.4 46832.3,-17606.2 46804.4,-17660C46776.5,-17714.2 46734.7,-17741.3 46678.8,-17741.3L46676.4,-17741.3L46676.4,-17393.5L46260.9,-17393.5L46260.9,-18332.9L46880.8,-18332.9ZM42250,-17600.3L42267.2,-17600.3C42312.4,-17600.3 42345,-17607.7 42365.1,-17622.5C42385.2,-17637.2 42395.3,-17662.3 42395.3,-17697.6C42395.3,-17768.1 42356.5,-17803.4 42278.9,-17803.4L42250,-17803.4L42250,-17600.3ZM46676.4,-17958.6L46686.2,-17958.6C46726,-17958.6 46755,-17965.5 46773,-17979.5C46791.1,-17993.5 46800.1,-18015.8 46800.1,-18046.6C46800.1,-18074.9 46791.7,-18097.5 46774.9,-18114.3C46758.1,-18131.1 46733.4,-18139.6 46701,-18139.6L46676.4,-18139.6L46676.4,-17958.6ZM42250,-17961L42261.7,-17961C42284.3,-17961 42303.4,-17962.7 42319,-17966C42334.5,-17969.2 42347.3,-17974.6 42357.1,-17982C42367,-17989.3 42374,-17998.9 42378.4,-18010.6C42382.7,-18022.3 42384.8,-18036.3 42384.8,-18052.8C42384.8,-18084.8 42375.5,-18108 42356.8,-18122.3C42338.1,-18136.7 42311.6,-18143.9 42277.1,-18143.9L42250,-18143.9L42250,-17961Z" style="fill:rgb(239,0,255);fill-rule:nonzero;"/>
    </g>
</svg>
