<?xml version="1.0" encoding="UTF-8" standalone="no"?>
<!DOCTYPE svg PUBLIC "-//W3C//DTD SVG 1.1//EN" "http://www.w3.org/Graphics/SVG/1.1/DTD/svg11.dtd">
<svg width="100%" height="100%" viewBox="0 0 2763 401" version="1.1" xmlns="http://www.w3.org/2000/svg" xmlns:xlink="http://www.w3.org/1999/xlink" xml:space="preserve" xmlns:serif="http://www.serif.com/" style="fill-rule:evenodd;clip-rule:evenodd;stroke-linejoin:round;stroke-miterlimit:2;">
    <g transform="matrix(1,0,0,1,-5303.81,-6790.54)">
        <g transform="matrix(1.31449,0,0,1.26355,5439.66,-761.807)">
            <g transform="matrix(280.605,0,0,280.605,343,6235)">
                <path d="M0.422,0.012C0.537,0.012 0.65,-0.022 0.713,-0.093L0.713,-0.43L0.419,-0.43L0.419,-0.281L0.558,-0.281L0.558,-0.176C0.528,-0.152 0.476,-0.142 0.42,-0.142C0.281,-0.142 0.196,-0.234 0.196,-0.355C0.196,-0.47 0.281,-0.568 0.41,-0.568C0.491,-0.568 0.549,-0.535 0.589,-0.492L0.701,-0.601C0.633,-0.676 0.536,-0.722 0.41,-0.722C0.19,-0.722 0.036,-0.557 0.036,-0.355C0.036,-0.147 0.201,0.012 0.422,0.012Z" style="fill-rule:nonzero;"/>
            </g>
            <g transform="matrix(280.605,0,0,280.605,588.53,6235)">
                <path d="M-0.001,-0L0.165,-0L0.228,-0.15L0.522,-0.15L0.585,-0L0.751,-0L0.447,-0.71L0.303,-0.71L-0.001,-0ZM0.286,-0.288L0.375,-0.502L0.464,-0.288L0.286,-0.288Z" style="fill-rule:nonzero;"/>
            </g>
            <g transform="matrix(280.605,0,0,280.605,835.462,6235)">
                <path d="M0.442,-0.151L0.649,-0.438L0.649,-0L0.809,-0L0.809,-0.71L0.664,-0.71L0.442,-0.404L0.22,-0.71L0.075,-0.71L0.075,-0L0.234,-0L0.234,-0.438L0.442,-0.151Z" style="fill-rule:nonzero;"/>
            </g>
            <g transform="matrix(280.605,0,0,280.605,1120,6235)">
                <path d="M0.075,-0L0.525,-0L0.525,-0.152L0.234,-0.152L0.234,-0.279L0.465,-0.279L0.465,-0.431L0.234,-0.431L0.234,-0.558L0.525,-0.558L0.525,-0.71L0.075,-0.71L0.075,-0Z" style="fill-rule:nonzero;"/>
            </g>
            <g transform="matrix(280.605,0,0,280.605,1316.7,6235)">
                <path d="M0.075,-0L0.317,-0C0.517,-0 0.679,-0.158 0.679,-0.355C0.679,-0.552 0.517,-0.71 0.317,-0.71L0.075,-0.71L0.075,-0ZM0.234,-0.146L0.234,-0.564L0.317,-0.564C0.437,-0.564 0.518,-0.469 0.518,-0.355C0.518,-0.241 0.437,-0.146 0.317,-0.146L0.234,-0.146Z" style="fill-rule:nonzero;"/>
            </g>
            <g transform="matrix(280.605,0,0,280.605,1544.55,6235)">
                <path d="M-0.001,-0L0.165,-0L0.228,-0.15L0.522,-0.15L0.585,-0L0.751,-0L0.447,-0.71L0.303,-0.71L-0.001,-0ZM0.286,-0.288L0.375,-0.502L0.464,-0.288L0.286,-0.288Z" style="fill-rule:nonzero;"/>
            </g>
            <g transform="matrix(280.605,0,0,280.605,1782.51,6235)">
                <path d="M0.402,0.012C0.604,0.012 0.769,-0.153 0.769,-0.355C0.769,-0.557 0.604,-0.722 0.402,-0.722C0.199,-0.722 0.035,-0.557 0.035,-0.355C0.035,-0.153 0.199,0.012 0.402,0.012ZM0.402,-0.142C0.286,-0.142 0.195,-0.24 0.195,-0.355C0.195,-0.47 0.286,-0.568 0.402,-0.568C0.517,-0.568 0.608,-0.47 0.608,-0.355C0.608,-0.24 0.517,-0.142 0.402,-0.142Z" style="fill-rule:nonzero;"/>
            </g>
        </g>
        <g transform="matrix(0.390625,0,0,0.390625,1830.12,4079.88)">
            <g transform="matrix(2.13334,0,0,2.13334,8904.65,7463.3)">
                <path d="M0,234.368L468.737,234.368L234.368,0L0,234.368Z" style="fill:rgb(241,194,0);fill-rule:nonzero;"/>
            </g>
            <g transform="matrix(2.13334,0,0,2.13334,8892.64,7471.79)">
                <path d="M0,224.753L112.377,112.377L0,0L0,224.753Z" style="fill:rgb(33,255,60);fill-rule:nonzero;"/>
            </g>
            <g transform="matrix(2.13334,0,0,2.13334,9164.9,7439.27)">
                <path d="M0,-112.377L224.753,-112.377L112.376,0L0,-112.377Z" style="fill:rgb(242,0,17);"/>
            </g>
            <g transform="matrix(1.50849,-1.5085,-1.5085,-1.50849,8968.87,7626.81)">
                <rect x="34.081" y="-82.278" width="164.555" height="164.556" style="fill:rgb(241,252,0);"/>
            </g>
            <g transform="matrix(2.13334,0,0,2.13334,8892.64,7430.77)">
                <path d="M0,-230.386L0,0L230.385,-230.386L0,-230.386Z" style="fill:rgb(13,242,201);fill-rule:nonzero;"/>
            </g>
            <g transform="matrix(-1.5085,1.5085,1.5085,1.5085,9710.29,7057.39)">
                <path d="M60.999,-139.292L222.255,-139.292L57.698,25.265L-103.559,25.267L60.999,-139.292Z" style="fill:rgb(26,128,255);fill-rule:nonzero;"/>
            </g>
            <g transform="matrix(2.13334,0,0,2.13334,9416.65,7451.28)">
                <path d="M0,0L234.368,234.368L234.368,-234.368L0,0Z" style="fill:rgb(255,0,255);fill-rule:nonzero;"/>
            </g>
        </g>
    </g>
</svg>
