<?xml version="1.0" encoding="UTF-8" standalone="no"?>
<!DOCTYPE svg PUBLIC "-//W3C//DTD SVG 1.1//EN" "http://www.w3.org/Graphics/SVG/1.1/DTD/svg11.dtd">
<svg width="100%" height="100%" viewBox="0 0 1055 1055" version="1.1" xmlns="http://www.w3.org/2000/svg" xmlns:xlink="http://www.w3.org/1999/xlink" xml:space="preserve" xmlns:serif="http://www.serif.com/" style="fill-rule:evenodd;clip-rule:evenodd;stroke-linecap:square;stroke-miterlimit:1.5;">
    <g transform="matrix(1,0,0,1,-11541.3,-2664.92)">
        <g transform="matrix(1,0,0,1,11044.3,2167.94)">
            <g transform="matrix(1,0,0,1,-9.51629,-34.4631)">
                <g transform="matrix(-3.00796e-16,1.08373,-1.08373,-3.00796e-16,4617.52,-4061.54)">
                    <path d="M4251.97,2834.65L5196.85,2834.65L4724.41,3307.09L4251.97,2834.65Z" style="fill:rgb(34,255,244);stroke:white;stroke-width:15.38px;"/>
                </g>
                <g transform="matrix(-1.08373,-2.40637e-16,2.40637e-16,-1.08373,6153.52,4642.46)">
                    <path d="M4251.97,2834.65L5196.85,2834.65L4724.41,3307.09L4251.97,2834.65Z" style="fill:rgb(34,255,244);stroke:white;stroke-width:15.38px;"/>
                </g>
                <g transform="matrix(1.20319e-16,-0.541867,0.541867,1.20319e-16,-1014.48,3874.46)">
                    <path d="M4251.97,2834.65L5196.85,2834.65L4724.41,3307.09L4251.97,2834.65Z" style="fill:rgb(34,255,244);stroke:white;stroke-width:30.76px;"/>
                </g>
                <g transform="matrix(0.541867,1.80478e-16,-1.80478e-16,0.541867,-1526.48,-733.537)">
                    <path d="M4251.97,2834.65L5196.85,2834.65L4724.41,3307.09L4251.97,2834.65Z" style="fill:rgb(34,255,244);stroke:white;stroke-width:30.76px;"/>
                </g>
                <g transform="matrix(-3.00796e-16,1.08373,-1.08373,-3.00796e-16,4617.52,-5085.54)">
                    <path d="M5669.29,3307.09L5905.51,3543.31L5669.29,3779.53L5433.07,3543.31L5669.29,3307.09Z" style="fill:rgb(34,255,244);stroke:white;stroke-width:15.38px;"/>
                </g>
                <g transform="matrix(-3.00796e-16,1.08373,-1.08373,-3.00796e-16,4617.52,-4061.54)">
                    <path d="M4724.41,3779.53L4251.97,3779.53L4251.97,3307.09L4724.41,3779.53Z" style="fill:rgb(34,255,244);stroke:white;stroke-width:15.38px;"/>
                </g>
                <g transform="matrix(-3.00796e-16,1.08373,-1.08373,-3.00796e-16,4617.52,-4061.54)">
                    <path d="M4251.97,2834.65L4488.19,3070.87L4488.19,3543.31L4251.97,3307.09L4251.97,2834.65Z" style="fill:rgb(34,255,244);stroke:white;stroke-width:15.38px;"/>
                </g>
            </g>
        </g>
    </g>
</svg>
