<?xml version="1.0" encoding="UTF-8" standalone="no"?>
<!DOCTYPE svg PUBLIC "-//W3C//DTD SVG 1.1//EN" "http://www.w3.org/Graphics/SVG/1.1/DTD/svg11.dtd">
<svg width="100%" height="100%" viewBox="0 0 3802 2032" version="1.1" xmlns="http://www.w3.org/2000/svg" xmlns:xlink="http://www.w3.org/1999/xlink" xml:space="preserve" xmlns:serif="http://www.serif.com/" style="fill-rule:evenodd;clip-rule:evenodd;stroke-linejoin:round;stroke-miterlimit:2;">
    <g transform="matrix(1,0,0,1,-22388.3,21225.9)">
        <g transform="matrix(4.37184,0,0,4.37184,-15969.7,-23176.2)">
            <path d="M8873.01,448.418L8873.01,538.548C8873.01,557.482 8871.85,570.169 8869.53,576.609C8867.22,583.114 8862.55,588.33 8855.53,592.258C8848.44,596.251 8840.04,598.248 8830.31,598.248C8816.98,598.248 8805.1,594.963 8794.67,588.394C8784.3,581.761 8777.38,572.842 8773.9,561.636C8777.76,562.409 8782.43,562.795 8787.91,562.795C8795.83,562.795 8801.08,561.7 8803.65,559.51C8806.35,557.321 8807.71,552.33 8807.71,544.537L8807.71,448.418L8873.01,448.418Z" style="fill:url(#_Linear1);fill-rule:nonzero;"/>
            <path d="M9035.31,448.418L9035.31,516.619C9035.31,525.313 9034.6,533.267 9033.18,540.48C9031.77,547.693 9029.63,554.213 9026.76,560.042C9023.89,565.87 9020.29,571.087 9015.94,575.691C9011.59,580.296 9006.46,584.337 9000.53,587.815C8988.75,594.77 8975.87,598.248 8961.89,598.248C8948.82,598.248 8936.36,595.028 8924.51,588.588C8912.72,582.147 8903.77,573.26 8897.65,561.926C8891.66,550.655 8888.67,534.652 8888.67,513.914L8888.67,448.418L8953.97,448.418L8953.97,517.875C8953.97,523.8 8954.52,527.922 8955.61,530.24C8956.77,532.43 8958.8,533.525 8961.7,533.525C8963.44,533.525 8964.84,533.138 8965.9,532.365C8966.96,531.593 8967.8,530.369 8968.41,528.695C8969.02,527.02 8969.44,524.863 8969.67,522.222C8969.89,519.582 8970.01,516.394 8970.01,512.659L8970.01,448.418L9035.31,448.418Z" style="fill:url(#_Linear2);fill-rule:nonzero;"/>
            <path d="M9118.68,446.1C9123.71,446.1 9128.8,446.342 9133.95,446.825C9139.1,447.308 9144.41,448 9149.89,448.902C9155.36,449.803 9160.42,450.834 9165.05,451.993C9169.69,453.152 9173.94,454.472 9177.81,455.953L9161.58,502.419C9156.49,495.592 9150.82,490.295 9144.57,486.528C9138.33,482.76 9131.79,480.877 9124.96,480.877C9120.91,480.877 9117.98,481.698 9116.17,483.34C9114.37,484.982 9113.47,487.027 9113.47,489.474C9113.47,491.793 9115.22,494.015 9118.73,496.14C9122.24,498.265 9127.67,500.712 9135.01,503.481C9154.14,510.501 9166.5,517.489 9172.1,524.444C9177.58,531.271 9180.32,539.707 9180.32,549.754C9180.32,565.403 9174.38,577.398 9162.49,585.738C9150.61,594.078 9132.92,598.248 9109.41,598.248C9097.17,598.248 9085.55,597.411 9074.54,595.736C9063.52,594.062 9052.7,591.196 9042.08,587.139L9058.02,537.872C9062.53,544.956 9068.23,550.655 9075.12,554.97C9081.94,559.285 9088.55,561.443 9094.92,561.443C9098.08,561.443 9100.7,560.654 9102.79,559.076C9104.89,557.498 9105.93,555.518 9105.93,553.135C9105.93,550.301 9104.47,547.838 9101.54,545.745C9098.61,543.652 9094.05,541.414 9087.87,539.031C9072.67,533.299 9062.24,527.085 9056.57,520.387C9050.97,513.625 9048.17,505.349 9048.17,495.56C9048.17,479.138 9054.09,466.789 9065.94,458.513C9077.79,450.238 9095.37,446.1 9118.68,446.1Z" style="fill:url(#_Linear3);fill-rule:nonzero;"/>
            <path d="M9310.54,448.418L9310.54,513.721L9277.7,513.721L9277.7,595.833L9212.4,595.833L9212.4,513.721L9179.55,513.721L9179.55,448.418L9310.54,448.418Z" style="fill:url(#_Linear4);fill-rule:nonzero;"/>
            <path d="M8880.26,604.737C8898.09,604.737 8911.91,608.343 8921.7,615.556C8931.62,622.769 8936.58,632.88 8936.58,645.889C8936.58,653.295 8934.92,659.558 8931.6,664.678C8928.28,669.798 8923.53,674.097 8917.35,677.574C8924.95,681.567 8930.71,686.22 8934.64,691.533C8938.57,696.847 8940.53,703.464 8940.53,711.385C8940.53,724.072 8936.06,734.022 8927.11,741.235C8918.09,748.512 8906.08,752.151 8891.08,752.151L8787.13,752.151L8787.13,604.737L8880.26,604.737ZM8852.43,663.084L8854.27,663.084C8857.81,663.084 8860.81,662.827 8863.25,662.311C8865.7,661.796 8867.7,660.959 8869.24,659.8C8870.79,658.641 8871.9,657.143 8872.58,655.308C8873.25,653.472 8873.59,651.267 8873.59,648.691C8873.59,643.667 8872.12,640.029 8869.19,637.775C8866.26,635.521 8862.09,634.394 8856.68,634.394L8852.43,634.394L8852.43,663.084ZM8852.43,719.693L8855.14,719.693C8862.22,719.693 8867.34,718.534 8870.5,716.215C8873.66,713.897 8875.23,709.968 8875.23,704.43C8875.23,693.353 8869.15,687.814 8856.98,687.814L8852.43,687.814L8852.43,719.693Z" style="fill:url(#_Linear5);fill-rule:nonzero;"/>
            <path d="M9075.01,604.737L9075.01,641.735L9017.82,641.735L9017.82,659.993L9057.62,659.993L9057.62,696.991L9017.82,696.991L9017.82,715.153L9075.01,715.153L9075.01,752.151L8952.62,752.151L8952.62,604.737L9075.01,604.737Z" style="fill:url(#_Linear6);fill-rule:nonzero;"/>
            <path d="M9207.08,604.737L9207.08,670.04L9174.23,670.04L9174.23,752.151L9108.93,752.151L9108.93,670.04L9076.08,670.04L9076.08,604.737L9207.08,604.737Z" style="fill:url(#_Linear7);fill-rule:nonzero;"/>
            <path d="M9337.3,604.737L9337.3,670.04L9304.46,670.04L9304.46,752.151L9239.15,752.151L9239.15,670.04L9206.31,670.04L9206.31,604.737L9337.3,604.737Z" style="fill:url(#_Linear8);fill-rule:nonzero;"/>
            <path d="M9469.85,604.737L9469.85,641.735L9412.66,641.735L9412.66,659.993L9452.46,659.993L9452.46,696.991L9412.66,696.991L9412.66,715.153L9469.85,715.153L9469.85,752.151L9347.45,752.151L9347.45,604.737L9469.85,604.737Z" style="fill:url(#_Linear9);fill-rule:nonzero;"/>
            <path d="M9579.11,604.737C9589.61,604.737 9598.95,606.733 9607.13,610.726C9615.31,614.655 9621.45,620.032 9625.58,626.859C9629.7,633.556 9631.76,640.898 9631.76,648.884C9631.76,655.71 9630.33,661.893 9627.46,667.431C9624.59,672.97 9620.43,677.671 9614.95,681.535C9623,690.616 9629.39,701.065 9634.13,712.882C9638.86,724.7 9641.97,737.79 9643.45,752.151L9575.73,752.151C9574.38,732.702 9571.51,718.759 9567.13,710.322C9562.75,701.822 9556.18,697.571 9547.43,697.571L9547.04,697.571L9547.04,752.151L9481.83,752.151L9481.83,604.737L9579.11,604.737ZM9547.04,663.471L9548.59,663.471C9554.83,663.471 9559.37,662.376 9562.21,660.186C9565.04,657.997 9566.46,654.487 9566.46,649.657C9566.46,645.213 9565.14,641.671 9562.5,639.03C9559.85,636.39 9555.99,635.07 9550.9,635.07L9547.04,635.07L9547.04,663.471Z" style="fill:url(#_Linear10);fill-rule:nonzero;"/>
            <path d="M8864.9,758.737C8877.07,758.737 8889.63,760.54 8902.57,764.146C8909.01,765.95 8915.05,768.043 8920.68,770.425C8926.32,772.808 8931.55,775.481 8936.38,778.443L8904.89,822.784C8891.75,816.472 8879.64,813.317 8868.57,813.317C8861.16,813.317 8855.2,815.249 8850.7,819.113C8846.19,822.848 8843.93,827.903 8843.93,834.279C8843.93,840.526 8845.83,845.082 8849.63,847.948C8853.43,850.814 8859.39,852.247 8867.5,852.247L8867.5,829.159L8932.81,829.159L8932.81,908.663L8900.64,910.208C8895.42,910.466 8891.01,910.643 8887.4,910.739C8883.8,910.836 8880.96,910.884 8878.9,910.884C8857.78,910.884 8840.55,908.308 8827.22,903.156C8814.08,898.069 8803.39,889.278 8795.15,876.784C8787.03,864.355 8782.98,850.186 8782.98,834.279C8782.98,820.111 8786.33,807.102 8793.02,795.252C8799.66,783.531 8809.16,774.515 8821.52,768.204C8833.82,761.892 8848.28,758.737 8864.9,758.737Z" style="fill:url(#_Linear11);fill-rule:nonzero;"/>
            <path d="M9078.39,761.055L9129.59,908.469L9064.39,908.469L9055.89,883.546L9007.97,883.546L8999.47,908.469L8934.17,908.469L8985.37,761.055L9078.39,761.055ZM9019.85,848.769L9044,848.769L9032.12,812.737L9031.74,812.737L9019.85,848.769Z" style="fill:url(#_Linear12);fill-rule:nonzero;"/>
            <path d="M9199.35,761.055L9226.01,791.774L9252.77,761.055L9316.04,761.055L9316.04,908.469L9250.74,908.469L9250.74,834.666L9226.01,863.163L9201.28,834.666L9201.28,908.469L9135.98,908.469L9135.98,761.055L9199.35,761.055Z" style="fill:url(#_Linear13);fill-rule:nonzero;"/>
            <path d="M9459.02,761.055L9459.02,798.054L9401.83,798.054L9401.83,816.311L9441.63,816.311L9441.63,853.31L9401.83,853.31L9401.83,871.471L9459.02,871.471L9459.02,908.469L9336.63,908.469L9336.63,761.055L9459.02,761.055Z" style="fill:url(#_Linear14);fill-rule:nonzero;"/>
            <path d="M9535.54,758.737C9540.56,758.737 9545.65,758.978 9550.8,759.461C9555.95,759.944 9561.26,760.636 9566.74,761.538C9572.21,762.44 9577.27,763.47 9581.91,764.629C9586.54,765.789 9590.79,767.109 9594.66,768.59L9578.43,815.055C9573.34,808.229 9567.67,802.932 9561.43,799.164C9555.18,795.397 9548.64,793.513 9541.82,793.513C9537.76,793.513 9534.83,794.334 9533.02,795.977C9531.22,797.619 9530.32,799.664 9530.32,802.111C9530.32,804.429 9532.08,806.651 9535.59,808.776C9539.09,810.902 9544.52,813.349 9551.86,816.118C9570.99,823.138 9583.35,830.125 9588.96,837.081C9594.43,843.907 9597.17,852.344 9597.17,862.39C9597.17,878.04 9591.23,890.034 9579.34,898.374C9567.46,906.714 9549.77,910.884 9526.26,910.884C9514.03,910.884 9502.4,910.047 9491.39,908.373C9480.38,906.698 9469.56,903.832 9458.93,899.775L9474.87,850.508C9479.38,857.592 9485.08,863.292 9491.97,867.607C9498.8,871.922 9505.4,874.079 9511.77,874.079C9514.93,874.079 9517.55,873.29 9519.65,871.712C9521.74,870.135 9522.78,868.154 9522.78,865.771C9522.78,862.938 9521.32,860.474 9518.39,858.381C9515.46,856.288 9510.9,854.05 9504.72,851.667C9489.52,845.936 9479.09,839.721 9473.42,833.023C9467.82,826.261 9465.02,817.986 9465.02,808.197C9465.02,791.774 9470.94,779.426 9482.79,771.15C9494.64,762.874 9512.22,758.737 9535.54,758.737Z" style="fill:url(#_Linear15);fill-rule:nonzero;"/>
        </g>
    </g>
    <defs>
        <linearGradient id="_Linear1" x1="0" y1="0" x2="1" y2="0" gradientUnits="userSpaceOnUse" gradientTransform="matrix(869.551,0,0,464.784,8773.9,678.492)"><stop offset="0" style="stop-color:rgb(141,13,242);stop-opacity:1"/><stop offset="1" style="stop-color:rgb(242,13,32);stop-opacity:1"/></linearGradient>
        <linearGradient id="_Linear2" x1="0" y1="0" x2="1" y2="0" gradientUnits="userSpaceOnUse" gradientTransform="matrix(869.551,0,0,464.784,8773.9,678.492)"><stop offset="0" style="stop-color:rgb(141,13,242);stop-opacity:1"/><stop offset="1" style="stop-color:rgb(242,13,32);stop-opacity:1"/></linearGradient>
        <linearGradient id="_Linear3" x1="0" y1="0" x2="1" y2="0" gradientUnits="userSpaceOnUse" gradientTransform="matrix(869.551,0,0,464.784,8773.9,678.492)"><stop offset="0" style="stop-color:rgb(141,13,242);stop-opacity:1"/><stop offset="1" style="stop-color:rgb(242,13,32);stop-opacity:1"/></linearGradient>
        <linearGradient id="_Linear4" x1="0" y1="0" x2="1" y2="0" gradientUnits="userSpaceOnUse" gradientTransform="matrix(869.551,0,0,464.784,8773.9,678.492)"><stop offset="0" style="stop-color:rgb(141,13,242);stop-opacity:1"/><stop offset="1" style="stop-color:rgb(242,13,32);stop-opacity:1"/></linearGradient>
        <linearGradient id="_Linear5" x1="0" y1="0" x2="1" y2="0" gradientUnits="userSpaceOnUse" gradientTransform="matrix(869.551,0,0,464.784,8773.9,678.492)"><stop offset="0" style="stop-color:rgb(141,13,242);stop-opacity:1"/><stop offset="1" style="stop-color:rgb(242,13,32);stop-opacity:1"/></linearGradient>
        <linearGradient id="_Linear6" x1="0" y1="0" x2="1" y2="0" gradientUnits="userSpaceOnUse" gradientTransform="matrix(869.551,0,0,464.784,8773.9,678.492)"><stop offset="0" style="stop-color:rgb(141,13,242);stop-opacity:1"/><stop offset="1" style="stop-color:rgb(242,13,32);stop-opacity:1"/></linearGradient>
        <linearGradient id="_Linear7" x1="0" y1="0" x2="1" y2="0" gradientUnits="userSpaceOnUse" gradientTransform="matrix(869.551,0,0,464.784,8773.9,678.492)"><stop offset="0" style="stop-color:rgb(141,13,242);stop-opacity:1"/><stop offset="1" style="stop-color:rgb(242,13,32);stop-opacity:1"/></linearGradient>
        <linearGradient id="_Linear8" x1="0" y1="0" x2="1" y2="0" gradientUnits="userSpaceOnUse" gradientTransform="matrix(869.551,0,0,464.784,8773.9,678.492)"><stop offset="0" style="stop-color:rgb(141,13,242);stop-opacity:1"/><stop offset="1" style="stop-color:rgb(242,13,32);stop-opacity:1"/></linearGradient>
        <linearGradient id="_Linear9" x1="0" y1="0" x2="1" y2="0" gradientUnits="userSpaceOnUse" gradientTransform="matrix(869.551,0,0,464.784,8773.9,678.492)"><stop offset="0" style="stop-color:rgb(141,13,242);stop-opacity:1"/><stop offset="1" style="stop-color:rgb(242,13,32);stop-opacity:1"/></linearGradient>
        <linearGradient id="_Linear10" x1="0" y1="0" x2="1" y2="0" gradientUnits="userSpaceOnUse" gradientTransform="matrix(869.551,0,0,464.784,8773.9,678.492)"><stop offset="0" style="stop-color:rgb(141,13,242);stop-opacity:1"/><stop offset="1" style="stop-color:rgb(242,13,32);stop-opacity:1"/></linearGradient>
        <linearGradient id="_Linear11" x1="0" y1="0" x2="1" y2="0" gradientUnits="userSpaceOnUse" gradientTransform="matrix(869.551,0,0,464.784,8773.9,678.492)"><stop offset="0" style="stop-color:rgb(141,13,242);stop-opacity:1"/><stop offset="1" style="stop-color:rgb(242,13,32);stop-opacity:1"/></linearGradient>
        <linearGradient id="_Linear12" x1="0" y1="0" x2="1" y2="0" gradientUnits="userSpaceOnUse" gradientTransform="matrix(869.551,0,0,464.784,8773.9,678.492)"><stop offset="0" style="stop-color:rgb(141,13,242);stop-opacity:1"/><stop offset="1" style="stop-color:rgb(242,13,32);stop-opacity:1"/></linearGradient>
        <linearGradient id="_Linear13" x1="0" y1="0" x2="1" y2="0" gradientUnits="userSpaceOnUse" gradientTransform="matrix(869.551,0,0,464.784,8773.9,678.492)"><stop offset="0" style="stop-color:rgb(141,13,242);stop-opacity:1"/><stop offset="1" style="stop-color:rgb(242,13,32);stop-opacity:1"/></linearGradient>
        <linearGradient id="_Linear14" x1="0" y1="0" x2="1" y2="0" gradientUnits="userSpaceOnUse" gradientTransform="matrix(869.551,0,0,464.784,8773.9,678.492)"><stop offset="0" style="stop-color:rgb(141,13,242);stop-opacity:1"/><stop offset="1" style="stop-color:rgb(242,13,32);stop-opacity:1"/></linearGradient>
        <linearGradient id="_Linear15" x1="0" y1="0" x2="1" y2="0" gradientUnits="userSpaceOnUse" gradientTransform="matrix(869.551,0,0,464.784,8773.9,678.492)"><stop offset="0" style="stop-color:rgb(141,13,242);stop-opacity:1"/><stop offset="1" style="stop-color:rgb(242,13,32);stop-opacity:1"/></linearGradient>
    </defs>
</svg>
