<?xml version="1.0" encoding="UTF-8" standalone="no"?>
<!DOCTYPE svg PUBLIC "-//W3C//DTD SVG 1.1//EN" "http://www.w3.org/Graphics/SVG/1.1/DTD/svg11.dtd">
<svg width="100%" height="100%" viewBox="0 0 487 99" version="1.1" xmlns="http://www.w3.org/2000/svg" xmlns:xlink="http://www.w3.org/1999/xlink" xml:space="preserve" xmlns:serif="http://www.serif.com/" style="fill-rule:evenodd;clip-rule:evenodd;stroke-linejoin:round;stroke-miterlimit:2;">
    <g transform="matrix(1,0,0,1,0.469954,0.5)">
        <path d="M121.38,0.35C121.289,0.139 121.08,0.001 120.85,0L14.71,0C14.397,0 14.14,0.257 14.14,0.57L14.14,20.57C14.145,20.879 14.401,21.13 14.71,21.13L71.2,21.13L0.2,92.13C0.037,92.288 -0.014,92.53 0.07,92.74C0.157,92.955 0.368,93.094 0.6,93.09L106.71,93.09C107.019,93.09 107.275,92.839 107.28,92.53L107.28,72.53C107.28,72.217 107.023,71.96 106.71,71.96L50.22,71.96L121.22,0.96C121.391,0.808 121.454,0.567 121.38,0.35Z" style="fill:none;fill-rule:nonzero;stroke:white;stroke-width:1px;"/>
        <path d="M233.27,0.57C233.27,0.255 233.015,0 232.7,0L140.71,0C140.395,0 140.14,0.255 140.14,0.57L140.14,20.56C140.14,20.875 140.395,21.13 140.71,21.13L232.7,21.13C233.015,21.13 233.27,20.875 233.27,20.56L233.27,0.57Z" style="fill:none;stroke:white;stroke-width:1px;"/>
        <path d="M233.27,72.57C233.27,72.255 233.015,72 232.7,72L140.71,72C140.395,72 140.14,72.255 140.14,72.57L140.14,92.56C140.14,92.875 140.395,93.13 140.71,93.13L232.7,93.13C233.015,93.13 233.27,92.875 233.27,92.56L233.27,72.57Z" style="fill:none;stroke:white;stroke-width:1px;"/>
        <path d="M233.27,36.57C233.27,36.255 233.015,36 232.7,36L140.71,36C140.395,36 140.14,36.255 140.14,36.57L140.14,56.56C140.14,56.875 140.395,57.13 140.71,57.13L232.7,57.13C233.015,57.13 233.27,56.875 233.27,56.56L233.27,36.57Z" style="fill:none;stroke:white;stroke-width:1px;"/>
        <path d="M364.38,0.35C364.289,0.139 364.08,0.001 363.85,0L257.71,0C257.397,0 257.14,0.257 257.14,0.57L257.14,20.57C257.145,20.879 257.401,21.13 257.71,21.13L314.2,21.13L253.2,82.13C253.09,82.234 253.028,82.379 253.03,82.53C253.031,82.681 253.092,82.825 253.2,82.93L267.34,97.07C267.445,97.178 267.589,97.239 267.74,97.24C267.89,97.237 268.034,97.176 268.14,97.07L303.74,61.47L339.34,97.07C339.445,97.178 339.589,97.239 339.74,97.24C339.89,97.237 340.034,97.176 340.14,97.07L354.25,83C354.358,82.895 354.419,82.751 354.42,82.6C354.422,82.449 354.36,82.304 354.25,82.2L318.65,46.6L364.25,1C364.427,0.834 364.48,0.572 364.38,0.35Z" style="fill:none;fill-rule:nonzero;stroke:white;stroke-width:1px;"/>
        <path d="M484.71,0L392.71,0C392.397,0 392.14,0.257 392.14,0.57L392.14,92.57C392.145,92.879 392.401,93.13 392.71,93.13L484.71,93.13C485.019,93.13 485.275,92.879 485.28,92.57L485.28,0.57C485.28,0.257 485.023,0 484.71,-0ZM413.28,72L413.28,21.13L464.14,21.13L464.14,72L413.28,72Z" style="fill:none;fill-rule:nonzero;stroke:white;stroke-width:1px;"/>
    </g>
</svg>
