<?xml version="1.0" encoding="UTF-8" standalone="no"?>
<!DOCTYPE svg PUBLIC "-//W3C//DTD SVG 1.1//EN" "http://www.w3.org/Graphics/SVG/1.1/DTD/svg11.dtd">
<svg width="100%" height="100%" viewBox="0 0 1018 1025" version="1.1" xmlns="http://www.w3.org/2000/svg" xmlns:xlink="http://www.w3.org/1999/xlink" xml:space="preserve" xmlns:serif="http://www.serif.com/" style="fill-rule:evenodd;clip-rule:evenodd;stroke-linejoin:round;stroke-miterlimit:2;">
    <g transform="matrix(1,0,0,1,-2.80049,0.5)">
        <g transform="matrix(1,0,0,1,3.30049,-5.68434e-14)">
            <g transform="matrix(9.72296,0,0,9.72296,430.679,509.652)">
                <path d="M0,-0.269L-4.779,-5.048C-4.815,-5.084 -4.864,-5.105 -4.915,-5.105C-4.966,-5.105 -5.015,-5.084 -5.051,-5.049L-18.549,8.45L-18.549,-25.498C-18.549,-25.575 -18.596,-25.644 -18.667,-25.674C-18.69,-25.684 -18.716,-25.689 -18.74,-25.689C-18.79,-25.689 -18.839,-25.669 -18.876,-25.632L-44.239,-0.27C-44.274,-0.234 -44.295,-0.185 -44.295,-0.134C-44.295,-0.083 -44.274,-0.035 -44.238,0.002L-39.459,4.781C-39.422,4.818 -39.373,4.836 -39.324,4.836C-39.274,4.836 -39.226,4.818 -39.188,4.78L-25.69,-8.717L-25.69,25.229C-25.69,25.306 -25.644,25.377 -25.572,25.406C-25.549,25.416 -25.523,25.42 -25.499,25.42C-25.449,25.42 -25.4,25.401 -25.363,25.365L0,0.002C0.074,-0.074 0.074,-0.195 0,-0.269" style="fill:none;fill-rule:nonzero;stroke:white;stroke-width:0.1px;"/>
            </g>
            <g transform="matrix(9.72296,0,0,9.72296,556.127,216.929)">
                <path d="M0,-17.476L-4.778,-22.254C-4.815,-22.292 -4.864,-22.311 -4.914,-22.311C-4.963,-22.311 -5.012,-22.292 -5.049,-22.254L-27.032,-0.271C-27.107,-0.197 -27.107,-0.075 -27.032,-0L-22.254,4.779C-22.217,4.816 -22.168,4.835 -22.118,4.835C-22.069,4.835 -22.021,4.816 -21.983,4.779L0,-17.205C0.075,-17.28 0.075,-17.401 0,-17.476" style="fill:none;fill-rule:nonzero;stroke:white;stroke-width:0.1px;"/>
            </g>
            <g transform="matrix(9.72296,0,0,9.72296,723.412,384.203)">
                <path d="M0,-17.475L-4.779,-22.254C-4.816,-22.292 -4.865,-22.311 -4.914,-22.311C-4.964,-22.311 -5.013,-22.292 -5.05,-22.254L-27.033,-0.271C-27.108,-0.196 -27.108,-0.075 -27.033,-0L-22.254,4.779C-22.217,4.817 -22.168,4.836 -22.119,4.836C-22.069,4.836 -22.021,4.817 -21.983,4.779L0,-17.204C0.075,-17.279 0.075,-17.401 0,-17.475" style="fill:none;fill-rule:nonzero;stroke:white;stroke-width:0.1px;"/>
            </g>
            <g transform="matrix(9.72296,0,0,9.72296,639.769,300.571)">
                <path d="M0,-17.476L-4.778,-22.254C-4.815,-22.292 -4.864,-22.311 -4.914,-22.311C-4.963,-22.311 -5.012,-22.292 -5.049,-22.254L-27.033,-0.271C-27.107,-0.197 -27.107,-0.076 -27.033,-0L-22.254,4.778C-22.217,4.816 -22.168,4.835 -22.119,4.835C-22.069,4.835 -22.021,4.816 -21.983,4.778L0,-17.205C0.075,-17.28 0.075,-17.402 0,-17.476" style="fill:none;fill-rule:nonzero;stroke:white;stroke-width:0.1px;"/>
            </g>
            <g transform="matrix(9.72296,0,0,9.72296,687.577,810.26)">
                <path d="M0,-2.364L-17.013,-2.364L-17.013,-24.156C-17.013,-24.233 -17.06,-24.302 -17.132,-24.333C-17.155,-24.343 -17.18,-24.347 -17.205,-24.347C-17.255,-24.347 -17.304,-24.328 -17.34,-24.291L-42.703,1.072C-42.777,1.147 -42.777,1.268 -42.703,1.342L-37.924,6.121C-37.888,6.157 -37.839,6.178 -37.788,6.178C-37.737,6.178 -37.688,6.157 -37.652,6.121L-24.155,-7.377L-24.155,21.791C-24.155,21.897 -24.069,21.983 -23.963,21.983L-17.205,21.983C-17.099,21.983 -17.013,21.897 -17.013,21.791L-17.013,4.779L0,4.779C0.106,4.779 0.191,4.693 0.191,4.586L0.191,-2.172C0.191,-2.278 0.106,-2.364 0,-2.364" style="fill:none;fill-rule:nonzero;stroke:white;stroke-width:0.1px;"/>
            </g>
            <g transform="matrix(9.72296,0,0,9.72296,801.09,390.178)">
                <path d="M0,24.309L-12.154,12.154L0,-0.001L12.154,12.154L0,24.309ZM22.119,12.018L0.136,-9.965C0.098,-10.003 0.049,-10.021 0,-10.021C-0.049,-10.021 -0.098,-10.003 -0.135,-9.965L-22.119,12.018C-22.155,12.054 -22.176,12.103 -22.176,12.154C-22.176,12.205 -22.155,12.253 -22.119,12.289L-0.135,34.273C-0.098,34.311 -0.049,34.33 0,34.33C0.049,34.33 0.098,34.311 0.136,34.273L22.119,12.289C22.194,12.214 22.194,12.093 22.119,12.018" style="fill:none;fill-rule:nonzero;stroke:white;stroke-width:0.1px;"/>
            </g>
        </g>
    </g>
</svg>
