<?xml version="1.0" encoding="UTF-8" standalone="no"?>
<!DOCTYPE svg PUBLIC "-//W3C//DTD SVG 1.1//EN" "http://www.w3.org/Graphics/SVG/1.1/DTD/svg11.dtd">
<svg width="100%" height="100%" viewBox="0 0 1920 1080" version="1.1" xmlns="http://www.w3.org/2000/svg" xmlns:xlink="http://www.w3.org/1999/xlink" xml:space="preserve" xmlns:serif="http://www.serif.com/" style="fill-rule:evenodd;clip-rule:evenodd;stroke-linejoin:round;stroke-miterlimit:2;">
    <g>
        <path d="M946.95,502.82L863.01,418.88C861.78,417.65 859.69,418.52 859.69,420.26L859.69,588.13C859.69,589.86 861.79,590.73 863.01,589.51L946.95,505.58C947.71,504.82 947.71,503.59 946.95,502.83L946.95,502.82Z" style="fill-rule:nonzero;"/>
        <path d="M953.02,496.75C953.78,497.51 955.01,497.51 955.77,496.75L1039.71,412.82C1040.94,411.59 1040.07,409.5 1038.33,409.5L870.47,409.5C868.74,409.5 867.87,411.6 869.09,412.82L953.02,496.75Z" style="fill-rule:nonzero;"/>
        <path d="M953.02,511.64L920.49,544.18C919.26,545.41 920.13,547.5 921.87,547.5L986.93,547.5C988.66,547.5 989.53,545.4 988.31,544.18L955.77,511.64C955.01,510.88 953.78,510.88 953.02,511.64Z" style="fill-rule:nonzero;"/>
        <path d="M1045.78,418.88L1009.45,455.22C1008.69,455.98 1008.69,457.21 1009.45,457.97L1045.78,494.3C1047.01,495.53 1049.1,494.66 1049.1,492.92L1049.1,420.24C1049.1,418.51 1047,417.64 1045.78,418.86L1045.78,418.88Z" style="fill-rule:nonzero;"/>
        <path d="M986.94,556.09L909.4,556.09C908.88,556.09 908.39,556.3 908.02,556.66L869.1,595.58C867.87,596.81 868.74,598.9 870.48,598.9L948.02,598.9C948.54,598.9 949.03,598.69 949.4,598.33L988.32,559.41C989.55,558.18 988.68,556.09 986.94,556.09Z" style="fill-rule:nonzero;"/>
        <path d="M1045.79,514.07L964.29,595.57C963.06,596.8 963.93,598.89 965.67,598.89L1047.16,598.89C1048.24,598.89 1049.11,598.02 1049.11,596.94L1049.11,515.45C1049.11,513.72 1047.01,512.85 1045.79,514.07Z" style="fill-rule:nonzero;"/>
        <path d="M1003.37,544.34L1042.15,505.57C1042.91,504.81 1042.91,503.58 1042.15,502.82L1003.37,464.04C1002.61,463.28 1001.38,463.28 1000.62,464.04L961.85,502.82C961.09,503.58 961.09,504.81 961.85,505.57L1000.62,544.34C1001.38,545.1 1002.61,545.1 1003.37,544.34Z" style="fill-rule:nonzero;"/>
    </g>
    <g>
        <path d="M851.06,655.19L860.69,655.19C860.14,658.52 858.7,660.98 856.39,662.57C854.08,664.16 851.35,664.96 848.21,664.96C843.64,664.96 840.09,663.66 837.57,661.04C835.05,658.43 833.79,654.74 833.79,649.99C833.88,645.46 835.05,641.89 837.29,639.28C839.53,636.67 843.01,635.36 847.72,635.36C850.68,635.36 853.29,636.04 855.55,637.4C857.81,638.76 859.31,641.02 860.05,644.16L865.59,643.4C864.67,639.01 862.72,635.67 859.77,633.39C856.81,631.1 852.79,629.96 847.71,629.96C843.83,629.96 840.43,630.76 837.52,632.35C834.61,633.94 832.33,636.25 830.69,639.28C829.05,642.31 828.21,645.99 828.16,650.33C828.11,654.67 828.85,658.33 830.38,661.31C831.9,664.29 834.06,666.57 836.86,668.14C839.65,669.71 842.95,670.5 846.73,670.5C849.55,670.5 851.94,670.04 853.9,669.11C855.86,668.19 857.41,667.07 858.54,665.75C859.67,664.43 860.47,663.18 860.93,661.97L861.07,661.97L862.39,669.66L866.34,669.66L866.34,650.81L851.03,650.81L851.03,655.18L851.06,655.19Z" style="fill-rule:nonzero;"/>
        <path d="M890,647.15L889.86,647.22C889.58,646.48 889.09,645.65 888.37,644.73C887.65,643.81 886.65,642.99 885.36,642.27C884.07,641.55 882.38,641.2 880.3,641.2C876.42,641.2 873.6,642.56 871.85,645.29C870.09,648.02 869.22,651.53 869.22,655.82C869.22,658.64 869.6,661.14 870.36,663.34C871.12,665.53 872.31,667.26 873.93,668.5C875.55,669.75 877.67,670.37 880.31,670.37C882.34,670.37 884.01,670.03 885.3,669.37C886.59,668.7 887.61,667.91 888.35,667.01C889.09,666.11 889.6,665.31 889.87,664.62L890.01,664.69L890.98,669.68L895.9,669.68L895.9,641.2L890.01,641.2L890.01,647.16L890,647.15ZM888.3,662.78C887.21,664.56 885.31,665.45 882.58,665.45C879.85,665.45 877.77,664.53 876.62,662.68C875.46,660.83 874.89,658.55 874.89,655.82C874.89,654.06 875.13,652.47 875.62,651.04C876.11,649.61 876.9,648.48 878.01,647.64C879.12,646.81 880.64,646.39 882.58,646.39C885.21,646.39 887.1,647.23 888.23,648.92C889.36,650.61 889.93,652.93 889.93,655.88C889.93,658.83 889.39,661 888.3,662.77L888.3,662.78Z" style="fill-rule:nonzero;"/>
        <path d="M940.03,649.06C939.78,647.74 939.34,646.5 938.71,645.32C938.09,644.14 937.21,643.18 936.08,642.44C934.95,641.7 933.48,641.33 931.68,641.33C930.02,641.33 928.61,641.62 927.45,642.2C926.29,642.78 925.36,643.47 924.64,644.28C923.92,645.09 923.38,645.84 923.01,646.53C922.64,647.22 922.43,647.69 922.39,647.92L922.25,647.92C921.74,646.16 920.9,644.63 919.72,643.31C918.54,641.99 916.73,641.34 914.28,641.34C912.66,641.34 911.3,641.63 910.19,642.21C909.08,642.79 908.19,643.48 907.52,644.29C906.85,645.1 906.36,645.85 906.06,646.54C905.76,647.23 905.56,647.7 905.47,647.93L905.33,647.93L905.19,641.35L900.2,641.35L900.2,669.69L905.33,669.69L905.33,656.18C905.33,654.56 905.54,653 905.95,651.5C906.37,650 907.06,648.79 908.03,647.86C909,646.94 910.36,646.47 912.12,646.47C913.6,646.47 914.74,646.81 915.55,647.47C916.36,648.14 916.94,648.99 917.28,650.03C917.63,651.07 917.83,652.11 917.9,653.15C917.97,654.19 918,655.06 918,655.75L918,669.68L922.92,669.68L922.92,656.17C922.92,654.55 923.13,652.99 923.54,651.49C923.96,649.99 924.65,648.78 925.62,647.85C926.59,646.93 927.95,646.46 929.71,646.46C931.19,646.46 932.33,646.8 933.14,647.46C933.95,648.13 934.53,648.98 934.87,650.02C935.22,651.06 935.42,652.1 935.49,653.14C935.56,654.18 935.59,655.05 935.59,655.74L935.59,669.67L940.51,669.67L940.51,655.81C940.51,655.02 940.49,654.03 940.44,652.83C940.39,651.63 940.24,650.37 939.99,649.05L940.03,649.06Z" style="fill-rule:nonzero;"/>
        <path d="M970.55,654.36C970.46,651.68 969.83,649.36 968.68,647.4C967.52,645.44 965.97,643.91 964,642.83C962.04,641.75 959.83,641.2 957.38,641.2C954.51,641.2 952.06,641.85 950,643.14C947.94,644.43 946.37,646.19 945.29,648.41C944.2,650.63 943.68,653.1 943.73,655.82C943.73,658.27 944.22,660.6 945.19,662.82C946.16,665.04 947.66,666.85 949.69,668.26C951.72,669.67 954.33,670.37 957.52,670.37C961.26,670.37 964.26,669.39 966.53,667.42C968.79,665.46 970.13,663 970.55,660.04L964.94,660.04C964.62,661.7 963.77,663.03 962.41,664.02C961.05,665.01 959.4,665.51 957.46,665.51C954.87,665.51 952.85,664.69 951.4,663.05C949.94,661.41 949.22,659.04 949.22,655.95L970.63,655.95C970.58,655.03 970.56,654.49 970.56,654.36L970.55,654.36ZM949.41,653.32C949.5,652.3 949.81,651.23 950.35,650.1C950.88,648.97 951.69,648 952.78,647.19C953.86,646.38 955.35,645.98 957.25,645.98C958.77,645.98 960.02,646.26 960.99,646.81C961.96,647.36 962.71,648.05 963.24,648.85C963.77,649.66 964.15,650.48 964.38,651.31C964.61,652.14 964.75,652.81 964.8,653.32L949.41,653.32Z" style="fill-rule:nonzero;"/>
        <path d="M1005.39,639.32C1003.4,636.46 1000.62,634.3 997.04,632.84C993.46,631.38 989.27,630.66 984.46,630.66L973.93,630.66L973.93,669.67L984.46,669.67C989.26,669.67 993.46,669.12 997.04,668.01C1000.62,666.9 1003.4,664.93 1005.39,662.09C1007.38,659.25 1008.37,655.26 1008.37,650.14C1008.37,645.8 1007.38,642.19 1005.39,639.33L1005.39,639.32ZM1000.26,659.35C998.92,661.48 997.03,662.92 994.58,663.68C992.13,664.44 989.27,664.82 985.99,664.82L979.68,664.82L979.68,635.65L985.99,635.65C990.93,635.65 994.88,636.84 997.84,639.22C1000.8,641.6 1002.27,645.21 1002.27,650.06C1002.27,654.13 1001.6,657.22 1000.26,659.35Z" style="fill-rule:nonzero;"/>
        <path d="M1020.35,630.66L1006.52,669.67L1012.62,669.67L1016.36,658.03L1034.03,658.03L1037.77,669.67L1043.94,669.67L1029.84,630.66L1020.35,630.66ZM1017.89,653.46L1025.2,633.09L1032.51,653.46L1017.88,653.46L1017.89,653.46Z" style="fill-rule:nonzero;"/>
        <path d="M1061.6,629.97C1057.3,629.97 1053.73,630.81 1050.89,632.5C1048.05,634.19 1045.92,636.54 1044.51,639.57C1043.1,642.6 1042.4,646.17 1042.4,650.28C1042.4,656.52 1044.04,661.45 1047.32,665.07C1050.6,668.7 1055.36,670.51 1061.6,670.51C1065.76,670.51 1069.26,669.68 1072.1,668.02C1074.94,666.36 1077.09,663.99 1078.54,660.92C1080,657.85 1080.72,654.3 1080.72,650.28C1080.72,644.09 1079.09,639.16 1075.83,635.49C1072.57,631.82 1067.83,629.98 1061.59,629.98L1061.6,629.97ZM1071.65,660.88C1069.39,663.61 1066.01,664.97 1061.53,664.97C1058.48,664.97 1055.95,664.36 1053.94,663.13C1051.93,661.91 1050.44,660.17 1049.47,657.93C1048.5,655.69 1048.01,653.14 1048.01,650.27C1048.01,645.7 1049.15,642.07 1051.44,639.39C1053.73,636.71 1057.09,635.37 1061.52,635.37C1065.95,635.37 1069.43,636.77 1071.67,639.56C1073.91,642.36 1075.03,645.92 1075.03,650.27C1075.03,654.62 1073.9,658.15 1071.63,660.87L1071.65,660.88Z" style="fill-rule:nonzero;"/>
        <path d="M1087.37,661.6C1084.87,661.6 1082.9,663.63 1082.9,666.05L1082.9,666.07C1082.9,668.49 1084.84,670.5 1087.34,670.5C1089.84,670.5 1091.81,668.47 1091.81,666.05L1091.81,666.03C1091.81,663.61 1089.87,661.6 1087.37,661.6ZM1091.04,666.05C1091.04,668.09 1089.45,669.76 1087.34,669.76C1085.23,669.76 1083.67,668.11 1083.67,666.07L1083.67,666.05C1083.67,664.01 1085.26,662.34 1087.37,662.34C1089.48,662.34 1091.04,663.99 1091.04,666.03L1091.04,666.05Z" style="fill-rule:nonzero;"/>
        <path d="M1088.81,666.93C1088.66,666.93 1088.56,666.99 1088.49,667.05C1088.18,667.31 1087.88,667.46 1087.44,667.46C1086.64,667.46 1086.09,666.8 1086.09,666.01L1086.09,665.99C1086.09,665.19 1086.66,664.54 1087.44,664.54C1087.81,664.54 1088.15,664.69 1088.41,664.88C1088.52,664.97 1088.64,665.02 1088.75,665.02C1089.03,665.02 1089.27,664.79 1089.27,664.49C1089.27,664.29 1089.17,664.15 1089.04,664.05C1088.65,663.75 1088.19,663.56 1087.44,663.56C1085.99,663.56 1084.98,664.67 1084.98,666.01L1084.98,666.03C1084.98,667.38 1086.01,668.45 1087.4,668.45C1088.2,668.45 1088.69,668.2 1089.15,667.8C1089.24,667.73 1089.31,667.6 1089.31,667.44C1089.31,667.17 1089.08,666.94 1088.81,666.94L1088.81,666.93Z" style="fill-rule:nonzero;"/>
    </g>
</svg>
