<?xml version="1.0" encoding="utf-8"?>
<!-- Generator: Adobe Illustrator 26.5.0, SVG Export Plug-In . SVG Version: 6.00 Build 0)  -->
<svg version="1.1" id="Layer_1" xmlns:serif="http://www.serif.com/"
	 xmlns="http://www.w3.org/2000/svg" xmlns:xlink="http://www.w3.org/1999/xlink" x="0px" y="0px" viewBox="0 0 761.7 158.2"
	 style="enable-background:new 0 0 761.7 158.2;" xml:space="preserve">
<style type="text/css">
	.st0{fill:#E83987;}
	.st1{fill:#FACDAE;}
	.st2{fill:#922150;}
	.st3{fill:#C8D7A8;}
	.st4{fill:#A3B7DE;}
	.st5{fill:#94CCB2;}
	.st6{fill:#F5CC12;}
	.st7{fill:#FFFFFF;}
</style>
<g>
	<g transform="matrix(1,0,0,1,-463,0)">
		<path class="st0" d="M535.9,77.9L465.8,7.8c-1-1-2.8-0.3-2.8,1.1v140.2c0,1.5,1.8,2.2,2.8,1.1l70.1-70.1
			C536.5,79.6,536.5,78.6,535.9,77.9z"/>
	</g>
	<g transform="matrix(1,0,0,1,-463,0)">
		<path class="st1" d="M540.9,72.8c0.6,0.6,1.7,0.6,2.3,0l70.1-70.1c1-1,0.3-2.8-1.1-2.8H472c-1.5,0-2.2,1.8-1.1,2.8L540.9,72.8z"/>
	</g>
	<g transform="matrix(1,0,0,1,-463,0)">
		<path class="st2" d="M540.9,85.3l-27.2,27.2c-1,1-0.3,2.8,1.1,2.8h54.3c1.5,0,2.2-1.8,1.1-2.8l-27.2-27.2
			C542.6,84.6,541.6,84.6,540.9,85.3z"/>
	</g>
	<g transform="matrix(1,0,0,1,-463,0)">
		<path class="st3" d="M618.4,7.8l-30.3,30.3c-0.6,0.6-0.6,1.7,0,2.3l30.3,30.3c1,1,2.8,0.3,2.8-1.1V9
			C621.2,7.5,619.4,6.8,618.4,7.8L618.4,7.8z"/>
	</g>
	<g transform="matrix(1,0,0,1,-463,0)">
		<path class="st4" d="M569.3,122.4h-64.8c-0.4,0-0.8,0.2-1.1,0.5l-32.5,32.5c-1,1-0.3,2.8,1.1,2.8h64.8c0.4,0,0.8-0.2,1.1-0.5
			l32.5-32.5C571.4,124.1,570.7,122.4,569.3,122.4z"/>
	</g>
	<g transform="matrix(1,0,0,1,-463,0)">
		<path class="st5" d="M618.4,87.3l-68,68c-1,1-0.3,2.8,1.1,2.8h68c0.9,0,1.6-0.7,1.6-1.6v-68C621.2,87,619.4,86.3,618.4,87.3z"/>
	</g>
	<g transform="matrix(1,0,0,1,-463,0)">
		<path class="st6" d="M583,112.6l32.4-32.4c0.6-0.6,0.6-1.7,0-2.3L583,45.5c-0.6-0.6-1.7-0.6-2.3,0l-32.4,32.4
			c-0.6,0.6-0.6,1.7,0,2.3l32.4,32.4C581.3,113.2,582.3,113.2,583,112.6z"/>
	</g>
</g>
<g>
	<g transform="matrix(1,0,0,1,-463,0)">
		<path class="st7" d="M720.5,89.4h20.2c-1.2,7-4.2,12.1-9,15.5s-10.5,5-17.1,5c-9.6,0-17-2.7-22.3-8.2c-5.3-5.5-7.9-13.2-7.9-23.2
			c0.2-9.5,2.6-17,7.3-22.4c4.7-5.5,12-8.2,21.8-8.2c6.2,0,11.7,1.4,16.4,4.3c4.7,2.9,7.9,7.6,9.4,14.2l11.6-1.6
			c-1.9-9.2-6-16.2-12.2-21c-6.2-4.8-14.6-7.2-25.2-7.2c-8.1,0-15.2,1.7-21.3,5c-6.1,3.3-10.9,8.2-14.3,14.5s-5.2,14.1-5.3,23.2
			c-0.1,9.1,1.4,16.8,4.7,23c3.2,6.2,7.7,11,13.6,14.3c5.9,3.3,12.7,4.9,20.7,4.9c5.9,0,10.9-1,15-2.9c4.1-1.9,7.4-4.3,9.7-7
			c2.4-2.8,4-5.4,5-7.9h0.3l2.8,16.1h8.3V80.3h-32.1L720.5,89.4L720.5,89.4z"/>
	</g>
	<g transform="matrix(1,0,0,1,-463,0)">
		<path class="st7" d="M802,72.6l-0.3,0.2c-0.6-1.5-1.6-3.3-3.1-5.2c-1.5-1.9-3.6-3.7-6.3-5.2c-2.7-1.5-6.2-2.3-10.6-2.3
			c-8.1,0-14,2.9-17.7,8.6c-3.7,5.7-5.5,13.1-5.5,22.1c0,5.9,0.8,11.1,2.4,15.7c1.6,4.6,4.1,8.2,7.5,10.8c3.4,2.6,7.8,3.9,13.3,3.9
			c4.3,0,7.7-0.7,10.4-2.1c2.7-1.4,4.8-3.1,6.4-4.9c1.5-1.9,2.6-3.6,3.2-5l0.3,0.2l2,10.4h10.3V60.1H802L802,72.6L802,72.6z
			 M798.5,105.3c-2.3,3.7-6.3,5.6-12,5.6c-5.7,0-10.1-1.9-12.5-5.8c-2.4-3.9-3.6-8.7-3.6-14.4c0-3.7,0.5-7,1.5-10c1-3,2.7-5.4,5-7.1
			c2.3-1.7,5.5-2.6,9.6-2.6c5.5,0,9.5,1.8,11.8,5.3c2.4,3.5,3.6,8.4,3.6,14.6C801.9,97.1,800.7,101.6,798.5,105.3z"/>
	</g>
	<g transform="matrix(1,0,0,1,-463,0)">
		<path class="st7" d="M906.8,76.6c-0.5-2.8-1.4-5.4-2.8-7.8c-1.3-2.5-3.1-4.5-5.5-6c-2.4-1.5-5.4-2.3-9.2-2.3
			c-3.5,0-6.4,0.6-8.8,1.8c-2.4,1.2-4.4,2.7-5.9,4.3c-1.5,1.7-2.6,3.3-3.4,4.7c-0.8,1.4-1.2,2.4-1.3,2.9h-0.3
			c-1.1-3.7-2.8-6.9-5.3-9.7c-2.5-2.8-6.3-4.1-11.4-4.1c-3.4,0-6.2,0.6-8.6,1.8c-2.3,1.2-4.2,2.7-5.6,4.3c-1.4,1.7-2.4,3.3-3,4.7
			c-0.6,1.4-1,2.4-1.2,2.9h-0.3l-0.3-13.8h-10.4v59.4h10.7V91.5c0-3.4,0.4-6.6,1.3-9.8c0.9-3.1,2.3-5.7,4.3-7.6
			c2-1.9,4.9-2.9,8.6-2.9c3.1,0,5.5,0.7,7.2,2.1c1.7,1.4,2.9,3.2,3.6,5.4c0.7,2.2,1.2,4.3,1.3,6.5c0.2,2.2,0.2,4,0.2,5.4v29.2H871
			V91.5c0-3.4,0.4-6.6,1.3-9.8c0.9-3.1,2.3-5.7,4.3-7.6c2-1.9,4.9-2.9,8.6-2.9c3.1,0,5.5,0.7,7.2,2.1c1.7,1.4,2.9,3.2,3.6,5.4
			c0.7,2.2,1.2,4.3,1.3,6.5c0.2,2.2,0.2,4,0.2,5.4v29.2h10.3v-29c0-1.6-0.1-3.7-0.2-6.2C907.7,82.1,907.3,79.4,906.8,76.6
			L906.8,76.6z"/>
	</g>
	<g transform="matrix(1,0,0,1,-463,0)">
		<path class="st7" d="M970.7,87.7c-0.2-5.6-1.5-10.5-3.9-14.6c-2.4-4.1-5.7-7.3-9.8-9.6c-4.1-2.3-8.7-3.4-13.9-3.4
			c-6,0-11.1,1.4-15.5,4.1c-4.3,2.7-7.6,6.4-9.9,11c-2.3,4.7-3.4,9.8-3.3,15.5c0,5.1,1,10,3,14.7c2,4.7,5.2,8.4,9.4,11.4
			c4.3,3,9.7,4.4,16.4,4.4c7.8,0,14.1-2.1,18.9-6.2c4.7-4.1,7.5-9.3,8.4-15.5H959c-0.7,3.5-2.4,6.3-5.3,8.3
			c-2.9,2.1-6.3,3.1-10.4,3.1c-5.4,0-9.7-1.7-12.7-5.2c-3-3.4-4.6-8.4-4.6-14.9h44.8C970.8,89.1,970.7,88,970.7,87.7L970.7,87.7z
			 M926.5,85.5c0.2-2.1,0.8-4.4,2-6.7c1.1-2.4,2.8-4.4,5.1-6.1c2.3-1.7,5.4-2.5,9.4-2.5c3.2,0,5.8,0.6,7.8,1.7
			c2,1.2,3.6,2.6,4.7,4.3c1.1,1.7,1.9,3.4,2.4,5.2c0.5,1.7,0.8,3.1,0.9,4.2H926.5L926.5,85.5z"/>
	</g>
	<g transform="matrix(1,0,0,1,-463,0)">
		<path class="st7" d="M1043.7,56.2c-4.2-6-10-10.5-17.5-13.6c-7.5-3-16.3-4.6-26.3-4.6h-22.1v81.7h22.1c10.1,0,18.8-1.2,26.3-3.5
			c7.5-2.3,13.3-6.5,17.5-12.4c4.2-5.9,6.2-14.3,6.2-25C1050,69.8,1047.9,62.2,1043.7,56.2L1043.7,56.2z M1033,98.2
			c-2.8,4.4-6.8,7.5-11.9,9.1c-5.1,1.6-11.1,2.4-18,2.4h-13.2V48.5h13.2c10.4,0,18.6,2.5,24.8,7.5c6.2,5,9.3,12.6,9.3,22.7
			C1037.2,87.2,1035.8,93.7,1033,98.2z"/>
	</g>
	<g transform="matrix(1,0,0,1,-463,0)">
		<path class="st7" d="M1075.1,38.1l-29,81.7h12.8l7.8-24.4h37l7.8,24.4h12.9L1095,38.1H1075.1z M1069.9,85.8l15.3-42.7l15.3,42.7
			H1069.9z"/>
	</g>
	<g transform="matrix(1,0,0,1,-463,0)">
		<path class="st7" d="M1161.4,36.6c-9,0-16.5,1.8-22.4,5.3c-5.9,3.5-10.4,8.5-13.3,14.8c-3,6.3-4.4,13.8-4.4,22.4
			c0,13.1,3.4,23.4,10.3,31c6.9,7.6,16.8,11.4,29.9,11.4c8.7,0,16-1.7,22-5.2c5.9-3.5,10.4-8.4,13.5-14.9c3-6.4,4.6-13.9,4.6-22.3
			c0-13-3.4-23.3-10.2-31C1184.4,40.5,1174.5,36.6,1161.4,36.6L1161.4,36.6z M1182.5,101.4c-4.7,5.7-11.8,8.6-21.2,8.6
			c-6.4,0-11.7-1.3-15.9-3.8c-4.2-2.6-7.3-6.2-9.4-10.9c-2-4.7-3-10-3-16c0-9.6,2.4-17.2,7.2-22.8c4.8-5.6,11.8-8.4,21.1-8.4
			c9.3,0,16.6,2.9,21.3,8.8c4.7,5.9,7,13.3,7,22.4C1189.6,88.2,1187.3,95.6,1182.5,101.4L1182.5,101.4z"/>
	</g>
	<g transform="matrix(1,0,0,1,-463,0)">
		<path class="st7" d="M1215.4,102.9c-5.2,0-9.4,4.3-9.4,9.3v0.1c0,5.1,4.1,9.3,9.3,9.3c5.2,0,9.4-4.3,9.4-9.3v-0.1
			C1224.7,107.1,1220.6,102.9,1215.4,102.9z M1223.1,112.2c0,4.3-3.3,7.8-7.7,7.8s-7.7-3.4-7.7-7.7v-0.1c0-4.3,3.3-7.8,7.7-7.8
			C1219.8,104.4,1223.1,107.9,1223.1,112.2L1223.1,112.2z"/>
	</g>
	<g transform="matrix(1,0,0,1,-463,0)">
		<path class="st7" d="M1218.4,114c-0.3,0-0.5,0.1-0.7,0.3c-0.6,0.5-1.3,0.8-2.2,0.8c-1.7,0-2.8-1.4-2.8-3V112c0-1.7,1.2-3,2.8-3
			c0.8,0,1.5,0.3,2,0.7c0.2,0.2,0.5,0.3,0.7,0.3c0.6,0,1.1-0.5,1.1-1.1c0-0.4-0.2-0.7-0.5-0.9c-0.8-0.6-1.8-1-3.4-1
			c-3,0-5.2,2.3-5.2,5.1v0.1c0,2.8,2.2,5.1,5.1,5.1c1.7,0,2.7-0.5,3.7-1.4c0.2-0.2,0.3-0.4,0.3-0.8
			C1219.5,114.5,1219,114,1218.4,114L1218.4,114z"/>
	</g>
</g>
</svg>
